<?xml version="1.0" encoding="utf-8" standalone="no"?>
<!DOCTYPE svg PUBLIC "-//W3C//DTD SVG 1.1//EN"
  "http://www.w3.org/Graphics/SVG/1.1/DTD/svg11.dtd">
<svg xmlns:xlink="http://www.w3.org/1999/xlink" width="1152pt" height="576pt" viewBox="0 0 1152 576" xmlns="http://www.w3.org/2000/svg" version="1.1">
 <metadata>
  <rdf:RDF xmlns:dc="http://purl.org/dc/elements/1.1/" xmlns:cc="http://creativecommons.org/ns#" xmlns:rdf="http://www.w3.org/1999/02/22-rdf-syntax-ns#">
   <cc:Work>
    <dc:type rdf:resource="http://purl.org/dc/dcmitype/StillImage"/>
    <dc:date>2026-07-08T10:07:25.653603</dc:date>
    <dc:format>image/svg+xml</dc:format>
    <dc:creator>
     <cc:Agent>
      <dc:title>Matplotlib v3.10.1, https://matplotlib.org/</dc:title>
     </cc:Agent>
    </dc:creator>
   </cc:Work>
  </rdf:RDF>
 </metadata>
 <defs>
  <style type="text/css">*{stroke-linejoin: round; stroke-linecap: butt}</style>
 </defs>
 <g id="figure_1">
  <g id="patch_1">
   <path d="M 0 576 
L 1152 576 
L 1152 0 
L 0 0 
z
" style="fill: #ffffff"/>
  </g>
  <g id="axes_1">
   <g id="patch_2">
    <path d="M 302.000291 411.099066 
Q 333.493669 379.808871 365.780171 347.730669 
" style="fill: none; stroke: #000000; stroke-linecap: round"/>
    <path d="M 309.482659 408.631819 
L 302.000291 411.099066 
L 304.515915 403.632824 
" style="fill: none; stroke: #000000; stroke-linecap: round"/>
   </g>
   <g id="text_1">
    <g id="patch_3">
     <path d="M 177.7719 500.601343 
L 333.4281 500.601343 
Q 338.713259 500.601343 338.713259 495.316184 
L 338.713259 419.083816 
Q 338.713259 413.798657 333.4281 413.798657 
L 177.7719 413.798657 
Q 172.486741 413.798657 172.486741 419.083816 
L 172.486741 495.316184 
Q 172.486741 500.601343 177.7719 500.601343 
z
" style="fill: #ffffff; stroke: #000000; stroke-linejoin: miter"/>
    </g>
    <!-- gini = 0.5 -->
    <g transform="translate(212.542468 432.470134) scale(0.176172 -0.176172)">
     <defs>
      <path id="DejaVuSans-67" d="M 2906 1791 
Q 2906 2416 2648 2759 
Q 2391 3103 1925 3103 
Q 1463 3103 1205 2759 
Q 947 2416 947 1791 
Q 947 1169 1205 825 
Q 1463 481 1925 481 
Q 2391 481 2648 825 
Q 2906 1169 2906 1791 
z
M 3481 434 
Q 3481 -459 3084 -895 
Q 2688 -1331 1869 -1331 
Q 1566 -1331 1297 -1286 
Q 1028 -1241 775 -1147 
L 775 -588 
Q 1028 -725 1275 -790 
Q 1522 -856 1778 -856 
Q 2344 -856 2625 -561 
Q 2906 -266 2906 331 
L 2906 616 
Q 2728 306 2450 153 
Q 2172 0 1784 0 
Q 1141 0 747 490 
Q 353 981 353 1791 
Q 353 2603 747 3093 
Q 1141 3584 1784 3584 
Q 2172 3584 2450 3431 
Q 2728 3278 2906 2969 
L 2906 3500 
L 3481 3500 
L 3481 434 
z
" transform="scale(0.015625)"/>
      <path id="DejaVuSans-69" d="M 603 3500 
L 1178 3500 
L 1178 0 
L 603 0 
L 603 3500 
z
M 603 4863 
L 1178 4863 
L 1178 4134 
L 603 4134 
L 603 4863 
z
" transform="scale(0.015625)"/>
      <path id="DejaVuSans-6e" d="M 3513 2113 
L 3513 0 
L 2938 0 
L 2938 2094 
Q 2938 2591 2744 2837 
Q 2550 3084 2163 3084 
Q 1697 3084 1428 2787 
Q 1159 2491 1159 1978 
L 1159 0 
L 581 0 
L 581 3500 
L 1159 3500 
L 1159 2956 
Q 1366 3272 1645 3428 
Q 1925 3584 2291 3584 
Q 2894 3584 3203 3211 
Q 3513 2838 3513 2113 
z
" transform="scale(0.015625)"/>
      <path id="DejaVuSans-20" transform="scale(0.015625)"/>
      <path id="DejaVuSans-3d" d="M 678 2906 
L 4684 2906 
L 4684 2381 
L 678 2381 
L 678 2906 
z
M 678 1631 
L 4684 1631 
L 4684 1100 
L 678 1100 
L 678 1631 
z
" transform="scale(0.015625)"/>
      <path id="DejaVuSans-30" d="M 2034 4250 
Q 1547 4250 1301 3770 
Q 1056 3291 1056 2328 
Q 1056 1369 1301 889 
Q 1547 409 2034 409 
Q 2525 409 2770 889 
Q 3016 1369 3016 2328 
Q 3016 3291 2770 3770 
Q 2525 4250 2034 4250 
z
M 2034 4750 
Q 2819 4750 3233 4129 
Q 3647 3509 3647 2328 
Q 3647 1150 3233 529 
Q 2819 -91 2034 -91 
Q 1250 -91 836 529 
Q 422 1150 422 2328 
Q 422 3509 836 4129 
Q 1250 4750 2034 4750 
z
" transform="scale(0.015625)"/>
      <path id="DejaVuSans-2e" d="M 684 794 
L 1344 794 
L 1344 0 
L 684 0 
L 684 794 
z
" transform="scale(0.015625)"/>
      <path id="DejaVuSans-35" d="M 691 4666 
L 3169 4666 
L 3169 4134 
L 1269 4134 
L 1269 2991 
Q 1406 3038 1543 3061 
Q 1681 3084 1819 3084 
Q 2600 3084 3056 2656 
Q 3513 2228 3513 1497 
Q 3513 744 3044 326 
Q 2575 -91 1722 -91 
Q 1428 -91 1123 -41 
Q 819 9 494 109 
L 494 744 
Q 775 591 1075 516 
Q 1375 441 1709 441 
Q 2250 441 2565 725 
Q 2881 1009 2881 1497 
Q 2881 1984 2565 2268 
Q 2250 2553 1709 2553 
Q 1456 2553 1204 2497 
Q 953 2441 691 2322 
L 691 4666 
z
" transform="scale(0.015625)"/>
     </defs>
     <use xlink:href="#DejaVuSans-67"/>
     <use xlink:href="#DejaVuSans-69" transform="translate(63.476562 0)"/>
     <use xlink:href="#DejaVuSans-6e" transform="translate(91.259766 0)"/>
     <use xlink:href="#DejaVuSans-69" transform="translate(154.638672 0)"/>
     <use xlink:href="#DejaVuSans-20" transform="translate(182.421875 0)"/>
     <use xlink:href="#DejaVuSans-3d" transform="translate(214.208984 0)"/>
     <use xlink:href="#DejaVuSans-20" transform="translate(297.998047 0)"/>
     <use xlink:href="#DejaVuSans-30" transform="translate(329.785156 0)"/>
     <use xlink:href="#DejaVuSans-2e" transform="translate(393.408203 0)"/>
     <use xlink:href="#DejaVuSans-35" transform="translate(425.195312 0)"/>
    </g>
    <!-- samples = 2 -->
    <g transform="translate(200.400365 452.197542) scale(0.176172 -0.176172)">
     <defs>
      <path id="DejaVuSans-73" d="M 2834 3397 
L 2834 2853 
Q 2591 2978 2328 3040 
Q 2066 3103 1784 3103 
Q 1356 3103 1142 2972 
Q 928 2841 928 2578 
Q 928 2378 1081 2264 
Q 1234 2150 1697 2047 
L 1894 2003 
Q 2506 1872 2764 1633 
Q 3022 1394 3022 966 
Q 3022 478 2636 193 
Q 2250 -91 1575 -91 
Q 1294 -91 989 -36 
Q 684 19 347 128 
L 347 722 
Q 666 556 975 473 
Q 1284 391 1588 391 
Q 1994 391 2212 530 
Q 2431 669 2431 922 
Q 2431 1156 2273 1281 
Q 2116 1406 1581 1522 
L 1381 1569 
Q 847 1681 609 1914 
Q 372 2147 372 2553 
Q 372 3047 722 3315 
Q 1072 3584 1716 3584 
Q 2034 3584 2315 3537 
Q 2597 3491 2834 3397 
z
" transform="scale(0.015625)"/>
      <path id="DejaVuSans-61" d="M 2194 1759 
Q 1497 1759 1228 1600 
Q 959 1441 959 1056 
Q 959 750 1161 570 
Q 1363 391 1709 391 
Q 2188 391 2477 730 
Q 2766 1069 2766 1631 
L 2766 1759 
L 2194 1759 
z
M 3341 1997 
L 3341 0 
L 2766 0 
L 2766 531 
Q 2569 213 2275 61 
Q 1981 -91 1556 -91 
Q 1019 -91 701 211 
Q 384 513 384 1019 
Q 384 1609 779 1909 
Q 1175 2209 1959 2209 
L 2766 2209 
L 2766 2266 
Q 2766 2663 2505 2880 
Q 2244 3097 1772 3097 
Q 1472 3097 1187 3025 
Q 903 2953 641 2809 
L 641 3341 
Q 956 3463 1253 3523 
Q 1550 3584 1831 3584 
Q 2591 3584 2966 3190 
Q 3341 2797 3341 1997 
z
" transform="scale(0.015625)"/>
      <path id="DejaVuSans-6d" d="M 3328 2828 
Q 3544 3216 3844 3400 
Q 4144 3584 4550 3584 
Q 5097 3584 5394 3201 
Q 5691 2819 5691 2113 
L 5691 0 
L 5113 0 
L 5113 2094 
Q 5113 2597 4934 2840 
Q 4756 3084 4391 3084 
Q 3944 3084 3684 2787 
Q 3425 2491 3425 1978 
L 3425 0 
L 2847 0 
L 2847 2094 
Q 2847 2600 2669 2842 
Q 2491 3084 2119 3084 
Q 1678 3084 1418 2786 
Q 1159 2488 1159 1978 
L 1159 0 
L 581 0 
L 581 3500 
L 1159 3500 
L 1159 2956 
Q 1356 3278 1631 3431 
Q 1906 3584 2284 3584 
Q 2666 3584 2933 3390 
Q 3200 3197 3328 2828 
z
" transform="scale(0.015625)"/>
      <path id="DejaVuSans-70" d="M 1159 525 
L 1159 -1331 
L 581 -1331 
L 581 3500 
L 1159 3500 
L 1159 2969 
Q 1341 3281 1617 3432 
Q 1894 3584 2278 3584 
Q 2916 3584 3314 3078 
Q 3713 2572 3713 1747 
Q 3713 922 3314 415 
Q 2916 -91 2278 -91 
Q 1894 -91 1617 61 
Q 1341 213 1159 525 
z
M 3116 1747 
Q 3116 2381 2855 2742 
Q 2594 3103 2138 3103 
Q 1681 3103 1420 2742 
Q 1159 2381 1159 1747 
Q 1159 1113 1420 752 
Q 1681 391 2138 391 
Q 2594 391 2855 752 
Q 3116 1113 3116 1747 
z
" transform="scale(0.015625)"/>
      <path id="DejaVuSans-6c" d="M 603 4863 
L 1178 4863 
L 1178 0 
L 603 0 
L 603 4863 
z
" transform="scale(0.015625)"/>
      <path id="DejaVuSans-65" d="M 3597 1894 
L 3597 1613 
L 953 1613 
Q 991 1019 1311 708 
Q 1631 397 2203 397 
Q 2534 397 2845 478 
Q 3156 559 3463 722 
L 3463 178 
Q 3153 47 2828 -22 
Q 2503 -91 2169 -91 
Q 1331 -91 842 396 
Q 353 884 353 1716 
Q 353 2575 817 3079 
Q 1281 3584 2069 3584 
Q 2775 3584 3186 3129 
Q 3597 2675 3597 1894 
z
M 3022 2063 
Q 3016 2534 2758 2815 
Q 2500 3097 2075 3097 
Q 1594 3097 1305 2825 
Q 1016 2553 972 2059 
L 3022 2063 
z
" transform="scale(0.015625)"/>
      <path id="DejaVuSans-32" d="M 1228 531 
L 3431 531 
L 3431 0 
L 469 0 
L 469 531 
Q 828 903 1448 1529 
Q 2069 2156 2228 2338 
Q 2531 2678 2651 2914 
Q 2772 3150 2772 3378 
Q 2772 3750 2511 3984 
Q 2250 4219 1831 4219 
Q 1534 4219 1204 4116 
Q 875 4013 500 3803 
L 500 4441 
Q 881 4594 1212 4672 
Q 1544 4750 1819 4750 
Q 2544 4750 2975 4387 
Q 3406 4025 3406 3419 
Q 3406 3131 3298 2873 
Q 3191 2616 2906 2266 
Q 2828 2175 2409 1742 
Q 1991 1309 1228 531 
z
" transform="scale(0.015625)"/>
     </defs>
     <use xlink:href="#DejaVuSans-73"/>
     <use xlink:href="#DejaVuSans-61" transform="translate(52.099609 0)"/>
     <use xlink:href="#DejaVuSans-6d" transform="translate(113.378906 0)"/>
     <use xlink:href="#DejaVuSans-70" transform="translate(210.791016 0)"/>
     <use xlink:href="#DejaVuSans-6c" transform="translate(274.267578 0)"/>
     <use xlink:href="#DejaVuSans-65" transform="translate(302.050781 0)"/>
     <use xlink:href="#DejaVuSans-73" transform="translate(363.574219 0)"/>
     <use xlink:href="#DejaVuSans-20" transform="translate(415.673828 0)"/>
     <use xlink:href="#DejaVuSans-3d" transform="translate(447.460938 0)"/>
     <use xlink:href="#DejaVuSans-20" transform="translate(531.25 0)"/>
     <use xlink:href="#DejaVuSans-32" transform="translate(563.037109 0)"/>
    </g>
    <!-- value = [0, 1, 1] -->
    <g transform="translate(183.673661 471.924949) scale(0.176172 -0.176172)">
     <defs>
      <path id="DejaVuSans-76" d="M 191 3500 
L 800 3500 
L 1894 563 
L 2988 3500 
L 3597 3500 
L 2284 0 
L 1503 0 
L 191 3500 
z
" transform="scale(0.015625)"/>
      <path id="DejaVuSans-75" d="M 544 1381 
L 544 3500 
L 1119 3500 
L 1119 1403 
Q 1119 906 1312 657 
Q 1506 409 1894 409 
Q 2359 409 2629 706 
Q 2900 1003 2900 1516 
L 2900 3500 
L 3475 3500 
L 3475 0 
L 2900 0 
L 2900 538 
Q 2691 219 2414 64 
Q 2138 -91 1772 -91 
Q 1169 -91 856 284 
Q 544 659 544 1381 
z
M 1991 3584 
L 1991 3584 
z
" transform="scale(0.015625)"/>
      <path id="DejaVuSans-5b" d="M 550 4863 
L 1875 4863 
L 1875 4416 
L 1125 4416 
L 1125 -397 
L 1875 -397 
L 1875 -844 
L 550 -844 
L 550 4863 
z
" transform="scale(0.015625)"/>
      <path id="DejaVuSans-2c" d="M 750 794 
L 1409 794 
L 1409 256 
L 897 -744 
L 494 -744 
L 750 256 
L 750 794 
z
" transform="scale(0.015625)"/>
      <path id="DejaVuSans-31" d="M 794 531 
L 1825 531 
L 1825 4091 
L 703 3866 
L 703 4441 
L 1819 4666 
L 2450 4666 
L 2450 531 
L 3481 531 
L 3481 0 
L 794 0 
L 794 531 
z
" transform="scale(0.015625)"/>
      <path id="DejaVuSans-5d" d="M 1947 4863 
L 1947 -844 
L 622 -844 
L 622 -397 
L 1369 -397 
L 1369 4416 
L 622 4416 
L 622 4863 
L 1947 4863 
z
" transform="scale(0.015625)"/>
     </defs>
     <use xlink:href="#DejaVuSans-76"/>
     <use xlink:href="#DejaVuSans-61" transform="translate(59.179688 0)"/>
     <use xlink:href="#DejaVuSans-6c" transform="translate(120.458984 0)"/>
     <use xlink:href="#DejaVuSans-75" transform="translate(148.242188 0)"/>
     <use xlink:href="#DejaVuSans-65" transform="translate(211.621094 0)"/>
     <use xlink:href="#DejaVuSans-20" transform="translate(273.144531 0)"/>
     <use xlink:href="#DejaVuSans-3d" transform="translate(304.931641 0)"/>
     <use xlink:href="#DejaVuSans-20" transform="translate(388.720703 0)"/>
     <use xlink:href="#DejaVuSans-5b" transform="translate(420.507812 0)"/>
     <use xlink:href="#DejaVuSans-30" transform="translate(459.521484 0)"/>
     <use xlink:href="#DejaVuSans-2c" transform="translate(523.144531 0)"/>
     <use xlink:href="#DejaVuSans-20" transform="translate(554.931641 0)"/>
     <use xlink:href="#DejaVuSans-31" transform="translate(586.71875 0)"/>
     <use xlink:href="#DejaVuSans-2c" transform="translate(650.341797 0)"/>
     <use xlink:href="#DejaVuSans-20" transform="translate(682.128906 0)"/>
     <use xlink:href="#DejaVuSans-31" transform="translate(713.916016 0)"/>
     <use xlink:href="#DejaVuSans-5d" transform="translate(777.539062 0)"/>
    </g>
    <!-- class = versicolor -->
    <g transform="translate(177.7719 491.652357) scale(0.176172 -0.176172)">
     <defs>
      <path id="DejaVuSans-63" d="M 3122 3366 
L 3122 2828 
Q 2878 2963 2633 3030 
Q 2388 3097 2138 3097 
Q 1578 3097 1268 2742 
Q 959 2388 959 1747 
Q 959 1106 1268 751 
Q 1578 397 2138 397 
Q 2388 397 2633 464 
Q 2878 531 3122 666 
L 3122 134 
Q 2881 22 2623 -34 
Q 2366 -91 2075 -91 
Q 1284 -91 818 406 
Q 353 903 353 1747 
Q 353 2603 823 3093 
Q 1294 3584 2113 3584 
Q 2378 3584 2631 3529 
Q 2884 3475 3122 3366 
z
" transform="scale(0.015625)"/>
      <path id="DejaVuSans-72" d="M 2631 2963 
Q 2534 3019 2420 3045 
Q 2306 3072 2169 3072 
Q 1681 3072 1420 2755 
Q 1159 2438 1159 1844 
L 1159 0 
L 581 0 
L 581 3500 
L 1159 3500 
L 1159 2956 
Q 1341 3275 1631 3429 
Q 1922 3584 2338 3584 
Q 2397 3584 2469 3576 
Q 2541 3569 2628 3553 
L 2631 2963 
z
" transform="scale(0.015625)"/>
      <path id="DejaVuSans-6f" d="M 1959 3097 
Q 1497 3097 1228 2736 
Q 959 2375 959 1747 
Q 959 1119 1226 758 
Q 1494 397 1959 397 
Q 2419 397 2687 759 
Q 2956 1122 2956 1747 
Q 2956 2369 2687 2733 
Q 2419 3097 1959 3097 
z
M 1959 3584 
Q 2709 3584 3137 3096 
Q 3566 2609 3566 1747 
Q 3566 888 3137 398 
Q 2709 -91 1959 -91 
Q 1206 -91 779 398 
Q 353 888 353 1747 
Q 353 2609 779 3096 
Q 1206 3584 1959 3584 
z
" transform="scale(0.015625)"/>
     </defs>
     <use xlink:href="#DejaVuSans-63"/>
     <use xlink:href="#DejaVuSans-6c" transform="translate(54.980469 0)"/>
     <use xlink:href="#DejaVuSans-61" transform="translate(82.763672 0)"/>
     <use xlink:href="#DejaVuSans-73" transform="translate(144.042969 0)"/>
     <use xlink:href="#DejaVuSans-73" transform="translate(196.142578 0)"/>
     <use xlink:href="#DejaVuSans-20" transform="translate(248.242188 0)"/>
     <use xlink:href="#DejaVuSans-3d" transform="translate(280.029297 0)"/>
     <use xlink:href="#DejaVuSans-20" transform="translate(363.818359 0)"/>
     <use xlink:href="#DejaVuSans-76" transform="translate(395.605469 0)"/>
     <use xlink:href="#DejaVuSans-65" transform="translate(454.785156 0)"/>
     <use xlink:href="#DejaVuSans-72" transform="translate(516.308594 0)"/>
     <use xlink:href="#DejaVuSans-73" transform="translate(557.421875 0)"/>
     <use xlink:href="#DejaVuSans-69" transform="translate(609.521484 0)"/>
     <use xlink:href="#DejaVuSans-63" transform="translate(637.304688 0)"/>
     <use xlink:href="#DejaVuSans-6f" transform="translate(692.285156 0)"/>
     <use xlink:href="#DejaVuSans-6c" transform="translate(753.466797 0)"/>
     <use xlink:href="#DejaVuSans-6f" transform="translate(781.25 0)"/>
     <use xlink:href="#DejaVuSans-72" transform="translate(842.431641 0)"/>
    </g>
   </g>
   <g id="patch_4">
    <path d="M 432.399709 411.099066 
Q 400.906331 379.808871 368.619829 347.730669 
" style="fill: none; stroke: #000000; stroke-linecap: round"/>
    <path d="M 429.884085 403.632824 
L 432.399709 411.099066 
L 424.917341 408.631819 
" style="fill: none; stroke: #000000; stroke-linecap: round"/>
   </g>
   <g id="text_2">
    <g id="patch_5">
     <path d="M 400.9719 500.601343 
L 556.6281 500.601343 
Q 561.913259 500.601343 561.913259 495.316184 
L 561.913259 419.083816 
Q 561.913259 413.798657 556.6281 413.798657 
L 400.9719 413.798657 
Q 395.686741 413.798657 395.686741 419.083816 
L 395.686741 495.316184 
Q 395.686741 500.601343 400.9719 500.601343 
z
" style="fill: #39e581; stroke: #000000; stroke-linejoin: miter"/>
    </g>
    <!-- gini = 0.0 -->
    <g transform="translate(435.742468 432.470134) scale(0.176172 -0.176172)">
     <use xlink:href="#DejaVuSans-67"/>
     <use xlink:href="#DejaVuSans-69" transform="translate(63.476562 0)"/>
     <use xlink:href="#DejaVuSans-6e" transform="translate(91.259766 0)"/>
     <use xlink:href="#DejaVuSans-69" transform="translate(154.638672 0)"/>
     <use xlink:href="#DejaVuSans-20" transform="translate(182.421875 0)"/>
     <use xlink:href="#DejaVuSans-3d" transform="translate(214.208984 0)"/>
     <use xlink:href="#DejaVuSans-20" transform="translate(297.998047 0)"/>
     <use xlink:href="#DejaVuSans-30" transform="translate(329.785156 0)"/>
     <use xlink:href="#DejaVuSans-2e" transform="translate(393.408203 0)"/>
     <use xlink:href="#DejaVuSans-30" transform="translate(425.195312 0)"/>
    </g>
    <!-- samples = 43 -->
    <g transform="translate(417.995894 452.197542) scale(0.176172 -0.176172)">
     <defs>
      <path id="DejaVuSans-34" d="M 2419 4116 
L 825 1625 
L 2419 1625 
L 2419 4116 
z
M 2253 4666 
L 3047 4666 
L 3047 1625 
L 3713 1625 
L 3713 1100 
L 3047 1100 
L 3047 0 
L 2419 0 
L 2419 1100 
L 313 1100 
L 313 1709 
L 2253 4666 
z
" transform="scale(0.015625)"/>
      <path id="DejaVuSans-33" d="M 2597 2516 
Q 3050 2419 3304 2112 
Q 3559 1806 3559 1356 
Q 3559 666 3084 287 
Q 2609 -91 1734 -91 
Q 1441 -91 1130 -33 
Q 819 25 488 141 
L 488 750 
Q 750 597 1062 519 
Q 1375 441 1716 441 
Q 2309 441 2620 675 
Q 2931 909 2931 1356 
Q 2931 1769 2642 2001 
Q 2353 2234 1838 2234 
L 1294 2234 
L 1294 2753 
L 1863 2753 
Q 2328 2753 2575 2939 
Q 2822 3125 2822 3475 
Q 2822 3834 2567 4026 
Q 2313 4219 1838 4219 
Q 1578 4219 1281 4162 
Q 984 4106 628 3988 
L 628 4550 
Q 988 4650 1302 4700 
Q 1616 4750 1894 4750 
Q 2613 4750 3031 4423 
Q 3450 4097 3450 3541 
Q 3450 3153 3228 2886 
Q 3006 2619 2597 2516 
z
" transform="scale(0.015625)"/>
     </defs>
     <use xlink:href="#DejaVuSans-73"/>
     <use xlink:href="#DejaVuSans-61" transform="translate(52.099609 0)"/>
     <use xlink:href="#DejaVuSans-6d" transform="translate(113.378906 0)"/>
     <use xlink:href="#DejaVuSans-70" transform="translate(210.791016 0)"/>
     <use xlink:href="#DejaVuSans-6c" transform="translate(274.267578 0)"/>
     <use xlink:href="#DejaVuSans-65" transform="translate(302.050781 0)"/>
     <use xlink:href="#DejaVuSans-73" transform="translate(363.574219 0)"/>
     <use xlink:href="#DejaVuSans-20" transform="translate(415.673828 0)"/>
     <use xlink:href="#DejaVuSans-3d" transform="translate(447.460938 0)"/>
     <use xlink:href="#DejaVuSans-20" transform="translate(531.25 0)"/>
     <use xlink:href="#DejaVuSans-34" transform="translate(563.037109 0)"/>
     <use xlink:href="#DejaVuSans-33" transform="translate(626.660156 0)"/>
    </g>
    <!-- value = [0, 43, 0] -->
    <g transform="translate(401.26919 471.924949) scale(0.176172 -0.176172)">
     <use xlink:href="#DejaVuSans-76"/>
     <use xlink:href="#DejaVuSans-61" transform="translate(59.179688 0)"/>
     <use xlink:href="#DejaVuSans-6c" transform="translate(120.458984 0)"/>
     <use xlink:href="#DejaVuSans-75" transform="translate(148.242188 0)"/>
     <use xlink:href="#DejaVuSans-65" transform="translate(211.621094 0)"/>
     <use xlink:href="#DejaVuSans-20" transform="translate(273.144531 0)"/>
     <use xlink:href="#DejaVuSans-3d" transform="translate(304.931641 0)"/>
     <use xlink:href="#DejaVuSans-20" transform="translate(388.720703 0)"/>
     <use xlink:href="#DejaVuSans-5b" transform="translate(420.507812 0)"/>
     <use xlink:href="#DejaVuSans-30" transform="translate(459.521484 0)"/>
     <use xlink:href="#DejaVuSans-2c" transform="translate(523.144531 0)"/>
     <use xlink:href="#DejaVuSans-20" transform="translate(554.931641 0)"/>
     <use xlink:href="#DejaVuSans-34" transform="translate(586.71875 0)"/>
     <use xlink:href="#DejaVuSans-33" transform="translate(650.341797 0)"/>
     <use xlink:href="#DejaVuSans-2c" transform="translate(713.964844 0)"/>
     <use xlink:href="#DejaVuSans-20" transform="translate(745.751953 0)"/>
     <use xlink:href="#DejaVuSans-30" transform="translate(777.539062 0)"/>
     <use xlink:href="#DejaVuSans-5d" transform="translate(841.162109 0)"/>
    </g>
    <!-- class = versicolor -->
    <g transform="translate(400.9719 491.652357) scale(0.176172 -0.176172)">
     <use xlink:href="#DejaVuSans-63"/>
     <use xlink:href="#DejaVuSans-6c" transform="translate(54.980469 0)"/>
     <use xlink:href="#DejaVuSans-61" transform="translate(82.763672 0)"/>
     <use xlink:href="#DejaVuSans-73" transform="translate(144.042969 0)"/>
     <use xlink:href="#DejaVuSans-73" transform="translate(196.142578 0)"/>
     <use xlink:href="#DejaVuSans-20" transform="translate(248.242188 0)"/>
     <use xlink:href="#DejaVuSans-3d" transform="translate(280.029297 0)"/>
     <use xlink:href="#DejaVuSans-20" transform="translate(363.818359 0)"/>
     <use xlink:href="#DejaVuSans-76" transform="translate(395.605469 0)"/>
     <use xlink:href="#DejaVuSans-65" transform="translate(454.785156 0)"/>
     <use xlink:href="#DejaVuSans-72" transform="translate(516.308594 0)"/>
     <use xlink:href="#DejaVuSans-73" transform="translate(557.421875 0)"/>
     <use xlink:href="#DejaVuSans-69" transform="translate(609.521484 0)"/>
     <use xlink:href="#DejaVuSans-63" transform="translate(637.304688 0)"/>
     <use xlink:href="#DejaVuSans-6f" transform="translate(692.285156 0)"/>
     <use xlink:href="#DejaVuSans-6c" transform="translate(753.466797 0)"/>
     <use xlink:href="#DejaVuSans-6f" transform="translate(781.25 0)"/>
     <use xlink:href="#DejaVuSans-72" transform="translate(842.431641 0)"/>
    </g>
   </g>
   <g id="patch_6">
    <path d="M 748.400291 411.099066 
Q 779.893669 379.808871 812.180171 347.730669 
" style="fill: none; stroke: #000000; stroke-linecap: round"/>
    <path d="M 755.882659 408.631819 
L 748.400291 411.099066 
L 750.915915 403.632824 
" style="fill: none; stroke: #000000; stroke-linecap: round"/>
   </g>
   <g id="text_3">
    <g id="patch_7">
     <path d="M 629.715812 500.601343 
L 774.284188 500.601343 
Q 779.569347 500.601343 779.569347 495.316184 
L 779.569347 419.083816 
Q 779.569347 413.798657 774.284188 413.798657 
L 629.715812 413.798657 
Q 624.430653 413.798657 624.430653 419.083816 
L 624.430653 495.316184 
Q 624.430653 500.601343 629.715812 500.601343 
z
" style="fill: #d0b5f5; stroke: #000000; stroke-linejoin: miter"/>
    </g>
    <!-- gini = 0.473 -->
    <g transform="translate(647.733526 432.470134) scale(0.176172 -0.176172)">
     <defs>
      <path id="DejaVuSans-37" d="M 525 4666 
L 3525 4666 
L 3525 4397 
L 1831 0 
L 1172 0 
L 2766 4134 
L 525 4134 
L 525 4666 
z
" transform="scale(0.015625)"/>
     </defs>
     <use xlink:href="#DejaVuSans-67"/>
     <use xlink:href="#DejaVuSans-69" transform="translate(63.476562 0)"/>
     <use xlink:href="#DejaVuSans-6e" transform="translate(91.259766 0)"/>
     <use xlink:href="#DejaVuSans-69" transform="translate(154.638672 0)"/>
     <use xlink:href="#DejaVuSans-20" transform="translate(182.421875 0)"/>
     <use xlink:href="#DejaVuSans-3d" transform="translate(214.208984 0)"/>
     <use xlink:href="#DejaVuSans-20" transform="translate(297.998047 0)"/>
     <use xlink:href="#DejaVuSans-30" transform="translate(329.785156 0)"/>
     <use xlink:href="#DejaVuSans-2e" transform="translate(393.408203 0)"/>
     <use xlink:href="#DejaVuSans-34" transform="translate(425.195312 0)"/>
     <use xlink:href="#DejaVuSans-37" transform="translate(488.818359 0)"/>
     <use xlink:href="#DejaVuSans-33" transform="translate(552.441406 0)"/>
    </g>
    <!-- samples = 13 -->
    <g transform="translate(641.195894 452.197542) scale(0.176172 -0.176172)">
     <use xlink:href="#DejaVuSans-73"/>
     <use xlink:href="#DejaVuSans-61" transform="translate(52.099609 0)"/>
     <use xlink:href="#DejaVuSans-6d" transform="translate(113.378906 0)"/>
     <use xlink:href="#DejaVuSans-70" transform="translate(210.791016 0)"/>
     <use xlink:href="#DejaVuSans-6c" transform="translate(274.267578 0)"/>
     <use xlink:href="#DejaVuSans-65" transform="translate(302.050781 0)"/>
     <use xlink:href="#DejaVuSans-73" transform="translate(363.574219 0)"/>
     <use xlink:href="#DejaVuSans-20" transform="translate(415.673828 0)"/>
     <use xlink:href="#DejaVuSans-3d" transform="translate(447.460938 0)"/>
     <use xlink:href="#DejaVuSans-20" transform="translate(531.25 0)"/>
     <use xlink:href="#DejaVuSans-31" transform="translate(563.037109 0)"/>
     <use xlink:href="#DejaVuSans-33" transform="translate(626.660156 0)"/>
    </g>
    <!-- value = [0, 5, 8] -->
    <g transform="translate(630.073661 471.924949) scale(0.176172 -0.176172)">
     <defs>
      <path id="DejaVuSans-38" d="M 2034 2216 
Q 1584 2216 1326 1975 
Q 1069 1734 1069 1313 
Q 1069 891 1326 650 
Q 1584 409 2034 409 
Q 2484 409 2743 651 
Q 3003 894 3003 1313 
Q 3003 1734 2745 1975 
Q 2488 2216 2034 2216 
z
M 1403 2484 
Q 997 2584 770 2862 
Q 544 3141 544 3541 
Q 544 4100 942 4425 
Q 1341 4750 2034 4750 
Q 2731 4750 3128 4425 
Q 3525 4100 3525 3541 
Q 3525 3141 3298 2862 
Q 3072 2584 2669 2484 
Q 3125 2378 3379 2068 
Q 3634 1759 3634 1313 
Q 3634 634 3220 271 
Q 2806 -91 2034 -91 
Q 1263 -91 848 271 
Q 434 634 434 1313 
Q 434 1759 690 2068 
Q 947 2378 1403 2484 
z
M 1172 3481 
Q 1172 3119 1398 2916 
Q 1625 2713 2034 2713 
Q 2441 2713 2670 2916 
Q 2900 3119 2900 3481 
Q 2900 3844 2670 4047 
Q 2441 4250 2034 4250 
Q 1625 4250 1398 4047 
Q 1172 3844 1172 3481 
z
" transform="scale(0.015625)"/>
     </defs>
     <use xlink:href="#DejaVuSans-76"/>
     <use xlink:href="#DejaVuSans-61" transform="translate(59.179688 0)"/>
     <use xlink:href="#DejaVuSans-6c" transform="translate(120.458984 0)"/>
     <use xlink:href="#DejaVuSans-75" transform="translate(148.242188 0)"/>
     <use xlink:href="#DejaVuSans-65" transform="translate(211.621094 0)"/>
     <use xlink:href="#DejaVuSans-20" transform="translate(273.144531 0)"/>
     <use xlink:href="#DejaVuSans-3d" transform="translate(304.931641 0)"/>
     <use xlink:href="#DejaVuSans-20" transform="translate(388.720703 0)"/>
     <use xlink:href="#DejaVuSans-5b" transform="translate(420.507812 0)"/>
     <use xlink:href="#DejaVuSans-30" transform="translate(459.521484 0)"/>
     <use xlink:href="#DejaVuSans-2c" transform="translate(523.144531 0)"/>
     <use xlink:href="#DejaVuSans-20" transform="translate(554.931641 0)"/>
     <use xlink:href="#DejaVuSans-35" transform="translate(586.71875 0)"/>
     <use xlink:href="#DejaVuSans-2c" transform="translate(650.341797 0)"/>
     <use xlink:href="#DejaVuSans-20" transform="translate(682.128906 0)"/>
     <use xlink:href="#DejaVuSans-38" transform="translate(713.916016 0)"/>
     <use xlink:href="#DejaVuSans-5d" transform="translate(777.539062 0)"/>
    </g>
    <!-- class = virginica -->
    <g transform="translate(629.715812 491.652357) scale(0.176172 -0.176172)">
     <use xlink:href="#DejaVuSans-63"/>
     <use xlink:href="#DejaVuSans-6c" transform="translate(54.980469 0)"/>
     <use xlink:href="#DejaVuSans-61" transform="translate(82.763672 0)"/>
     <use xlink:href="#DejaVuSans-73" transform="translate(144.042969 0)"/>
     <use xlink:href="#DejaVuSans-73" transform="translate(196.142578 0)"/>
     <use xlink:href="#DejaVuSans-20" transform="translate(248.242188 0)"/>
     <use xlink:href="#DejaVuSans-3d" transform="translate(280.029297 0)"/>
     <use xlink:href="#DejaVuSans-20" transform="translate(363.818359 0)"/>
     <use xlink:href="#DejaVuSans-76" transform="translate(395.605469 0)"/>
     <use xlink:href="#DejaVuSans-69" transform="translate(454.785156 0)"/>
     <use xlink:href="#DejaVuSans-72" transform="translate(482.568359 0)"/>
     <use xlink:href="#DejaVuSans-67" transform="translate(521.931641 0)"/>
     <use xlink:href="#DejaVuSans-69" transform="translate(585.408203 0)"/>
     <use xlink:href="#DejaVuSans-6e" transform="translate(613.191406 0)"/>
     <use xlink:href="#DejaVuSans-69" transform="translate(676.570312 0)"/>
     <use xlink:href="#DejaVuSans-63" transform="translate(704.353516 0)"/>
     <use xlink:href="#DejaVuSans-61" transform="translate(759.333984 0)"/>
    </g>
   </g>
   <g id="patch_8">
    <path d="M 878.799709 411.099066 
Q 847.306331 379.808871 815.019829 347.730669 
" style="fill: none; stroke: #000000; stroke-linecap: round"/>
    <path d="M 876.284085 403.632824 
L 878.799709 411.099066 
L 871.317341 408.631819 
" style="fill: none; stroke: #000000; stroke-linecap: round"/>
   </g>
   <g id="text_4">
    <g id="patch_9">
     <path d="M 847.66919 500.601343 
L 1002.73081 500.601343 
Q 1008.015969 500.601343 1008.015969 495.316184 
L 1008.015969 419.083816 
Q 1008.015969 413.798657 1002.73081 413.798657 
L 847.66919 413.798657 
Q 842.384031 413.798657 842.384031 419.083816 
L 842.384031 495.316184 
Q 842.384031 500.601343 847.66919 500.601343 
z
" style="fill: #843ee6; stroke: #000000; stroke-linejoin: miter"/>
    </g>
    <!-- gini = 0.046 -->
    <g transform="translate(870.933526 432.470134) scale(0.176172 -0.176172)">
     <defs>
      <path id="DejaVuSans-36" d="M 2113 2584 
Q 1688 2584 1439 2293 
Q 1191 2003 1191 1497 
Q 1191 994 1439 701 
Q 1688 409 2113 409 
Q 2538 409 2786 701 
Q 3034 994 3034 1497 
Q 3034 2003 2786 2293 
Q 2538 2584 2113 2584 
z
M 3366 4563 
L 3366 3988 
Q 3128 4100 2886 4159 
Q 2644 4219 2406 4219 
Q 1781 4219 1451 3797 
Q 1122 3375 1075 2522 
Q 1259 2794 1537 2939 
Q 1816 3084 2150 3084 
Q 2853 3084 3261 2657 
Q 3669 2231 3669 1497 
Q 3669 778 3244 343 
Q 2819 -91 2113 -91 
Q 1303 -91 875 529 
Q 447 1150 447 2328 
Q 447 3434 972 4092 
Q 1497 4750 2381 4750 
Q 2619 4750 2861 4703 
Q 3103 4656 3366 4563 
z
" transform="scale(0.015625)"/>
     </defs>
     <use xlink:href="#DejaVuSans-67"/>
     <use xlink:href="#DejaVuSans-69" transform="translate(63.476562 0)"/>
     <use xlink:href="#DejaVuSans-6e" transform="translate(91.259766 0)"/>
     <use xlink:href="#DejaVuSans-69" transform="translate(154.638672 0)"/>
     <use xlink:href="#DejaVuSans-20" transform="translate(182.421875 0)"/>
     <use xlink:href="#DejaVuSans-3d" transform="translate(214.208984 0)"/>
     <use xlink:href="#DejaVuSans-20" transform="translate(297.998047 0)"/>
     <use xlink:href="#DejaVuSans-30" transform="translate(329.785156 0)"/>
     <use xlink:href="#DejaVuSans-2e" transform="translate(393.408203 0)"/>
     <use xlink:href="#DejaVuSans-30" transform="translate(425.195312 0)"/>
     <use xlink:href="#DejaVuSans-34" transform="translate(488.818359 0)"/>
     <use xlink:href="#DejaVuSans-36" transform="translate(552.441406 0)"/>
    </g>
    <!-- samples = 42 -->
    <g transform="translate(864.395894 452.197542) scale(0.176172 -0.176172)">
     <use xlink:href="#DejaVuSans-73"/>
     <use xlink:href="#DejaVuSans-61" transform="translate(52.099609 0)"/>
     <use xlink:href="#DejaVuSans-6d" transform="translate(113.378906 0)"/>
     <use xlink:href="#DejaVuSans-70" transform="translate(210.791016 0)"/>
     <use xlink:href="#DejaVuSans-6c" transform="translate(274.267578 0)"/>
     <use xlink:href="#DejaVuSans-65" transform="translate(302.050781 0)"/>
     <use xlink:href="#DejaVuSans-73" transform="translate(363.574219 0)"/>
     <use xlink:href="#DejaVuSans-20" transform="translate(415.673828 0)"/>
     <use xlink:href="#DejaVuSans-3d" transform="translate(447.460938 0)"/>
     <use xlink:href="#DejaVuSans-20" transform="translate(531.25 0)"/>
     <use xlink:href="#DejaVuSans-34" transform="translate(563.037109 0)"/>
     <use xlink:href="#DejaVuSans-32" transform="translate(626.660156 0)"/>
    </g>
    <!-- value = [0, 1, 41] -->
    <g transform="translate(847.66919 471.924949) scale(0.176172 -0.176172)">
     <use xlink:href="#DejaVuSans-76"/>
     <use xlink:href="#DejaVuSans-61" transform="translate(59.179688 0)"/>
     <use xlink:href="#DejaVuSans-6c" transform="translate(120.458984 0)"/>
     <use xlink:href="#DejaVuSans-75" transform="translate(148.242188 0)"/>
     <use xlink:href="#DejaVuSans-65" transform="translate(211.621094 0)"/>
     <use xlink:href="#DejaVuSans-20" transform="translate(273.144531 0)"/>
     <use xlink:href="#DejaVuSans-3d" transform="translate(304.931641 0)"/>
     <use xlink:href="#DejaVuSans-20" transform="translate(388.720703 0)"/>
     <use xlink:href="#DejaVuSans-5b" transform="translate(420.507812 0)"/>
     <use xlink:href="#DejaVuSans-30" transform="translate(459.521484 0)"/>
     <use xlink:href="#DejaVuSans-2c" transform="translate(523.144531 0)"/>
     <use xlink:href="#DejaVuSans-20" transform="translate(554.931641 0)"/>
     <use xlink:href="#DejaVuSans-31" transform="translate(586.71875 0)"/>
     <use xlink:href="#DejaVuSans-2c" transform="translate(650.341797 0)"/>
     <use xlink:href="#DejaVuSans-20" transform="translate(682.128906 0)"/>
     <use xlink:href="#DejaVuSans-34" transform="translate(713.916016 0)"/>
     <use xlink:href="#DejaVuSans-31" transform="translate(777.539062 0)"/>
     <use xlink:href="#DejaVuSans-5d" transform="translate(841.162109 0)"/>
    </g>
    <!-- class = virginica -->
    <g transform="translate(852.915812 491.652357) scale(0.176172 -0.176172)">
     <use xlink:href="#DejaVuSans-63"/>
     <use xlink:href="#DejaVuSans-6c" transform="translate(54.980469 0)"/>
     <use xlink:href="#DejaVuSans-61" transform="translate(82.763672 0)"/>
     <use xlink:href="#DejaVuSans-73" transform="translate(144.042969 0)"/>
     <use xlink:href="#DejaVuSans-73" transform="translate(196.142578 0)"/>
     <use xlink:href="#DejaVuSans-20" transform="translate(248.242188 0)"/>
     <use xlink:href="#DejaVuSans-3d" transform="translate(280.029297 0)"/>
     <use xlink:href="#DejaVuSans-20" transform="translate(363.818359 0)"/>
     <use xlink:href="#DejaVuSans-76" transform="translate(395.605469 0)"/>
     <use xlink:href="#DejaVuSans-69" transform="translate(454.785156 0)"/>
     <use xlink:href="#DejaVuSans-72" transform="translate(482.568359 0)"/>
     <use xlink:href="#DejaVuSans-67" transform="translate(521.931641 0)"/>
     <use xlink:href="#DejaVuSans-69" transform="translate(585.408203 0)"/>
     <use xlink:href="#DejaVuSans-6e" transform="translate(613.191406 0)"/>
     <use xlink:href="#DejaVuSans-69" transform="translate(676.570312 0)"/>
     <use xlink:href="#DejaVuSans-63" transform="translate(704.353516 0)"/>
     <use xlink:href="#DejaVuSans-61" transform="translate(759.333984 0)"/>
    </g>
   </g>
   <g id="patch_10">
    <path d="M 471.4769 294.517927 
Q 529.542984 265.672195 588.610357 236.329049 
" style="fill: none; stroke: #000000; stroke-linecap: round"/>
    <path d="M 479.355524 294.538285 
L 471.4769 294.517927 
L 476.220361 288.227243 
" style="fill: none; stroke: #000000; stroke-linecap: round"/>
   </g>
   <g id="text_5">
    <g id="patch_11">
     <path d="M 271.297756 399.830036 
L 463.102244 399.830036 
Q 468.387403 399.830036 468.387403 394.544877 
L 468.387403 297.605145 
Q 468.387403 292.319986 463.102244 292.319986 
L 271.297756 292.319986 
Q 266.012597 292.319986 266.012597 297.605145 
L 266.012597 394.544877 
Q 266.012597 399.830036 271.297756 399.830036 
z
" style="fill: #3de684; stroke: #000000; stroke-linejoin: miter"/>
    </g>
    <!-- sepal_length &lt;= 4.95 -->
    <g transform="translate(271.297756 311.481441) scale(0.176172 -0.176172)">
     <defs>
      <path id="DejaVuSans-5f" d="M 3263 -1063 
L 3263 -1509 
L -63 -1509 
L -63 -1063 
L 3263 -1063 
z
" transform="scale(0.015625)"/>
      <path id="DejaVuSans-74" d="M 1172 4494 
L 1172 3500 
L 2356 3500 
L 2356 3053 
L 1172 3053 
L 1172 1153 
Q 1172 725 1289 603 
Q 1406 481 1766 481 
L 2356 481 
L 2356 0 
L 1766 0 
Q 1100 0 847 248 
Q 594 497 594 1153 
L 594 3053 
L 172 3053 
L 172 3500 
L 594 3500 
L 594 4494 
L 1172 4494 
z
" transform="scale(0.015625)"/>
      <path id="DejaVuSans-68" d="M 3513 2113 
L 3513 0 
L 2938 0 
L 2938 2094 
Q 2938 2591 2744 2837 
Q 2550 3084 2163 3084 
Q 1697 3084 1428 2787 
Q 1159 2491 1159 1978 
L 1159 0 
L 581 0 
L 581 4863 
L 1159 4863 
L 1159 2956 
Q 1366 3272 1645 3428 
Q 1925 3584 2291 3584 
Q 2894 3584 3203 3211 
Q 3513 2838 3513 2113 
z
" transform="scale(0.015625)"/>
      <path id="DejaVuSans-3c" d="M 4684 3150 
L 1459 2003 
L 4684 863 
L 4684 294 
L 678 1747 
L 678 2266 
L 4684 3719 
L 4684 3150 
z
" transform="scale(0.015625)"/>
      <path id="DejaVuSans-39" d="M 703 97 
L 703 672 
Q 941 559 1184 500 
Q 1428 441 1663 441 
Q 2288 441 2617 861 
Q 2947 1281 2994 2138 
Q 2813 1869 2534 1725 
Q 2256 1581 1919 1581 
Q 1219 1581 811 2004 
Q 403 2428 403 3163 
Q 403 3881 828 4315 
Q 1253 4750 1959 4750 
Q 2769 4750 3195 4129 
Q 3622 3509 3622 2328 
Q 3622 1225 3098 567 
Q 2575 -91 1691 -91 
Q 1453 -91 1209 -44 
Q 966 3 703 97 
z
M 1959 2075 
Q 2384 2075 2632 2365 
Q 2881 2656 2881 3163 
Q 2881 3666 2632 3958 
Q 2384 4250 1959 4250 
Q 1534 4250 1286 3958 
Q 1038 3666 1038 3163 
Q 1038 2656 1286 2365 
Q 1534 2075 1959 2075 
z
" transform="scale(0.015625)"/>
     </defs>
     <use xlink:href="#DejaVuSans-73"/>
     <use xlink:href="#DejaVuSans-65" transform="translate(52.099609 0)"/>
     <use xlink:href="#DejaVuSans-70" transform="translate(113.623047 0)"/>
     <use xlink:href="#DejaVuSans-61" transform="translate(177.099609 0)"/>
     <use xlink:href="#DejaVuSans-6c" transform="translate(238.378906 0)"/>
     <use xlink:href="#DejaVuSans-5f" transform="translate(266.162109 0)"/>
     <use xlink:href="#DejaVuSans-6c" transform="translate(316.162109 0)"/>
     <use xlink:href="#DejaVuSans-65" transform="translate(343.945312 0)"/>
     <use xlink:href="#DejaVuSans-6e" transform="translate(405.46875 0)"/>
     <use xlink:href="#DejaVuSans-67" transform="translate(468.847656 0)"/>
     <use xlink:href="#DejaVuSans-74" transform="translate(532.324219 0)"/>
     <use xlink:href="#DejaVuSans-68" transform="translate(571.533203 0)"/>
     <use xlink:href="#DejaVuSans-20" transform="translate(634.912109 0)"/>
     <use xlink:href="#DejaVuSans-3c" transform="translate(666.699219 0)"/>
     <use xlink:href="#DejaVuSans-3d" transform="translate(750.488281 0)"/>
     <use xlink:href="#DejaVuSans-20" transform="translate(834.277344 0)"/>
     <use xlink:href="#DejaVuSans-34" transform="translate(866.064453 0)"/>
     <use xlink:href="#DejaVuSans-2e" transform="translate(929.6875 0)"/>
     <use xlink:href="#DejaVuSans-39" transform="translate(961.474609 0)"/>
     <use xlink:href="#DejaVuSans-35" transform="translate(1025.097656 0)"/>
    </g>
    <!-- gini = 0.043 -->
    <g transform="translate(312.933526 331.698827) scale(0.176172 -0.176172)">
     <use xlink:href="#DejaVuSans-67"/>
     <use xlink:href="#DejaVuSans-69" transform="translate(63.476562 0)"/>
     <use xlink:href="#DejaVuSans-6e" transform="translate(91.259766 0)"/>
     <use xlink:href="#DejaVuSans-69" transform="translate(154.638672 0)"/>
     <use xlink:href="#DejaVuSans-20" transform="translate(182.421875 0)"/>
     <use xlink:href="#DejaVuSans-3d" transform="translate(214.208984 0)"/>
     <use xlink:href="#DejaVuSans-20" transform="translate(297.998047 0)"/>
     <use xlink:href="#DejaVuSans-30" transform="translate(329.785156 0)"/>
     <use xlink:href="#DejaVuSans-2e" transform="translate(393.408203 0)"/>
     <use xlink:href="#DejaVuSans-30" transform="translate(425.195312 0)"/>
     <use xlink:href="#DejaVuSans-34" transform="translate(488.818359 0)"/>
     <use xlink:href="#DejaVuSans-33" transform="translate(552.441406 0)"/>
    </g>
    <!-- samples = 45 -->
    <g transform="translate(306.395894 351.426235) scale(0.176172 -0.176172)">
     <use xlink:href="#DejaVuSans-73"/>
     <use xlink:href="#DejaVuSans-61" transform="translate(52.099609 0)"/>
     <use xlink:href="#DejaVuSans-6d" transform="translate(113.378906 0)"/>
     <use xlink:href="#DejaVuSans-70" transform="translate(210.791016 0)"/>
     <use xlink:href="#DejaVuSans-6c" transform="translate(274.267578 0)"/>
     <use xlink:href="#DejaVuSans-65" transform="translate(302.050781 0)"/>
     <use xlink:href="#DejaVuSans-73" transform="translate(363.574219 0)"/>
     <use xlink:href="#DejaVuSans-20" transform="translate(415.673828 0)"/>
     <use xlink:href="#DejaVuSans-3d" transform="translate(447.460938 0)"/>
     <use xlink:href="#DejaVuSans-20" transform="translate(531.25 0)"/>
     <use xlink:href="#DejaVuSans-34" transform="translate(563.037109 0)"/>
     <use xlink:href="#DejaVuSans-35" transform="translate(626.660156 0)"/>
    </g>
    <!-- value = [0, 44, 1] -->
    <g transform="translate(289.66919 371.153642) scale(0.176172 -0.176172)">
     <use xlink:href="#DejaVuSans-76"/>
     <use xlink:href="#DejaVuSans-61" transform="translate(59.179688 0)"/>
     <use xlink:href="#DejaVuSans-6c" transform="translate(120.458984 0)"/>
     <use xlink:href="#DejaVuSans-75" transform="translate(148.242188 0)"/>
     <use xlink:href="#DejaVuSans-65" transform="translate(211.621094 0)"/>
     <use xlink:href="#DejaVuSans-20" transform="translate(273.144531 0)"/>
     <use xlink:href="#DejaVuSans-3d" transform="translate(304.931641 0)"/>
     <use xlink:href="#DejaVuSans-20" transform="translate(388.720703 0)"/>
     <use xlink:href="#DejaVuSans-5b" transform="translate(420.507812 0)"/>
     <use xlink:href="#DejaVuSans-30" transform="translate(459.521484 0)"/>
     <use xlink:href="#DejaVuSans-2c" transform="translate(523.144531 0)"/>
     <use xlink:href="#DejaVuSans-20" transform="translate(554.931641 0)"/>
     <use xlink:href="#DejaVuSans-34" transform="translate(586.71875 0)"/>
     <use xlink:href="#DejaVuSans-34" transform="translate(650.341797 0)"/>
     <use xlink:href="#DejaVuSans-2c" transform="translate(713.964844 0)"/>
     <use xlink:href="#DejaVuSans-20" transform="translate(745.751953 0)"/>
     <use xlink:href="#DejaVuSans-31" transform="translate(777.539062 0)"/>
     <use xlink:href="#DejaVuSans-5d" transform="translate(841.162109 0)"/>
    </g>
    <!-- class = versicolor -->
    <g transform="translate(289.3719 390.88105) scale(0.176172 -0.176172)">
     <use xlink:href="#DejaVuSans-63"/>
     <use xlink:href="#DejaVuSans-6c" transform="translate(54.980469 0)"/>
     <use xlink:href="#DejaVuSans-61" transform="translate(82.763672 0)"/>
     <use xlink:href="#DejaVuSans-73" transform="translate(144.042969 0)"/>
     <use xlink:href="#DejaVuSans-73" transform="translate(196.142578 0)"/>
     <use xlink:href="#DejaVuSans-20" transform="translate(248.242188 0)"/>
     <use xlink:href="#DejaVuSans-3d" transform="translate(280.029297 0)"/>
     <use xlink:href="#DejaVuSans-20" transform="translate(363.818359 0)"/>
     <use xlink:href="#DejaVuSans-76" transform="translate(395.605469 0)"/>
     <use xlink:href="#DejaVuSans-65" transform="translate(454.785156 0)"/>
     <use xlink:href="#DejaVuSans-72" transform="translate(516.308594 0)"/>
     <use xlink:href="#DejaVuSans-73" transform="translate(557.421875 0)"/>
     <use xlink:href="#DejaVuSans-69" transform="translate(609.521484 0)"/>
     <use xlink:href="#DejaVuSans-63" transform="translate(637.304688 0)"/>
     <use xlink:href="#DejaVuSans-6f" transform="translate(692.285156 0)"/>
     <use xlink:href="#DejaVuSans-6c" transform="translate(753.466797 0)"/>
     <use xlink:href="#DejaVuSans-6f" transform="translate(781.25 0)"/>
     <use xlink:href="#DejaVuSans-72" transform="translate(842.431641 0)"/>
    </g>
   </g>
   <g id="patch_12">
    <path d="M 710.331327 295.018788 
Q 651.761271 265.922696 592.189927 236.329189 
" style="fill: none; stroke: #000000; stroke-linecap: round"/>
    <path d="M 705.587866 288.728104 
L 710.331327 295.018788 
L 702.452703 295.039146 
" style="fill: none; stroke: #000000; stroke-linecap: round"/>
   </g>
   <g id="text_6">
    <g id="patch_13">
     <path d="M 718.83324 399.830036 
L 908.36676 399.830036 
Q 913.65192 399.830036 913.65192 394.544877 
L 913.65192 297.605145 
Q 913.65192 292.319986 908.36676 292.319986 
L 718.83324 292.319986 
Q 713.54808 292.319986 713.54808 297.605145 
L 713.54808 394.544877 
Q 713.54808 399.830036 718.83324 399.830036 
z
" style="fill: #9051e8; stroke: #000000; stroke-linejoin: miter"/>
    </g>
    <!-- petal_length &lt;= 5.05 -->
    <g transform="translate(718.83324 311.481441) scale(0.176172 -0.176172)">
     <use xlink:href="#DejaVuSans-70"/>
     <use xlink:href="#DejaVuSans-65" transform="translate(63.476562 0)"/>
     <use xlink:href="#DejaVuSans-74" transform="translate(125 0)"/>
     <use xlink:href="#DejaVuSans-61" transform="translate(164.208984 0)"/>
     <use xlink:href="#DejaVuSans-6c" transform="translate(225.488281 0)"/>
     <use xlink:href="#DejaVuSans-5f" transform="translate(253.271484 0)"/>
     <use xlink:href="#DejaVuSans-6c" transform="translate(303.271484 0)"/>
     <use xlink:href="#DejaVuSans-65" transform="translate(331.054688 0)"/>
     <use xlink:href="#DejaVuSans-6e" transform="translate(392.578125 0)"/>
     <use xlink:href="#DejaVuSans-67" transform="translate(455.957031 0)"/>
     <use xlink:href="#DejaVuSans-74" transform="translate(519.433594 0)"/>
     <use xlink:href="#DejaVuSans-68" transform="translate(558.642578 0)"/>
     <use xlink:href="#DejaVuSans-20" transform="translate(622.021484 0)"/>
     <use xlink:href="#DejaVuSans-3c" transform="translate(653.808594 0)"/>
     <use xlink:href="#DejaVuSans-3d" transform="translate(737.597656 0)"/>
     <use xlink:href="#DejaVuSans-20" transform="translate(821.386719 0)"/>
     <use xlink:href="#DejaVuSans-35" transform="translate(853.173828 0)"/>
     <use xlink:href="#DejaVuSans-2e" transform="translate(916.796875 0)"/>
     <use xlink:href="#DejaVuSans-30" transform="translate(948.583984 0)"/>
     <use xlink:href="#DejaVuSans-35" transform="translate(1012.207031 0)"/>
    </g>
    <!-- gini = 0.194 -->
    <g transform="translate(759.333526 331.698827) scale(0.176172 -0.176172)">
     <use xlink:href="#DejaVuSans-67"/>
     <use xlink:href="#DejaVuSans-69" transform="translate(63.476562 0)"/>
     <use xlink:href="#DejaVuSans-6e" transform="translate(91.259766 0)"/>
     <use xlink:href="#DejaVuSans-69" transform="translate(154.638672 0)"/>
     <use xlink:href="#DejaVuSans-20" transform="translate(182.421875 0)"/>
     <use xlink:href="#DejaVuSans-3d" transform="translate(214.208984 0)"/>
     <use xlink:href="#DejaVuSans-20" transform="translate(297.998047 0)"/>
     <use xlink:href="#DejaVuSans-30" transform="translate(329.785156 0)"/>
     <use xlink:href="#DejaVuSans-2e" transform="translate(393.408203 0)"/>
     <use xlink:href="#DejaVuSans-31" transform="translate(425.195312 0)"/>
     <use xlink:href="#DejaVuSans-39" transform="translate(488.818359 0)"/>
     <use xlink:href="#DejaVuSans-34" transform="translate(552.441406 0)"/>
    </g>
    <!-- samples = 55 -->
    <g transform="translate(752.795894 351.426235) scale(0.176172 -0.176172)">
     <use xlink:href="#DejaVuSans-73"/>
     <use xlink:href="#DejaVuSans-61" transform="translate(52.099609 0)"/>
     <use xlink:href="#DejaVuSans-6d" transform="translate(113.378906 0)"/>
     <use xlink:href="#DejaVuSans-70" transform="translate(210.791016 0)"/>
     <use xlink:href="#DejaVuSans-6c" transform="translate(274.267578 0)"/>
     <use xlink:href="#DejaVuSans-65" transform="translate(302.050781 0)"/>
     <use xlink:href="#DejaVuSans-73" transform="translate(363.574219 0)"/>
     <use xlink:href="#DejaVuSans-20" transform="translate(415.673828 0)"/>
     <use xlink:href="#DejaVuSans-3d" transform="translate(447.460938 0)"/>
     <use xlink:href="#DejaVuSans-20" transform="translate(531.25 0)"/>
     <use xlink:href="#DejaVuSans-35" transform="translate(563.037109 0)"/>
     <use xlink:href="#DejaVuSans-35" transform="translate(626.660156 0)"/>
    </g>
    <!-- value = [0, 6, 49] -->
    <g transform="translate(736.06919 371.153642) scale(0.176172 -0.176172)">
     <use xlink:href="#DejaVuSans-76"/>
     <use xlink:href="#DejaVuSans-61" transform="translate(59.179688 0)"/>
     <use xlink:href="#DejaVuSans-6c" transform="translate(120.458984 0)"/>
     <use xlink:href="#DejaVuSans-75" transform="translate(148.242188 0)"/>
     <use xlink:href="#DejaVuSans-65" transform="translate(211.621094 0)"/>
     <use xlink:href="#DejaVuSans-20" transform="translate(273.144531 0)"/>
     <use xlink:href="#DejaVuSans-3d" transform="translate(304.931641 0)"/>
     <use xlink:href="#DejaVuSans-20" transform="translate(388.720703 0)"/>
     <use xlink:href="#DejaVuSans-5b" transform="translate(420.507812 0)"/>
     <use xlink:href="#DejaVuSans-30" transform="translate(459.521484 0)"/>
     <use xlink:href="#DejaVuSans-2c" transform="translate(523.144531 0)"/>
     <use xlink:href="#DejaVuSans-20" transform="translate(554.931641 0)"/>
     <use xlink:href="#DejaVuSans-36" transform="translate(586.71875 0)"/>
     <use xlink:href="#DejaVuSans-2c" transform="translate(650.341797 0)"/>
     <use xlink:href="#DejaVuSans-20" transform="translate(682.128906 0)"/>
     <use xlink:href="#DejaVuSans-34" transform="translate(713.916016 0)"/>
     <use xlink:href="#DejaVuSans-39" transform="translate(777.539062 0)"/>
     <use xlink:href="#DejaVuSans-5d" transform="translate(841.162109 0)"/>
    </g>
    <!-- class = virginica -->
    <g transform="translate(741.315812 390.88105) scale(0.176172 -0.176172)">
     <use xlink:href="#DejaVuSans-63"/>
     <use xlink:href="#DejaVuSans-6c" transform="translate(54.980469 0)"/>
     <use xlink:href="#DejaVuSans-61" transform="translate(82.763672 0)"/>
     <use xlink:href="#DejaVuSans-73" transform="translate(144.042969 0)"/>
     <use xlink:href="#DejaVuSans-73" transform="translate(196.142578 0)"/>
     <use xlink:href="#DejaVuSans-20" transform="translate(248.242188 0)"/>
     <use xlink:href="#DejaVuSans-3d" transform="translate(280.029297 0)"/>
     <use xlink:href="#DejaVuSans-20" transform="translate(363.818359 0)"/>
     <use xlink:href="#DejaVuSans-76" transform="translate(395.605469 0)"/>
     <use xlink:href="#DejaVuSans-69" transform="translate(454.785156 0)"/>
     <use xlink:href="#DejaVuSans-72" transform="translate(482.568359 0)"/>
     <use xlink:href="#DejaVuSans-67" transform="translate(521.931641 0)"/>
     <use xlink:href="#DejaVuSans-69" transform="translate(585.408203 0)"/>
     <use xlink:href="#DejaVuSans-6e" transform="translate(613.191406 0)"/>
     <use xlink:href="#DejaVuSans-69" transform="translate(676.570312 0)"/>
     <use xlink:href="#DejaVuSans-63" transform="translate(704.353516 0)"/>
     <use xlink:href="#DejaVuSans-61" transform="translate(759.333984 0)"/>
    </g>
   </g>
   <g id="patch_14">
    <path d="M 413.600291 189.339066 
Q 445.093669 158.048871 477.380171 125.970669 
" style="fill: none; stroke: #000000; stroke-linecap: round"/>
    <path d="M 421.082659 186.871819 
L 413.600291 189.339066 
L 416.115915 181.872824 
" style="fill: none; stroke: #000000; stroke-linecap: round"/>
   </g>
   <g id="text_7">
    <g id="patch_15">
     <path d="M 289.66919 278.841343 
L 444.73081 278.841343 
Q 450.015969 278.841343 450.015969 273.556184 
L 450.015969 197.323816 
Q 450.015969 192.038657 444.73081 192.038657 
L 289.66919 192.038657 
Q 284.384031 192.038657 284.384031 197.323816 
L 284.384031 273.556184 
Q 284.384031 278.841343 289.66919 278.841343 
z
" style="fill: #e58139; stroke: #000000; stroke-linejoin: miter"/>
    </g>
    <!-- gini = 0.0 -->
    <g transform="translate(324.142468 210.710134) scale(0.176172 -0.176172)">
     <use xlink:href="#DejaVuSans-67"/>
     <use xlink:href="#DejaVuSans-69" transform="translate(63.476562 0)"/>
     <use xlink:href="#DejaVuSans-6e" transform="translate(91.259766 0)"/>
     <use xlink:href="#DejaVuSans-69" transform="translate(154.638672 0)"/>
     <use xlink:href="#DejaVuSans-20" transform="translate(182.421875 0)"/>
     <use xlink:href="#DejaVuSans-3d" transform="translate(214.208984 0)"/>
     <use xlink:href="#DejaVuSans-20" transform="translate(297.998047 0)"/>
     <use xlink:href="#DejaVuSans-30" transform="translate(329.785156 0)"/>
     <use xlink:href="#DejaVuSans-2e" transform="translate(393.408203 0)"/>
     <use xlink:href="#DejaVuSans-30" transform="translate(425.195312 0)"/>
    </g>
    <!-- samples = 50 -->
    <g transform="translate(306.395894 230.437542) scale(0.176172 -0.176172)">
     <use xlink:href="#DejaVuSans-73"/>
     <use xlink:href="#DejaVuSans-61" transform="translate(52.099609 0)"/>
     <use xlink:href="#DejaVuSans-6d" transform="translate(113.378906 0)"/>
     <use xlink:href="#DejaVuSans-70" transform="translate(210.791016 0)"/>
     <use xlink:href="#DejaVuSans-6c" transform="translate(274.267578 0)"/>
     <use xlink:href="#DejaVuSans-65" transform="translate(302.050781 0)"/>
     <use xlink:href="#DejaVuSans-73" transform="translate(363.574219 0)"/>
     <use xlink:href="#DejaVuSans-20" transform="translate(415.673828 0)"/>
     <use xlink:href="#DejaVuSans-3d" transform="translate(447.460938 0)"/>
     <use xlink:href="#DejaVuSans-20" transform="translate(531.25 0)"/>
     <use xlink:href="#DejaVuSans-35" transform="translate(563.037109 0)"/>
     <use xlink:href="#DejaVuSans-30" transform="translate(626.660156 0)"/>
    </g>
    <!-- value = [50, 0, 0] -->
    <g transform="translate(289.66919 250.164949) scale(0.176172 -0.176172)">
     <use xlink:href="#DejaVuSans-76"/>
     <use xlink:href="#DejaVuSans-61" transform="translate(59.179688 0)"/>
     <use xlink:href="#DejaVuSans-6c" transform="translate(120.458984 0)"/>
     <use xlink:href="#DejaVuSans-75" transform="translate(148.242188 0)"/>
     <use xlink:href="#DejaVuSans-65" transform="translate(211.621094 0)"/>
     <use xlink:href="#DejaVuSans-20" transform="translate(273.144531 0)"/>
     <use xlink:href="#DejaVuSans-3d" transform="translate(304.931641 0)"/>
     <use xlink:href="#DejaVuSans-20" transform="translate(388.720703 0)"/>
     <use xlink:href="#DejaVuSans-5b" transform="translate(420.507812 0)"/>
     <use xlink:href="#DejaVuSans-35" transform="translate(459.521484 0)"/>
     <use xlink:href="#DejaVuSans-30" transform="translate(523.144531 0)"/>
     <use xlink:href="#DejaVuSans-2c" transform="translate(586.767578 0)"/>
     <use xlink:href="#DejaVuSans-20" transform="translate(618.554688 0)"/>
     <use xlink:href="#DejaVuSans-30" transform="translate(650.341797 0)"/>
     <use xlink:href="#DejaVuSans-2c" transform="translate(713.964844 0)"/>
     <use xlink:href="#DejaVuSans-20" transform="translate(745.751953 0)"/>
     <use xlink:href="#DejaVuSans-30" transform="translate(777.539062 0)"/>
     <use xlink:href="#DejaVuSans-5d" transform="translate(841.162109 0)"/>
    </g>
    <!-- class = setosa -->
    <g transform="translate(303.515207 269.892357) scale(0.176172 -0.176172)">
     <use xlink:href="#DejaVuSans-63"/>
     <use xlink:href="#DejaVuSans-6c" transform="translate(54.980469 0)"/>
     <use xlink:href="#DejaVuSans-61" transform="translate(82.763672 0)"/>
     <use xlink:href="#DejaVuSans-73" transform="translate(144.042969 0)"/>
     <use xlink:href="#DejaVuSans-73" transform="translate(196.142578 0)"/>
     <use xlink:href="#DejaVuSans-20" transform="translate(248.242188 0)"/>
     <use xlink:href="#DejaVuSans-3d" transform="translate(280.029297 0)"/>
     <use xlink:href="#DejaVuSans-20" transform="translate(363.818359 0)"/>
     <use xlink:href="#DejaVuSans-73" transform="translate(395.605469 0)"/>
     <use xlink:href="#DejaVuSans-65" transform="translate(447.705078 0)"/>
     <use xlink:href="#DejaVuSans-74" transform="translate(509.228516 0)"/>
     <use xlink:href="#DejaVuSans-6f" transform="translate(548.4375 0)"/>
     <use xlink:href="#DejaVuSans-73" transform="translate(609.619141 0)"/>
     <use xlink:href="#DejaVuSans-61" transform="translate(661.71875 0)"/>
    </g>
   </g>
   <g id="text_8">
    <!-- True   -->
    <g transform="translate(374.39305 180) scale(0.176172 -0.176172)">
     <defs>
      <path id="DejaVuSans-54" d="M -19 4666 
L 3928 4666 
L 3928 4134 
L 2272 4134 
L 2272 0 
L 1638 0 
L 1638 4134 
L -19 4134 
L -19 4666 
z
" transform="scale(0.015625)"/>
     </defs>
     <use xlink:href="#DejaVuSans-54"/>
     <use xlink:href="#DejaVuSans-72" transform="translate(46.333984 0)"/>
     <use xlink:href="#DejaVuSans-75" transform="translate(87.447266 0)"/>
     <use xlink:href="#DejaVuSans-65" transform="translate(150.826172 0)"/>
     <use xlink:href="#DejaVuSans-20" transform="translate(212.349609 0)"/>
     <use xlink:href="#DejaVuSans-20" transform="translate(244.136719 0)"/>
    </g>
   </g>
   <g id="patch_16">
    <path d="M 533.333765 178.741935 
Q 507.174279 152.751219 480.221669 125.972497 
" style="fill: none; stroke: #000000; stroke-linecap: round"/>
    <path d="M 530.818142 171.275693 
L 533.333765 178.741935 
L 525.851398 176.274688 
" style="fill: none; stroke: #000000; stroke-linecap: round"/>
   </g>
   <g id="text_9">
    <g id="patch_17">
     <path d="M 495.63324 288.950036 
L 685.16676 288.950036 
Q 690.45192 288.950036 690.45192 283.664877 
L 690.45192 186.725145 
Q 690.45192 181.439986 685.16676 181.439986 
L 495.63324 181.439986 
Q 490.34808 181.439986 490.34808 186.725145 
L 490.34808 283.664877 
Q 490.34808 288.950036 495.63324 288.950036 
z
" style="fill: #ffffff; stroke: #000000; stroke-linejoin: miter"/>
    </g>
    <!-- petal_length &lt;= 4.75 -->
    <g transform="translate(495.63324 200.601441) scale(0.176172 -0.176172)">
     <use xlink:href="#DejaVuSans-70"/>
     <use xlink:href="#DejaVuSans-65" transform="translate(63.476562 0)"/>
     <use xlink:href="#DejaVuSans-74" transform="translate(125 0)"/>
     <use xlink:href="#DejaVuSans-61" transform="translate(164.208984 0)"/>
     <use xlink:href="#DejaVuSans-6c" transform="translate(225.488281 0)"/>
     <use xlink:href="#DejaVuSans-5f" transform="translate(253.271484 0)"/>
     <use xlink:href="#DejaVuSans-6c" transform="translate(303.271484 0)"/>
     <use xlink:href="#DejaVuSans-65" transform="translate(331.054688 0)"/>
     <use xlink:href="#DejaVuSans-6e" transform="translate(392.578125 0)"/>
     <use xlink:href="#DejaVuSans-67" transform="translate(455.957031 0)"/>
     <use xlink:href="#DejaVuSans-74" transform="translate(519.433594 0)"/>
     <use xlink:href="#DejaVuSans-68" transform="translate(558.642578 0)"/>
     <use xlink:href="#DejaVuSans-20" transform="translate(622.021484 0)"/>
     <use xlink:href="#DejaVuSans-3c" transform="translate(653.808594 0)"/>
     <use xlink:href="#DejaVuSans-3d" transform="translate(737.597656 0)"/>
     <use xlink:href="#DejaVuSans-20" transform="translate(821.386719 0)"/>
     <use xlink:href="#DejaVuSans-34" transform="translate(853.173828 0)"/>
     <use xlink:href="#DejaVuSans-2e" transform="translate(916.796875 0)"/>
     <use xlink:href="#DejaVuSans-37" transform="translate(948.583984 0)"/>
     <use xlink:href="#DejaVuSans-35" transform="translate(1012.207031 0)"/>
    </g>
    <!-- gini = 0.5 -->
    <g transform="translate(547.342468 220.818827) scale(0.176172 -0.176172)">
     <use xlink:href="#DejaVuSans-67"/>
     <use xlink:href="#DejaVuSans-69" transform="translate(63.476562 0)"/>
     <use xlink:href="#DejaVuSans-6e" transform="translate(91.259766 0)"/>
     <use xlink:href="#DejaVuSans-69" transform="translate(154.638672 0)"/>
     <use xlink:href="#DejaVuSans-20" transform="translate(182.421875 0)"/>
     <use xlink:href="#DejaVuSans-3d" transform="translate(214.208984 0)"/>
     <use xlink:href="#DejaVuSans-20" transform="translate(297.998047 0)"/>
     <use xlink:href="#DejaVuSans-30" transform="translate(329.785156 0)"/>
     <use xlink:href="#DejaVuSans-2e" transform="translate(393.408203 0)"/>
     <use xlink:href="#DejaVuSans-35" transform="translate(425.195312 0)"/>
    </g>
    <!-- samples = 100 -->
    <g transform="translate(523.991423 240.546235) scale(0.176172 -0.176172)">
     <use xlink:href="#DejaVuSans-73"/>
     <use xlink:href="#DejaVuSans-61" transform="translate(52.099609 0)"/>
     <use xlink:href="#DejaVuSans-6d" transform="translate(113.378906 0)"/>
     <use xlink:href="#DejaVuSans-70" transform="translate(210.791016 0)"/>
     <use xlink:href="#DejaVuSans-6c" transform="translate(274.267578 0)"/>
     <use xlink:href="#DejaVuSans-65" transform="translate(302.050781 0)"/>
     <use xlink:href="#DejaVuSans-73" transform="translate(363.574219 0)"/>
     <use xlink:href="#DejaVuSans-20" transform="translate(415.673828 0)"/>
     <use xlink:href="#DejaVuSans-3d" transform="translate(447.460938 0)"/>
     <use xlink:href="#DejaVuSans-20" transform="translate(531.25 0)"/>
     <use xlink:href="#DejaVuSans-31" transform="translate(563.037109 0)"/>
     <use xlink:href="#DejaVuSans-30" transform="translate(626.660156 0)"/>
     <use xlink:href="#DejaVuSans-30" transform="translate(690.283203 0)"/>
    </g>
    <!-- value = [0, 50, 50] -->
    <g transform="translate(507.264719 260.273642) scale(0.176172 -0.176172)">
     <use xlink:href="#DejaVuSans-76"/>
     <use xlink:href="#DejaVuSans-61" transform="translate(59.179688 0)"/>
     <use xlink:href="#DejaVuSans-6c" transform="translate(120.458984 0)"/>
     <use xlink:href="#DejaVuSans-75" transform="translate(148.242188 0)"/>
     <use xlink:href="#DejaVuSans-65" transform="translate(211.621094 0)"/>
     <use xlink:href="#DejaVuSans-20" transform="translate(273.144531 0)"/>
     <use xlink:href="#DejaVuSans-3d" transform="translate(304.931641 0)"/>
     <use xlink:href="#DejaVuSans-20" transform="translate(388.720703 0)"/>
     <use xlink:href="#DejaVuSans-5b" transform="translate(420.507812 0)"/>
     <use xlink:href="#DejaVuSans-30" transform="translate(459.521484 0)"/>
     <use xlink:href="#DejaVuSans-2c" transform="translate(523.144531 0)"/>
     <use xlink:href="#DejaVuSans-20" transform="translate(554.931641 0)"/>
     <use xlink:href="#DejaVuSans-35" transform="translate(586.71875 0)"/>
     <use xlink:href="#DejaVuSans-30" transform="translate(650.341797 0)"/>
     <use xlink:href="#DejaVuSans-2c" transform="translate(713.964844 0)"/>
     <use xlink:href="#DejaVuSans-20" transform="translate(745.751953 0)"/>
     <use xlink:href="#DejaVuSans-35" transform="translate(777.539062 0)"/>
     <use xlink:href="#DejaVuSans-30" transform="translate(841.162109 0)"/>
     <use xlink:href="#DejaVuSans-5d" transform="translate(904.785156 0)"/>
    </g>
    <!-- class = versicolor -->
    <g transform="translate(512.5719 280.00105) scale(0.176172 -0.176172)">
     <use xlink:href="#DejaVuSans-63"/>
     <use xlink:href="#DejaVuSans-6c" transform="translate(54.980469 0)"/>
     <use xlink:href="#DejaVuSans-61" transform="translate(82.763672 0)"/>
     <use xlink:href="#DejaVuSans-73" transform="translate(144.042969 0)"/>
     <use xlink:href="#DejaVuSans-73" transform="translate(196.142578 0)"/>
     <use xlink:href="#DejaVuSans-20" transform="translate(248.242188 0)"/>
     <use xlink:href="#DejaVuSans-3d" transform="translate(280.029297 0)"/>
     <use xlink:href="#DejaVuSans-20" transform="translate(363.818359 0)"/>
     <use xlink:href="#DejaVuSans-76" transform="translate(395.605469 0)"/>
     <use xlink:href="#DejaVuSans-65" transform="translate(454.785156 0)"/>
     <use xlink:href="#DejaVuSans-72" transform="translate(516.308594 0)"/>
     <use xlink:href="#DejaVuSans-73" transform="translate(557.421875 0)"/>
     <use xlink:href="#DejaVuSans-69" transform="translate(609.521484 0)"/>
     <use xlink:href="#DejaVuSans-63" transform="translate(637.304688 0)"/>
     <use xlink:href="#DejaVuSans-6f" transform="translate(692.285156 0)"/>
     <use xlink:href="#DejaVuSans-6c" transform="translate(753.466797 0)"/>
     <use xlink:href="#DejaVuSans-6f" transform="translate(781.25 0)"/>
     <use xlink:href="#DejaVuSans-72" transform="translate(842.431641 0)"/>
    </g>
   </g>
   <g id="text_10">
    <!--   False -->
    <g transform="translate(534.6 180) scale(0.176172 -0.176172)">
     <defs>
      <path id="DejaVuSans-46" d="M 628 4666 
L 3309 4666 
L 3309 4134 
L 1259 4134 
L 1259 2759 
L 3109 2759 
L 3109 2228 
L 1259 2228 
L 1259 0 
L 628 0 
L 628 4666 
z
" transform="scale(0.015625)"/>
     </defs>
     <use xlink:href="#DejaVuSans-20"/>
     <use xlink:href="#DejaVuSans-20" transform="translate(31.787109 0)"/>
     <use xlink:href="#DejaVuSans-46" transform="translate(63.574219 0)"/>
     <use xlink:href="#DejaVuSans-61" transform="translate(111.96875 0)"/>
     <use xlink:href="#DejaVuSans-6c" transform="translate(173.248047 0)"/>
     <use xlink:href="#DejaVuSans-73" transform="translate(201.03125 0)"/>
     <use xlink:href="#DejaVuSans-65" transform="translate(253.130859 0)"/>
    </g>
   </g>
   <g id="patch_18">
    <path d="M 478.8 124.56 
Q 478.8 124.56 478.8 124.56 
" style="fill: none; stroke: #000000; stroke-linecap: round"/>
   </g>
   <g id="text_11">
    <g id="patch_19">
     <path d="M 384.03324 178.070036 
L 573.56676 178.070036 
Q 578.85192 178.070036 578.85192 172.784877 
L 578.85192 75.845145 
Q 578.85192 70.559986 573.56676 70.559986 
L 384.03324 70.559986 
Q 378.74808 70.559986 378.74808 75.845145 
L 378.74808 172.784877 
Q 378.74808 178.070036 384.03324 178.070036 
z
" style="fill: #ffffff; stroke: #000000; stroke-linejoin: miter"/>
    </g>
    <!-- petal_length &lt;= 2.45 -->
    <g transform="translate(384.03324 89.721441) scale(0.176172 -0.176172)">
     <use xlink:href="#DejaVuSans-70"/>
     <use xlink:href="#DejaVuSans-65" transform="translate(63.476562 0)"/>
     <use xlink:href="#DejaVuSans-74" transform="translate(125 0)"/>
     <use xlink:href="#DejaVuSans-61" transform="translate(164.208984 0)"/>
     <use xlink:href="#DejaVuSans-6c" transform="translate(225.488281 0)"/>
     <use xlink:href="#DejaVuSans-5f" transform="translate(253.271484 0)"/>
     <use xlink:href="#DejaVuSans-6c" transform="translate(303.271484 0)"/>
     <use xlink:href="#DejaVuSans-65" transform="translate(331.054688 0)"/>
     <use xlink:href="#DejaVuSans-6e" transform="translate(392.578125 0)"/>
     <use xlink:href="#DejaVuSans-67" transform="translate(455.957031 0)"/>
     <use xlink:href="#DejaVuSans-74" transform="translate(519.433594 0)"/>
     <use xlink:href="#DejaVuSans-68" transform="translate(558.642578 0)"/>
     <use xlink:href="#DejaVuSans-20" transform="translate(622.021484 0)"/>
     <use xlink:href="#DejaVuSans-3c" transform="translate(653.808594 0)"/>
     <use xlink:href="#DejaVuSans-3d" transform="translate(737.597656 0)"/>
     <use xlink:href="#DejaVuSans-20" transform="translate(821.386719 0)"/>
     <use xlink:href="#DejaVuSans-32" transform="translate(853.173828 0)"/>
     <use xlink:href="#DejaVuSans-2e" transform="translate(916.796875 0)"/>
     <use xlink:href="#DejaVuSans-34" transform="translate(948.583984 0)"/>
     <use xlink:href="#DejaVuSans-35" transform="translate(1012.207031 0)"/>
    </g>
    <!-- gini = 0.667 -->
    <g transform="translate(424.533526 109.938827) scale(0.176172 -0.176172)">
     <use xlink:href="#DejaVuSans-67"/>
     <use xlink:href="#DejaVuSans-69" transform="translate(63.476562 0)"/>
     <use xlink:href="#DejaVuSans-6e" transform="translate(91.259766 0)"/>
     <use xlink:href="#DejaVuSans-69" transform="translate(154.638672 0)"/>
     <use xlink:href="#DejaVuSans-20" transform="translate(182.421875 0)"/>
     <use xlink:href="#DejaVuSans-3d" transform="translate(214.208984 0)"/>
     <use xlink:href="#DejaVuSans-20" transform="translate(297.998047 0)"/>
     <use xlink:href="#DejaVuSans-30" transform="translate(329.785156 0)"/>
     <use xlink:href="#DejaVuSans-2e" transform="translate(393.408203 0)"/>
     <use xlink:href="#DejaVuSans-36" transform="translate(425.195312 0)"/>
     <use xlink:href="#DejaVuSans-36" transform="translate(488.818359 0)"/>
     <use xlink:href="#DejaVuSans-37" transform="translate(552.441406 0)"/>
    </g>
    <!-- samples = 150 -->
    <g transform="translate(412.391423 129.666235) scale(0.176172 -0.176172)">
     <use xlink:href="#DejaVuSans-73"/>
     <use xlink:href="#DejaVuSans-61" transform="translate(52.099609 0)"/>
     <use xlink:href="#DejaVuSans-6d" transform="translate(113.378906 0)"/>
     <use xlink:href="#DejaVuSans-70" transform="translate(210.791016 0)"/>
     <use xlink:href="#DejaVuSans-6c" transform="translate(274.267578 0)"/>
     <use xlink:href="#DejaVuSans-65" transform="translate(302.050781 0)"/>
     <use xlink:href="#DejaVuSans-73" transform="translate(363.574219 0)"/>
     <use xlink:href="#DejaVuSans-20" transform="translate(415.673828 0)"/>
     <use xlink:href="#DejaVuSans-3d" transform="translate(447.460938 0)"/>
     <use xlink:href="#DejaVuSans-20" transform="translate(531.25 0)"/>
     <use xlink:href="#DejaVuSans-31" transform="translate(563.037109 0)"/>
     <use xlink:href="#DejaVuSans-35" transform="translate(626.660156 0)"/>
     <use xlink:href="#DejaVuSans-30" transform="translate(690.283203 0)"/>
    </g>
    <!-- value = [50, 50, 50] -->
    <g transform="translate(390.060248 149.393642) scale(0.176172 -0.176172)">
     <use xlink:href="#DejaVuSans-76"/>
     <use xlink:href="#DejaVuSans-61" transform="translate(59.179688 0)"/>
     <use xlink:href="#DejaVuSans-6c" transform="translate(120.458984 0)"/>
     <use xlink:href="#DejaVuSans-75" transform="translate(148.242188 0)"/>
     <use xlink:href="#DejaVuSans-65" transform="translate(211.621094 0)"/>
     <use xlink:href="#DejaVuSans-20" transform="translate(273.144531 0)"/>
     <use xlink:href="#DejaVuSans-3d" transform="translate(304.931641 0)"/>
     <use xlink:href="#DejaVuSans-20" transform="translate(388.720703 0)"/>
     <use xlink:href="#DejaVuSans-5b" transform="translate(420.507812 0)"/>
     <use xlink:href="#DejaVuSans-35" transform="translate(459.521484 0)"/>
     <use xlink:href="#DejaVuSans-30" transform="translate(523.144531 0)"/>
     <use xlink:href="#DejaVuSans-2c" transform="translate(586.767578 0)"/>
     <use xlink:href="#DejaVuSans-20" transform="translate(618.554688 0)"/>
     <use xlink:href="#DejaVuSans-35" transform="translate(650.341797 0)"/>
     <use xlink:href="#DejaVuSans-30" transform="translate(713.964844 0)"/>
     <use xlink:href="#DejaVuSans-2c" transform="translate(777.587891 0)"/>
     <use xlink:href="#DejaVuSans-20" transform="translate(809.375 0)"/>
     <use xlink:href="#DejaVuSans-35" transform="translate(841.162109 0)"/>
     <use xlink:href="#DejaVuSans-30" transform="translate(904.785156 0)"/>
     <use xlink:href="#DejaVuSans-5d" transform="translate(968.408203 0)"/>
    </g>
    <!-- class = setosa -->
    <g transform="translate(415.115207 169.12105) scale(0.176172 -0.176172)">
     <use xlink:href="#DejaVuSans-63"/>
     <use xlink:href="#DejaVuSans-6c" transform="translate(54.980469 0)"/>
     <use xlink:href="#DejaVuSans-61" transform="translate(82.763672 0)"/>
     <use xlink:href="#DejaVuSans-73" transform="translate(144.042969 0)"/>
     <use xlink:href="#DejaVuSans-73" transform="translate(196.142578 0)"/>
     <use xlink:href="#DejaVuSans-20" transform="translate(248.242188 0)"/>
     <use xlink:href="#DejaVuSans-3d" transform="translate(280.029297 0)"/>
     <use xlink:href="#DejaVuSans-20" transform="translate(363.818359 0)"/>
     <use xlink:href="#DejaVuSans-73" transform="translate(395.605469 0)"/>
     <use xlink:href="#DejaVuSans-65" transform="translate(447.705078 0)"/>
     <use xlink:href="#DejaVuSans-74" transform="translate(509.228516 0)"/>
     <use xlink:href="#DejaVuSans-6f" transform="translate(548.4375 0)"/>
     <use xlink:href="#DejaVuSans-73" transform="translate(609.619141 0)"/>
     <use xlink:href="#DejaVuSans-61" transform="translate(661.71875 0)"/>
    </g>
   </g>
  </g>
 </g>
</svg>
