<?xml version="1.0" encoding="utf-8" standalone="no"?>
<!DOCTYPE svg PUBLIC "-//W3C//DTD SVG 1.1//EN"
  "http://www.w3.org/Graphics/SVG/1.1/DTD/svg11.dtd">
<svg xmlns:xlink="http://www.w3.org/1999/xlink" width="460.8pt" height="291.6pt" viewBox="0 0 460.8 291.6" xmlns="http://www.w3.org/2000/svg" version="1.1">
 <metadata>
  <rdf:RDF xmlns:dc="http://purl.org/dc/elements/1.1/" xmlns:cc="http://creativecommons.org/ns#" xmlns:rdf="http://www.w3.org/1999/02/22-rdf-syntax-ns#">
   <cc:Work>
    <dc:type rdf:resource="http://purl.org/dc/dcmitype/StillImage"/>
    <dc:date>2026-07-08T10:06:07.648332</dc:date>
    <dc:format>image/svg+xml</dc:format>
    <dc:creator>
     <cc:Agent>
      <dc:title>Matplotlib v3.10.1, https://matplotlib.org/</dc:title>
     </cc:Agent>
    </dc:creator>
   </cc:Work>
  </rdf:RDF>
 </metadata>
 <defs>
  <style type="text/css">*{stroke-linejoin: round; stroke-linecap: butt}</style>
 </defs>
 <g id="figure_1">
  <g id="patch_1">
   <path d="M 0 291.6 
L 460.8 291.6 
L 460.8 0 
L 0 0 
z
" style="fill: #ffffff"/>
  </g>
  <g id="axes_1">
   <g id="patch_2">
    <path d="M 29.52 131.94 
L 127.728 131.94 
L 127.728 48.78 
L 29.52 48.78 
z
" clip-path="url(#p3e920c0cce)" style="fill: #1e88e5; opacity: 0.85; stroke: #ffffff; stroke-width: 2; stroke-linejoin: miter"/>
   </g>
   <g id="patch_3">
    <path d="M 29.52 256.68 
L 127.728 256.68 
L 127.728 173.52 
L 29.52 173.52 
z
" clip-path="url(#p3e920c0cce)" style="fill: #43a047; opacity: 0.85; stroke: #ffffff; stroke-width: 2; stroke-linejoin: miter"/>
   </g>
   <g id="patch_4">
    <path d="M 176.832 215.1 
L 288.432 215.1 
L 288.432 90.36 
L 176.832 90.36 
z
" clip-path="url(#p3e920c0cce)" style="fill: #e53935; opacity: 0.85; stroke: #ffffff; stroke-width: 2; stroke-linejoin: miter"/>
   </g>
   <g id="patch_5">
    <path d="M 328.608 215.1 
L 431.28 215.1 
L 431.28 90.36 
L 328.608 90.36 
z
" clip-path="url(#p3e920c0cce)" style="fill: #fb8c00; opacity: 0.85; stroke: #ffffff; stroke-width: 2; stroke-linejoin: miter"/>
   </g>
   <g id="text_1">
    <!-- User Data -->
    <g style="fill: #ffffff" transform="translate(56.285875 83.54675) scale(0.08 -0.08)">
     <defs>
      <path id="DejaVuSans-Bold-55" d="M 588 4666 
L 1791 4666 
L 1791 1869 
Q 1791 1291 1980 1042 
Q 2169 794 2597 794 
Q 3028 794 3217 1042 
Q 3406 1291 3406 1869 
L 3406 4666 
L 4609 4666 
L 4609 1869 
Q 4609 878 4112 393 
Q 3616 -91 2597 -91 
Q 1581 -91 1084 393 
Q 588 878 588 1869 
L 588 4666 
z
" transform="scale(0.015625)"/>
      <path id="DejaVuSans-Bold-73" d="M 3272 3391 
L 3272 2541 
Q 2913 2691 2578 2766 
Q 2244 2841 1947 2841 
Q 1628 2841 1473 2761 
Q 1319 2681 1319 2516 
Q 1319 2381 1436 2309 
Q 1553 2238 1856 2203 
L 2053 2175 
Q 2913 2066 3209 1816 
Q 3506 1566 3506 1031 
Q 3506 472 3093 190 
Q 2681 -91 1863 -91 
Q 1516 -91 1145 -36 
Q 775 19 384 128 
L 384 978 
Q 719 816 1070 734 
Q 1422 653 1784 653 
Q 2113 653 2278 743 
Q 2444 834 2444 1013 
Q 2444 1163 2330 1236 
Q 2216 1309 1875 1350 
L 1678 1375 
Q 931 1469 631 1722 
Q 331 1975 331 2491 
Q 331 3047 712 3315 
Q 1094 3584 1881 3584 
Q 2191 3584 2531 3537 
Q 2872 3491 3272 3391 
z
" transform="scale(0.015625)"/>
      <path id="DejaVuSans-Bold-65" d="M 4031 1759 
L 4031 1441 
L 1416 1441 
Q 1456 1047 1700 850 
Q 1944 653 2381 653 
Q 2734 653 3104 758 
Q 3475 863 3866 1075 
L 3866 213 
Q 3469 63 3072 -14 
Q 2675 -91 2278 -91 
Q 1328 -91 801 392 
Q 275 875 275 1747 
Q 275 2603 792 3093 
Q 1309 3584 2216 3584 
Q 3041 3584 3536 3087 
Q 4031 2591 4031 1759 
z
M 2881 2131 
Q 2881 2450 2695 2645 
Q 2509 2841 2209 2841 
Q 1884 2841 1681 2658 
Q 1478 2475 1428 2131 
L 2881 2131 
z
" transform="scale(0.015625)"/>
      <path id="DejaVuSans-Bold-72" d="M 3138 2547 
Q 2991 2616 2845 2648 
Q 2700 2681 2553 2681 
Q 2122 2681 1889 2404 
Q 1656 2128 1656 1613 
L 1656 0 
L 538 0 
L 538 3500 
L 1656 3500 
L 1656 2925 
Q 1872 3269 2151 3426 
Q 2431 3584 2822 3584 
Q 2878 3584 2943 3579 
Q 3009 3575 3134 3559 
L 3138 2547 
z
" transform="scale(0.015625)"/>
      <path id="DejaVuSans-Bold-20" transform="scale(0.015625)"/>
      <path id="DejaVuSans-Bold-44" d="M 1791 3756 
L 1791 909 
L 2222 909 
Q 2959 909 3348 1275 
Q 3738 1641 3738 2338 
Q 3738 3031 3350 3393 
Q 2963 3756 2222 3756 
L 1791 3756 
z
M 588 4666 
L 1856 4666 
Q 2919 4666 3439 4514 
Q 3959 4363 4331 4000 
Q 4659 3684 4818 3271 
Q 4978 2859 4978 2338 
Q 4978 1809 4818 1395 
Q 4659 981 4331 666 
Q 3956 303 3431 151 
Q 2906 0 1856 0 
L 588 0 
L 588 4666 
z
" transform="scale(0.015625)"/>
      <path id="DejaVuSans-Bold-61" d="M 2106 1575 
Q 1756 1575 1579 1456 
Q 1403 1338 1403 1106 
Q 1403 894 1545 773 
Q 1688 653 1941 653 
Q 2256 653 2472 879 
Q 2688 1106 2688 1447 
L 2688 1575 
L 2106 1575 
z
M 3816 1997 
L 3816 0 
L 2688 0 
L 2688 519 
Q 2463 200 2181 54 
Q 1900 -91 1497 -91 
Q 953 -91 614 226 
Q 275 544 275 1050 
Q 275 1666 698 1953 
Q 1122 2241 2028 2241 
L 2688 2241 
L 2688 2328 
Q 2688 2594 2478 2717 
Q 2269 2841 1825 2841 
Q 1466 2841 1156 2769 
Q 847 2697 581 2553 
L 581 3406 
Q 941 3494 1303 3539 
Q 1666 3584 2028 3584 
Q 2975 3584 3395 3211 
Q 3816 2838 3816 1997 
z
" transform="scale(0.015625)"/>
      <path id="DejaVuSans-Bold-74" d="M 1759 4494 
L 1759 3500 
L 2913 3500 
L 2913 2700 
L 1759 2700 
L 1759 1216 
Q 1759 972 1856 886 
Q 1953 800 2241 800 
L 2816 800 
L 2816 0 
L 1856 0 
Q 1194 0 917 276 
Q 641 553 641 1216 
L 641 2700 
L 84 2700 
L 84 3500 
L 641 3500 
L 641 4494 
L 1759 4494 
z
" transform="scale(0.015625)"/>
     </defs>
     <use xlink:href="#DejaVuSans-Bold-55"/>
     <use xlink:href="#DejaVuSans-Bold-73" transform="translate(81.201172 0)"/>
     <use xlink:href="#DejaVuSans-Bold-65" transform="translate(140.722656 0)"/>
     <use xlink:href="#DejaVuSans-Bold-72" transform="translate(208.544922 0)"/>
     <use xlink:href="#DejaVuSans-Bold-20" transform="translate(257.861328 0)"/>
     <use xlink:href="#DejaVuSans-Bold-44" transform="translate(292.675781 0)"/>
     <use xlink:href="#DejaVuSans-Bold-61" transform="translate(375.683594 0)"/>
     <use xlink:href="#DejaVuSans-Bold-74" transform="translate(443.164062 0)"/>
     <use xlink:href="#DejaVuSans-Bold-61" transform="translate(490.966797 0)"/>
    </g>
    <!-- (history, -->
    <g style="fill: #ffffff" transform="translate(59.747125 92.505) scale(0.08 -0.08)">
     <defs>
      <path id="DejaVuSans-Bold-28" d="M 2413 -844 
L 1484 -844 
Q 1006 -72 778 623 
Q 550 1319 550 2003 
Q 550 2688 779 3389 
Q 1009 4091 1484 4856 
L 2413 4856 
Q 2013 4116 1813 3408 
Q 1613 2700 1613 2009 
Q 1613 1319 1811 609 
Q 2009 -100 2413 -844 
z
" transform="scale(0.015625)"/>
      <path id="DejaVuSans-Bold-68" d="M 4056 2131 
L 4056 0 
L 2931 0 
L 2931 347 
L 2931 1625 
Q 2931 2084 2911 2256 
Q 2891 2428 2841 2509 
Q 2775 2619 2662 2680 
Q 2550 2741 2406 2741 
Q 2056 2741 1856 2470 
Q 1656 2200 1656 1722 
L 1656 0 
L 538 0 
L 538 4863 
L 1656 4863 
L 1656 2988 
Q 1909 3294 2193 3439 
Q 2478 3584 2822 3584 
Q 3428 3584 3742 3212 
Q 4056 2841 4056 2131 
z
" transform="scale(0.015625)"/>
      <path id="DejaVuSans-Bold-69" d="M 538 3500 
L 1656 3500 
L 1656 0 
L 538 0 
L 538 3500 
z
M 538 4863 
L 1656 4863 
L 1656 3950 
L 538 3950 
L 538 4863 
z
" transform="scale(0.015625)"/>
      <path id="DejaVuSans-Bold-6f" d="M 2203 2784 
Q 1831 2784 1636 2517 
Q 1441 2250 1441 1747 
Q 1441 1244 1636 976 
Q 1831 709 2203 709 
Q 2569 709 2762 976 
Q 2956 1244 2956 1747 
Q 2956 2250 2762 2517 
Q 2569 2784 2203 2784 
z
M 2203 3584 
Q 3106 3584 3614 3096 
Q 4122 2609 4122 1747 
Q 4122 884 3614 396 
Q 3106 -91 2203 -91 
Q 1297 -91 786 396 
Q 275 884 275 1747 
Q 275 2609 786 3096 
Q 1297 3584 2203 3584 
z
" transform="scale(0.015625)"/>
      <path id="DejaVuSans-Bold-79" d="M 78 3500 
L 1197 3500 
L 2138 1125 
L 2938 3500 
L 4056 3500 
L 2584 -331 
Q 2363 -916 2067 -1148 
Q 1772 -1381 1288 -1381 
L 641 -1381 
L 641 -647 
L 991 -647 
Q 1275 -647 1404 -556 
Q 1534 -466 1606 -231 
L 1638 -134 
L 78 3500 
z
" transform="scale(0.015625)"/>
      <path id="DejaVuSans-Bold-2c" d="M 653 1209 
L 1778 1209 
L 1778 256 
L 1006 -909 
L 341 -909 
L 653 256 
L 653 1209 
z
" transform="scale(0.015625)"/>
     </defs>
     <use xlink:href="#DejaVuSans-Bold-28"/>
     <use xlink:href="#DejaVuSans-Bold-68" transform="translate(45.703125 0)"/>
     <use xlink:href="#DejaVuSans-Bold-69" transform="translate(116.894531 0)"/>
     <use xlink:href="#DejaVuSans-Bold-73" transform="translate(151.171875 0)"/>
     <use xlink:href="#DejaVuSans-Bold-74" transform="translate(210.693359 0)"/>
     <use xlink:href="#DejaVuSans-Bold-6f" transform="translate(258.496094 0)"/>
     <use xlink:href="#DejaVuSans-Bold-72" transform="translate(327.197266 0)"/>
     <use xlink:href="#DejaVuSans-Bold-79" transform="translate(376.513672 0)"/>
     <use xlink:href="#DejaVuSans-Bold-2c" transform="translate(433.949219 0)"/>
    </g>
    <!-- demographics) -->
    <g style="fill: #ffffff" transform="translate(44.934625 101.52575) scale(0.08 -0.08)">
     <defs>
      <path id="DejaVuSans-Bold-64" d="M 2919 2988 
L 2919 4863 
L 4044 4863 
L 4044 0 
L 2919 0 
L 2919 506 
Q 2688 197 2409 53 
Q 2131 -91 1766 -91 
Q 1119 -91 703 423 
Q 288 938 288 1747 
Q 288 2556 703 3070 
Q 1119 3584 1766 3584 
Q 2128 3584 2408 3439 
Q 2688 3294 2919 2988 
z
M 2181 722 
Q 2541 722 2730 984 
Q 2919 1247 2919 1747 
Q 2919 2247 2730 2509 
Q 2541 2772 2181 2772 
Q 1825 2772 1636 2509 
Q 1447 2247 1447 1747 
Q 1447 1247 1636 984 
Q 1825 722 2181 722 
z
" transform="scale(0.015625)"/>
      <path id="DejaVuSans-Bold-6d" d="M 3781 2919 
Q 3994 3244 4286 3414 
Q 4578 3584 4928 3584 
Q 5531 3584 5847 3212 
Q 6163 2841 6163 2131 
L 6163 0 
L 5038 0 
L 5038 1825 
Q 5041 1866 5042 1909 
Q 5044 1953 5044 2034 
Q 5044 2406 4934 2573 
Q 4825 2741 4581 2741 
Q 4263 2741 4089 2478 
Q 3916 2216 3909 1719 
L 3909 0 
L 2784 0 
L 2784 1825 
Q 2784 2406 2684 2573 
Q 2584 2741 2328 2741 
Q 2006 2741 1831 2477 
Q 1656 2213 1656 1722 
L 1656 0 
L 531 0 
L 531 3500 
L 1656 3500 
L 1656 2988 
Q 1863 3284 2130 3434 
Q 2397 3584 2719 3584 
Q 3081 3584 3359 3409 
Q 3638 3234 3781 2919 
z
" transform="scale(0.015625)"/>
      <path id="DejaVuSans-Bold-67" d="M 2919 594 
Q 2688 288 2409 144 
Q 2131 0 1766 0 
Q 1125 0 706 504 
Q 288 1009 288 1791 
Q 288 2575 706 3076 
Q 1125 3578 1766 3578 
Q 2131 3578 2409 3434 
Q 2688 3291 2919 2981 
L 2919 3500 
L 4044 3500 
L 4044 353 
Q 4044 -491 3511 -936 
Q 2978 -1381 1966 -1381 
Q 1638 -1381 1331 -1331 
Q 1025 -1281 716 -1178 
L 716 -306 
Q 1009 -475 1290 -558 
Q 1572 -641 1856 -641 
Q 2406 -641 2662 -400 
Q 2919 -159 2919 353 
L 2919 594 
z
M 2181 2772 
Q 1834 2772 1640 2515 
Q 1447 2259 1447 1791 
Q 1447 1309 1634 1061 
Q 1822 813 2181 813 
Q 2531 813 2725 1069 
Q 2919 1325 2919 1791 
Q 2919 2259 2725 2515 
Q 2531 2772 2181 2772 
z
" transform="scale(0.015625)"/>
      <path id="DejaVuSans-Bold-70" d="M 1656 506 
L 1656 -1331 
L 538 -1331 
L 538 3500 
L 1656 3500 
L 1656 2988 
Q 1888 3294 2169 3439 
Q 2450 3584 2816 3584 
Q 3463 3584 3878 3070 
Q 4294 2556 4294 1747 
Q 4294 938 3878 423 
Q 3463 -91 2816 -91 
Q 2450 -91 2169 54 
Q 1888 200 1656 506 
z
M 2400 2772 
Q 2041 2772 1848 2508 
Q 1656 2244 1656 1747 
Q 1656 1250 1848 986 
Q 2041 722 2400 722 
Q 2759 722 2948 984 
Q 3138 1247 3138 1747 
Q 3138 2247 2948 2509 
Q 2759 2772 2400 2772 
z
" transform="scale(0.015625)"/>
      <path id="DejaVuSans-Bold-63" d="M 3366 3391 
L 3366 2478 
Q 3138 2634 2908 2709 
Q 2678 2784 2431 2784 
Q 1963 2784 1702 2511 
Q 1441 2238 1441 1747 
Q 1441 1256 1702 982 
Q 1963 709 2431 709 
Q 2694 709 2930 787 
Q 3166 866 3366 1019 
L 3366 103 
Q 3103 6 2833 -42 
Q 2563 -91 2291 -91 
Q 1344 -91 809 395 
Q 275 881 275 1747 
Q 275 2613 809 3098 
Q 1344 3584 2291 3584 
Q 2566 3584 2833 3536 
Q 3100 3488 3366 3391 
z
" transform="scale(0.015625)"/>
      <path id="DejaVuSans-Bold-29" d="M 513 -844 
Q 913 -100 1113 609 
Q 1313 1319 1313 2009 
Q 1313 2700 1113 3408 
Q 913 4116 513 4856 
L 1441 4856 
Q 1916 4091 2145 3389 
Q 2375 2688 2375 2003 
Q 2375 1319 2147 623 
Q 1919 -72 1441 -844 
L 513 -844 
z
" transform="scale(0.015625)"/>
     </defs>
     <use xlink:href="#DejaVuSans-Bold-64"/>
     <use xlink:href="#DejaVuSans-Bold-65" transform="translate(71.582031 0)"/>
     <use xlink:href="#DejaVuSans-Bold-6d" transform="translate(139.404297 0)"/>
     <use xlink:href="#DejaVuSans-Bold-6f" transform="translate(243.603516 0)"/>
     <use xlink:href="#DejaVuSans-Bold-67" transform="translate(312.304688 0)"/>
     <use xlink:href="#DejaVuSans-Bold-72" transform="translate(383.886719 0)"/>
     <use xlink:href="#DejaVuSans-Bold-61" transform="translate(433.203125 0)"/>
     <use xlink:href="#DejaVuSans-Bold-70" transform="translate(500.683594 0)"/>
     <use xlink:href="#DejaVuSans-Bold-68" transform="translate(572.265625 0)"/>
     <use xlink:href="#DejaVuSans-Bold-69" transform="translate(643.457031 0)"/>
     <use xlink:href="#DejaVuSans-Bold-63" transform="translate(677.734375 0)"/>
     <use xlink:href="#DejaVuSans-Bold-73" transform="translate(737.011719 0)"/>
     <use xlink:href="#DejaVuSans-Bold-29" transform="translate(796.533203 0)"/>
    </g>
   </g>
   <g id="text_2">
    <!-- Real-time -->
    <g style="fill: #ffffff" transform="translate(56.935875 208.34925) scale(0.08 -0.08)">
     <defs>
      <path id="DejaVuSans-Bold-52" d="M 2297 2597 
Q 2675 2597 2839 2737 
Q 3003 2878 3003 3200 
Q 3003 3519 2839 3656 
Q 2675 3794 2297 3794 
L 1791 3794 
L 1791 2597 
L 2297 2597 
z
M 1791 1766 
L 1791 0 
L 588 0 
L 588 4666 
L 2425 4666 
Q 3347 4666 3776 4356 
Q 4206 4047 4206 3378 
Q 4206 2916 3982 2619 
Q 3759 2322 3309 2181 
Q 3556 2125 3751 1926 
Q 3947 1728 4147 1325 
L 4800 0 
L 3519 0 
L 2950 1159 
Q 2778 1509 2601 1637 
Q 2425 1766 2131 1766 
L 1791 1766 
z
" transform="scale(0.015625)"/>
      <path id="DejaVuSans-Bold-6c" d="M 538 4863 
L 1656 4863 
L 1656 0 
L 538 0 
L 538 4863 
z
" transform="scale(0.015625)"/>
      <path id="DejaVuSans-Bold-2d" d="M 347 2297 
L 2309 2297 
L 2309 1388 
L 347 1388 
L 347 2297 
z
" transform="scale(0.015625)"/>
     </defs>
     <use xlink:href="#DejaVuSans-Bold-52"/>
     <use xlink:href="#DejaVuSans-Bold-65" transform="translate(77.001953 0)"/>
     <use xlink:href="#DejaVuSans-Bold-61" transform="translate(144.824219 0)"/>
     <use xlink:href="#DejaVuSans-Bold-6c" transform="translate(212.304688 0)"/>
     <use xlink:href="#DejaVuSans-Bold-2d" transform="translate(246.582031 0)"/>
     <use xlink:href="#DejaVuSans-Bold-74" transform="translate(288.085938 0)"/>
     <use xlink:href="#DejaVuSans-Bold-69" transform="translate(335.888672 0)"/>
     <use xlink:href="#DejaVuSans-Bold-6d" transform="translate(370.166016 0)"/>
     <use xlink:href="#DejaVuSans-Bold-65" transform="translate(474.365234 0)"/>
    </g>
    <!-- Behavior -->
    <g style="fill: #ffffff" transform="translate(58.615875 217.3075) scale(0.08 -0.08)">
     <defs>
      <path id="DejaVuSans-Bold-42" d="M 2456 2859 
Q 2741 2859 2887 2984 
Q 3034 3109 3034 3353 
Q 3034 3594 2887 3720 
Q 2741 3847 2456 3847 
L 1791 3847 
L 1791 2859 
L 2456 2859 
z
M 2497 819 
Q 2859 819 3042 972 
Q 3225 1125 3225 1434 
Q 3225 1738 3044 1889 
Q 2863 2041 2497 2041 
L 1791 2041 
L 1791 819 
L 2497 819 
z
M 3616 2497 
Q 4003 2384 4215 2081 
Q 4428 1778 4428 1338 
Q 4428 663 3972 331 
Q 3516 0 2584 0 
L 588 0 
L 588 4666 
L 2394 4666 
Q 3366 4666 3802 4372 
Q 4238 4078 4238 3431 
Q 4238 3091 4078 2852 
Q 3919 2613 3616 2497 
z
" transform="scale(0.015625)"/>
      <path id="DejaVuSans-Bold-76" d="M 97 3500 
L 1216 3500 
L 2088 1081 
L 2956 3500 
L 4078 3500 
L 2700 0 
L 1472 0 
L 97 3500 
z
" transform="scale(0.015625)"/>
     </defs>
     <use xlink:href="#DejaVuSans-Bold-42"/>
     <use xlink:href="#DejaVuSans-Bold-65" transform="translate(76.220703 0)"/>
     <use xlink:href="#DejaVuSans-Bold-68" transform="translate(144.042969 0)"/>
     <use xlink:href="#DejaVuSans-Bold-61" transform="translate(215.234375 0)"/>
     <use xlink:href="#DejaVuSans-Bold-76" transform="translate(282.714844 0)"/>
     <use xlink:href="#DejaVuSans-Bold-69" transform="translate(347.900391 0)"/>
     <use xlink:href="#DejaVuSans-Bold-6f" transform="translate(382.177734 0)"/>
     <use xlink:href="#DejaVuSans-Bold-72" transform="translate(450.878906 0)"/>
    </g>
    <!-- (clicks, views) -->
    <g style="fill: #ffffff" transform="translate(46.762125 226.26575) scale(0.08 -0.08)">
     <defs>
      <path id="DejaVuSans-Bold-6b" d="M 538 4863 
L 1656 4863 
L 1656 2216 
L 2944 3500 
L 4244 3500 
L 2534 1894 
L 4378 0 
L 3022 0 
L 1656 1459 
L 1656 0 
L 538 0 
L 538 4863 
z
" transform="scale(0.015625)"/>
      <path id="DejaVuSans-Bold-77" d="M 225 3500 
L 1313 3500 
L 1900 1088 
L 2491 3500 
L 3425 3500 
L 4013 1113 
L 4603 3500 
L 5691 3500 
L 4769 0 
L 3547 0 
L 2956 2406 
L 2369 0 
L 1147 0 
L 225 3500 
z
" transform="scale(0.015625)"/>
     </defs>
     <use xlink:href="#DejaVuSans-Bold-28"/>
     <use xlink:href="#DejaVuSans-Bold-63" transform="translate(45.703125 0)"/>
     <use xlink:href="#DejaVuSans-Bold-6c" transform="translate(104.980469 0)"/>
     <use xlink:href="#DejaVuSans-Bold-69" transform="translate(139.257812 0)"/>
     <use xlink:href="#DejaVuSans-Bold-63" transform="translate(173.535156 0)"/>
     <use xlink:href="#DejaVuSans-Bold-6b" transform="translate(232.8125 0)"/>
     <use xlink:href="#DejaVuSans-Bold-73" transform="translate(299.316406 0)"/>
     <use xlink:href="#DejaVuSans-Bold-2c" transform="translate(358.837891 0)"/>
     <use xlink:href="#DejaVuSans-Bold-20" transform="translate(396.826172 0)"/>
     <use xlink:href="#DejaVuSans-Bold-76" transform="translate(431.640625 0)"/>
     <use xlink:href="#DejaVuSans-Bold-69" transform="translate(496.826172 0)"/>
     <use xlink:href="#DejaVuSans-Bold-65" transform="translate(531.103516 0)"/>
     <use xlink:href="#DejaVuSans-Bold-77" transform="translate(598.925781 0)"/>
     <use xlink:href="#DejaVuSans-Bold-73" transform="translate(691.308594 0)"/>
     <use xlink:href="#DejaVuSans-Bold-29" transform="translate(750.830078 0)"/>
    </g>
   </g>
   <g id="text_3">
    <!-- Personalization -->
    <g style="fill: #ffffff" transform="translate(193.322391 143.71425) scale(0.09 -0.09)">
     <defs>
      <path id="DejaVuSans-Bold-50" d="M 588 4666 
L 2584 4666 
Q 3475 4666 3951 4270 
Q 4428 3875 4428 3144 
Q 4428 2409 3951 2014 
Q 3475 1619 2584 1619 
L 1791 1619 
L 1791 0 
L 588 0 
L 588 4666 
z
M 1791 3794 
L 1791 2491 
L 2456 2491 
Q 2806 2491 2997 2661 
Q 3188 2831 3188 3144 
Q 3188 3456 2997 3625 
Q 2806 3794 2456 3794 
L 1791 3794 
z
" transform="scale(0.015625)"/>
      <path id="DejaVuSans-Bold-6e" d="M 4056 2131 
L 4056 0 
L 2931 0 
L 2931 347 
L 2931 1631 
Q 2931 2084 2911 2256 
Q 2891 2428 2841 2509 
Q 2775 2619 2662 2680 
Q 2550 2741 2406 2741 
Q 2056 2741 1856 2470 
Q 1656 2200 1656 1722 
L 1656 0 
L 538 0 
L 538 3500 
L 1656 3500 
L 1656 2988 
Q 1909 3294 2193 3439 
Q 2478 3584 2822 3584 
Q 3428 3584 3742 3212 
Q 4056 2841 4056 2131 
z
" transform="scale(0.015625)"/>
      <path id="DejaVuSans-Bold-7a" d="M 366 3500 
L 3419 3500 
L 3419 2719 
L 1575 800 
L 3419 800 
L 3419 0 
L 288 0 
L 288 781 
L 2131 2700 
L 366 2700 
L 366 3500 
z
" transform="scale(0.015625)"/>
     </defs>
     <use xlink:href="#DejaVuSans-Bold-50"/>
     <use xlink:href="#DejaVuSans-Bold-65" transform="translate(73.291016 0)"/>
     <use xlink:href="#DejaVuSans-Bold-72" transform="translate(141.113281 0)"/>
     <use xlink:href="#DejaVuSans-Bold-73" transform="translate(190.429688 0)"/>
     <use xlink:href="#DejaVuSans-Bold-6f" transform="translate(249.951172 0)"/>
     <use xlink:href="#DejaVuSans-Bold-6e" transform="translate(318.652344 0)"/>
     <use xlink:href="#DejaVuSans-Bold-61" transform="translate(389.84375 0)"/>
     <use xlink:href="#DejaVuSans-Bold-6c" transform="translate(457.324219 0)"/>
     <use xlink:href="#DejaVuSans-Bold-69" transform="translate(491.601562 0)"/>
     <use xlink:href="#DejaVuSans-Bold-7a" transform="translate(525.878906 0)"/>
     <use xlink:href="#DejaVuSans-Bold-61" transform="translate(584.082031 0)"/>
     <use xlink:href="#DejaVuSans-Bold-74" transform="translate(651.5625 0)"/>
     <use xlink:href="#DejaVuSans-Bold-69" transform="translate(699.365234 0)"/>
     <use xlink:href="#DejaVuSans-Bold-6f" transform="translate(733.642578 0)"/>
     <use xlink:href="#DejaVuSans-Bold-6e" transform="translate(802.34375 0)"/>
    </g>
    <!-- Engine -->
    <g style="fill: #ffffff" transform="translate(215.335125 153.792281) scale(0.09 -0.09)">
     <defs>
      <path id="DejaVuSans-Bold-45" d="M 588 4666 
L 3834 4666 
L 3834 3756 
L 1791 3756 
L 1791 2888 
L 3713 2888 
L 3713 1978 
L 1791 1978 
L 1791 909 
L 3903 909 
L 3903 0 
L 588 0 
L 588 4666 
z
" transform="scale(0.015625)"/>
     </defs>
     <use xlink:href="#DejaVuSans-Bold-45"/>
     <use xlink:href="#DejaVuSans-Bold-6e" transform="translate(68.310547 0)"/>
     <use xlink:href="#DejaVuSans-Bold-67" transform="translate(139.501953 0)"/>
     <use xlink:href="#DejaVuSans-Bold-69" transform="translate(211.083984 0)"/>
     <use xlink:href="#DejaVuSans-Bold-6e" transform="translate(245.361328 0)"/>
     <use xlink:href="#DejaVuSans-Bold-65" transform="translate(316.552734 0)"/>
    </g>
    <!-- (AI Model) -->
    <g style="fill: #ffffff" transform="translate(206.409656 163.940625) scale(0.09 -0.09)">
     <defs>
      <path id="DejaVuSans-Bold-41" d="M 3419 850 
L 1538 850 
L 1241 0 
L 31 0 
L 1759 4666 
L 3194 4666 
L 4922 0 
L 3713 0 
L 3419 850 
z
M 1838 1716 
L 3116 1716 
L 2478 3572 
L 1838 1716 
z
" transform="scale(0.015625)"/>
      <path id="DejaVuSans-Bold-49" d="M 588 4666 
L 1791 4666 
L 1791 0 
L 588 0 
L 588 4666 
z
" transform="scale(0.015625)"/>
      <path id="DejaVuSans-Bold-4d" d="M 588 4666 
L 2119 4666 
L 3181 2169 
L 4250 4666 
L 5778 4666 
L 5778 0 
L 4641 0 
L 4641 3413 
L 3566 897 
L 2803 897 
L 1728 3413 
L 1728 0 
L 588 0 
L 588 4666 
z
" transform="scale(0.015625)"/>
     </defs>
     <use xlink:href="#DejaVuSans-Bold-28"/>
     <use xlink:href="#DejaVuSans-Bold-41" transform="translate(45.703125 0)"/>
     <use xlink:href="#DejaVuSans-Bold-49" transform="translate(123.095703 0)"/>
     <use xlink:href="#DejaVuSans-Bold-20" transform="translate(160.302734 0)"/>
     <use xlink:href="#DejaVuSans-Bold-4d" transform="translate(195.117188 0)"/>
     <use xlink:href="#DejaVuSans-Bold-6f" transform="translate(294.628906 0)"/>
     <use xlink:href="#DejaVuSans-Bold-64" transform="translate(363.330078 0)"/>
     <use xlink:href="#DejaVuSans-Bold-65" transform="translate(434.912109 0)"/>
     <use xlink:href="#DejaVuSans-Bold-6c" transform="translate(502.734375 0)"/>
     <use xlink:href="#DejaVuSans-Bold-29" transform="translate(537.011719 0)"/>
    </g>
   </g>
   <g id="text_4">
    <!-- Personalized -->
    <g style="fill: #ffffff" transform="translate(351.004 144.59325) scale(0.08 -0.08)">
     <use xlink:href="#DejaVuSans-Bold-50"/>
     <use xlink:href="#DejaVuSans-Bold-65" transform="translate(73.291016 0)"/>
     <use xlink:href="#DejaVuSans-Bold-72" transform="translate(141.113281 0)"/>
     <use xlink:href="#DejaVuSans-Bold-73" transform="translate(190.429688 0)"/>
     <use xlink:href="#DejaVuSans-Bold-6f" transform="translate(249.951172 0)"/>
     <use xlink:href="#DejaVuSans-Bold-6e" transform="translate(318.652344 0)"/>
     <use xlink:href="#DejaVuSans-Bold-61" transform="translate(389.84375 0)"/>
     <use xlink:href="#DejaVuSans-Bold-6c" transform="translate(457.324219 0)"/>
     <use xlink:href="#DejaVuSans-Bold-69" transform="translate(491.601562 0)"/>
     <use xlink:href="#DejaVuSans-Bold-7a" transform="translate(525.878906 0)"/>
     <use xlink:href="#DejaVuSans-Bold-65" transform="translate(584.082031 0)"/>
     <use xlink:href="#DejaVuSans-Bold-64" transform="translate(651.904297 0)"/>
    </g>
    <!-- Content / -->
    <g style="fill: #ffffff" transform="translate(359.174625 153.5515) scale(0.08 -0.08)">
     <defs>
      <path id="DejaVuSans-Bold-43" d="M 4288 256 
Q 3956 84 3597 -3 
Q 3238 -91 2847 -91 
Q 1681 -91 1000 561 
Q 319 1213 319 2328 
Q 319 3447 1000 4098 
Q 1681 4750 2847 4750 
Q 3238 4750 3597 4662 
Q 3956 4575 4288 4403 
L 4288 3438 
Q 3953 3666 3628 3772 
Q 3303 3878 2944 3878 
Q 2300 3878 1931 3465 
Q 1563 3053 1563 2328 
Q 1563 1606 1931 1193 
Q 2300 781 2944 781 
Q 3303 781 3628 887 
Q 3953 994 4288 1222 
L 4288 256 
z
" transform="scale(0.015625)"/>
      <path id="DejaVuSans-Bold-2f" d="M 1644 4666 
L 2338 4666 
L 691 -594 
L 0 -594 
L 1644 4666 
z
" transform="scale(0.015625)"/>
     </defs>
     <use xlink:href="#DejaVuSans-Bold-43"/>
     <use xlink:href="#DejaVuSans-Bold-6f" transform="translate(73.388672 0)"/>
     <use xlink:href="#DejaVuSans-Bold-6e" transform="translate(142.089844 0)"/>
     <use xlink:href="#DejaVuSans-Bold-74" transform="translate(213.28125 0)"/>
     <use xlink:href="#DejaVuSans-Bold-65" transform="translate(261.083984 0)"/>
     <use xlink:href="#DejaVuSans-Bold-6e" transform="translate(328.90625 0)"/>
     <use xlink:href="#DejaVuSans-Bold-74" transform="translate(400.097656 0)"/>
     <use xlink:href="#DejaVuSans-Bold-20" transform="translate(447.900391 0)"/>
     <use xlink:href="#DejaVuSans-Bold-2f" transform="translate(482.714844 0)"/>
    </g>
    <!-- Products -->
    <g style="fill: #ffffff" transform="translate(359.917125 162.50975) scale(0.08 -0.08)">
     <defs>
      <path id="DejaVuSans-Bold-75" d="M 500 1363 
L 500 3500 
L 1625 3500 
L 1625 3150 
Q 1625 2866 1622 2436 
Q 1619 2006 1619 1863 
Q 1619 1441 1641 1255 
Q 1663 1069 1716 984 
Q 1784 875 1895 815 
Q 2006 756 2150 756 
Q 2500 756 2700 1025 
Q 2900 1294 2900 1772 
L 2900 3500 
L 4019 3500 
L 4019 0 
L 2900 0 
L 2900 506 
Q 2647 200 2364 54 
Q 2081 -91 1741 -91 
Q 1134 -91 817 281 
Q 500 653 500 1363 
z
" transform="scale(0.015625)"/>
     </defs>
     <use xlink:href="#DejaVuSans-Bold-50"/>
     <use xlink:href="#DejaVuSans-Bold-72" transform="translate(73.291016 0)"/>
     <use xlink:href="#DejaVuSans-Bold-6f" transform="translate(122.607422 0)"/>
     <use xlink:href="#DejaVuSans-Bold-64" transform="translate(191.308594 0)"/>
     <use xlink:href="#DejaVuSans-Bold-75" transform="translate(262.890625 0)"/>
     <use xlink:href="#DejaVuSans-Bold-63" transform="translate(334.082031 0)"/>
     <use xlink:href="#DejaVuSans-Bold-74" transform="translate(393.359375 0)"/>
     <use xlink:href="#DejaVuSans-Bold-73" transform="translate(441.162109 0)"/>
    </g>
   </g>
   <g id="patch_6">
    <path d="M 134.188049 90.36 
Q 152.278317 90.36 168.691535 90.36 
" style="fill: none; stroke: #808080; stroke-width: 1.5; stroke-linecap: round"/>
    <path d="M 164.691535 88.36 
L 168.691535 90.36 
L 164.691535 92.36 
" style="fill: none; stroke: #808080; stroke-width: 1.5; stroke-linecap: round"/>
   </g>
   <g id="patch_7">
    <path d="M 133.837392 200.104739 
Q 152.280769 187.379469 169.343776 175.606606 
" style="fill: none; stroke: #808080; stroke-width: 1.5; stroke-linecap: round"/>
    <path d="M 164.91559 176.232039 
L 169.343776 175.606606 
L 167.187211 179.524415 
" style="fill: none; stroke: #808080; stroke-width: 1.5; stroke-linecap: round"/>
   </g>
   <g id="patch_8">
    <path d="M 294.898588 151.344 
Q 308.51991 151.344 319.905164 151.344 
" style="fill: none; stroke: #808080; stroke-width: 2; stroke-linecap: round"/>
    <path d="M 315.905164 149.344 
L 319.905164 151.344 
L 315.905164 153.344 
" style="fill: none; stroke: #808080; stroke-width: 2; stroke-linecap: round"/>
   </g>
   <g id="patch_9">
    <path d="M 178.80053 215.459528 
Q 252.719051 228.959827 325.53773 242.259253 
" style="fill: none; stroke-dasharray: 3.7,1.6; stroke-dashoffset: 0; stroke: #808080; stroke-linecap: round"/>
    <path d="M 321.96215 239.573135 
L 325.53773 242.259253 
L 321.243488 243.508046 
" style="fill: none; stroke-dasharray: 3.7,1.6; stroke-dashoffset: 0; stroke: #808080; stroke-linecap: round"/>
   </g>
   <g id="text_5">
    <!-- Feedback (implicit/explicit) -->
    <g style="fill: #808080" transform="translate(205.359531 251.136) scale(0.07 -0.07)">
     <defs>
      <path id="DejaVuSans-Oblique-46" d="M 1081 4666 
L 3756 4666 
L 3653 4134 
L 1606 4134 
L 1338 2759 
L 3188 2759 
L 3084 2228 
L 1234 2228 
L 800 0 
L 172 0 
L 1081 4666 
z
" transform="scale(0.015625)"/>
      <path id="DejaVuSans-Oblique-65" d="M 3078 2063 
Q 3088 2113 3092 2166 
Q 3097 2219 3097 2272 
Q 3097 2653 2873 2875 
Q 2650 3097 2266 3097 
Q 1838 3097 1509 2826 
Q 1181 2556 1013 2059 
L 3078 2063 
z
M 3578 1613 
L 903 1613 
Q 884 1494 878 1425 
Q 872 1356 872 1306 
Q 872 872 1139 634 
Q 1406 397 1894 397 
Q 2269 397 2603 481 
Q 2938 566 3225 728 
L 3116 159 
Q 2806 34 2476 -28 
Q 2147 -91 1806 -91 
Q 1078 -91 686 257 
Q 294 606 294 1247 
Q 294 1794 489 2264 
Q 684 2734 1063 3103 
Q 1306 3334 1642 3459 
Q 1978 3584 2356 3584 
Q 2950 3584 3301 3228 
Q 3653 2872 3653 2272 
Q 3653 2128 3634 1964 
Q 3616 1800 3578 1613 
z
" transform="scale(0.015625)"/>
      <path id="DejaVuSans-Oblique-64" d="M 2675 525 
Q 2444 222 2128 65 
Q 1813 -91 1428 -91 
Q 903 -91 598 267 
Q 294 625 294 1247 
Q 294 1766 478 2236 
Q 663 2706 1013 3078 
Q 1244 3325 1534 3454 
Q 1825 3584 2144 3584 
Q 2481 3584 2739 3421 
Q 2997 3259 3138 2956 
L 3513 4863 
L 4091 4863 
L 3144 0 
L 2566 0 
L 2675 525 
z
M 891 1350 
Q 891 897 1095 644 
Q 1300 391 1663 391 
Q 1931 391 2161 520 
Q 2391 650 2566 903 
Q 2750 1166 2856 1509 
Q 2963 1853 2963 2188 
Q 2963 2622 2758 2865 
Q 2553 3109 2194 3109 
Q 1922 3109 1687 2981 
Q 1453 2853 1288 2613 
Q 1106 2353 998 2009 
Q 891 1666 891 1350 
z
" transform="scale(0.015625)"/>
      <path id="DejaVuSans-Oblique-62" d="M 3169 2138 
Q 3169 2591 2961 2847 
Q 2753 3103 2388 3103 
Q 2122 3103 1889 2973 
Q 1656 2844 1484 2597 
Q 1303 2338 1198 1995 
Q 1094 1653 1094 1313 
Q 1094 881 1298 636 
Q 1503 391 1863 391 
Q 2134 391 2365 517 
Q 2597 644 2772 891 
Q 2950 1147 3059 1487 
Q 3169 1828 3169 2138 
z
M 1381 2969 
Q 1594 3256 1914 3420 
Q 2234 3584 2584 3584 
Q 3122 3584 3439 3221 
Q 3756 2859 3756 2241 
Q 3756 1734 3570 1259 
Q 3384 784 3041 416 
Q 2816 172 2522 40 
Q 2228 -91 1906 -91 
Q 1566 -91 1316 65 
Q 1066 222 909 531 
L 806 0 
L 231 0 
L 1178 4863 
L 1753 4863 
L 1381 2969 
z
" transform="scale(0.015625)"/>
      <path id="DejaVuSans-Oblique-61" d="M 3438 1997 
L 3047 0 
L 2472 0 
L 2578 531 
Q 2325 219 2001 64 
Q 1678 -91 1281 -91 
Q 834 -91 548 182 
Q 263 456 263 884 
Q 263 1497 752 1853 
Q 1241 2209 2100 2209 
L 2900 2209 
L 2931 2363 
Q 2938 2388 2941 2417 
Q 2944 2447 2944 2509 
Q 2944 2788 2717 2942 
Q 2491 3097 2081 3097 
Q 1800 3097 1504 3025 
Q 1209 2953 897 2809 
L 997 3341 
Q 1322 3463 1633 3523 
Q 1944 3584 2234 3584 
Q 2853 3584 3176 3315 
Q 3500 3047 3500 2534 
Q 3500 2431 3484 2292 
Q 3469 2153 3438 1997 
z
M 2816 1759 
L 2241 1759 
Q 1534 1759 1195 1570 
Q 856 1381 856 984 
Q 856 709 1029 553 
Q 1203 397 1509 397 
Q 1978 397 2328 733 
Q 2678 1069 2791 1631 
L 2816 1759 
z
" transform="scale(0.015625)"/>
      <path id="DejaVuSans-Oblique-63" d="M 3431 3366 
L 3316 2797 
Q 3109 2947 2876 3022 
Q 2644 3097 2394 3097 
Q 2119 3097 1870 3000 
Q 1622 2903 1453 2725 
Q 1184 2453 1037 2087 
Q 891 1722 891 1331 
Q 891 859 1127 628 
Q 1363 397 1844 397 
Q 2081 397 2348 469 
Q 2616 541 2906 684 
L 2797 116 
Q 2547 13 2283 -39 
Q 2019 -91 1741 -91 
Q 1044 -91 669 257 
Q 294 606 294 1253 
Q 294 1797 489 2255 
Q 684 2713 1069 3078 
Q 1331 3328 1684 3456 
Q 2038 3584 2456 3584 
Q 2700 3584 2940 3529 
Q 3181 3475 3431 3366 
z
" transform="scale(0.015625)"/>
      <path id="DejaVuSans-Oblique-6b" d="M 1172 4863 
L 1747 4863 
L 1197 2028 
L 3169 3500 
L 3916 3500 
L 1716 1825 
L 3322 0 
L 2625 0 
L 1131 1709 
L 800 0 
L 225 0 
L 1172 4863 
z
" transform="scale(0.015625)"/>
      <path id="DejaVuSans-Oblique-20" transform="scale(0.015625)"/>
      <path id="DejaVuSans-Oblique-28" d="M 2731 4856 
Q 1903 3822 1495 2892 
Q 1088 1963 1088 1100 
Q 1088 606 1206 120 
Q 1325 -366 1563 -844 
L 1063 -844 
Q 775 -306 634 201 
Q 494 709 494 1197 
Q 494 2125 923 3036 
Q 1353 3947 2222 4856 
L 2731 4856 
z
" transform="scale(0.015625)"/>
      <path id="DejaVuSans-Oblique-69" d="M 1172 4863 
L 1747 4863 
L 1606 4134 
L 1031 4134 
L 1172 4863 
z
M 909 3500 
L 1484 3500 
L 800 0 
L 225 0 
L 909 3500 
z
" transform="scale(0.015625)"/>
      <path id="DejaVuSans-Oblique-6d" d="M 5747 2113 
L 5338 0 
L 4763 0 
L 5166 2094 
Q 5191 2228 5203 2325 
Q 5216 2422 5216 2491 
Q 5216 2772 5059 2928 
Q 4903 3084 4622 3084 
Q 4203 3084 3875 2770 
Q 3547 2456 3450 1953 
L 3066 0 
L 2491 0 
L 2900 2094 
Q 2925 2209 2937 2307 
Q 2950 2406 2950 2484 
Q 2950 2769 2794 2926 
Q 2638 3084 2363 3084 
Q 1938 3084 1609 2770 
Q 1281 2456 1184 1953 
L 800 0 
L 225 0 
L 909 3500 
L 1484 3500 
L 1375 2956 
Q 1609 3263 1923 3423 
Q 2238 3584 2597 3584 
Q 2978 3584 3223 3384 
Q 3469 3184 3519 2828 
Q 3781 3197 4126 3390 
Q 4472 3584 4856 3584 
Q 5306 3584 5551 3325 
Q 5797 3066 5797 2591 
Q 5797 2488 5784 2364 
Q 5772 2241 5747 2113 
z
" transform="scale(0.015625)"/>
      <path id="DejaVuSans-Oblique-70" d="M 3175 2156 
Q 3175 2616 2975 2859 
Q 2775 3103 2400 3103 
Q 2144 3103 1911 2972 
Q 1678 2841 1497 2591 
Q 1319 2344 1212 1994 
Q 1106 1644 1106 1300 
Q 1106 863 1306 627 
Q 1506 391 1875 391 
Q 2147 391 2380 519 
Q 2613 647 2778 891 
Q 2956 1147 3065 1494 
Q 3175 1841 3175 2156 
z
M 1394 2969 
Q 1625 3272 1939 3428 
Q 2253 3584 2638 3584 
Q 3175 3584 3472 3232 
Q 3769 2881 3769 2247 
Q 3769 1728 3584 1258 
Q 3400 788 3053 416 
Q 2822 169 2531 39 
Q 2241 -91 1919 -91 
Q 1547 -91 1294 64 
Q 1041 219 916 525 
L 556 -1331 
L -19 -1331 
L 922 3500 
L 1497 3500 
L 1394 2969 
z
" transform="scale(0.015625)"/>
      <path id="DejaVuSans-Oblique-6c" d="M 1172 4863 
L 1747 4863 
L 800 0 
L 225 0 
L 1172 4863 
z
" transform="scale(0.015625)"/>
      <path id="DejaVuSans-Oblique-74" d="M 2706 3500 
L 2619 3053 
L 1472 3053 
L 1100 1153 
Q 1081 1047 1072 975 
Q 1063 903 1063 863 
Q 1063 663 1183 572 
Q 1303 481 1569 481 
L 2150 481 
L 2053 0 
L 1503 0 
Q 991 0 739 200 
Q 488 400 488 806 
Q 488 878 497 964 
Q 506 1050 525 1153 
L 897 3053 
L 409 3053 
L 500 3500 
L 978 3500 
L 1172 4494 
L 1747 4494 
L 1556 3500 
L 2706 3500 
z
" transform="scale(0.015625)"/>
      <path id="DejaVuSans-Oblique-2f" d="M 2175 4666 
L 2731 4666 
L 84 -594 
L -469 -594 
L 2175 4666 
z
" transform="scale(0.015625)"/>
      <path id="DejaVuSans-Oblique-78" d="M 3841 3500 
L 2234 1784 
L 3219 0 
L 2559 0 
L 1819 1388 
L 531 0 
L -166 0 
L 1556 1844 
L 641 3500 
L 1300 3500 
L 1972 2234 
L 3144 3500 
L 3841 3500 
z
" transform="scale(0.015625)"/>
      <path id="DejaVuSans-Oblique-29" d="M -397 -844 
Q 434 191 840 1120 
Q 1247 2050 1247 2913 
Q 1247 3406 1130 3892 
Q 1013 4378 775 4856 
L 1275 4856 
Q 1563 4316 1703 3812 
Q 1844 3309 1844 2822 
Q 1844 1891 1411 973 
Q 978 56 116 -844 
L -397 -844 
z
" transform="scale(0.015625)"/>
     </defs>
     <use xlink:href="#DejaVuSans-Oblique-46"/>
     <use xlink:href="#DejaVuSans-Oblique-65" transform="translate(57.519531 0)"/>
     <use xlink:href="#DejaVuSans-Oblique-65" transform="translate(119.042969 0)"/>
     <use xlink:href="#DejaVuSans-Oblique-64" transform="translate(180.566406 0)"/>
     <use xlink:href="#DejaVuSans-Oblique-62" transform="translate(244.042969 0)"/>
     <use xlink:href="#DejaVuSans-Oblique-61" transform="translate(307.519531 0)"/>
     <use xlink:href="#DejaVuSans-Oblique-63" transform="translate(368.798828 0)"/>
     <use xlink:href="#DejaVuSans-Oblique-6b" transform="translate(423.779297 0)"/>
     <use xlink:href="#DejaVuSans-Oblique-20" transform="translate(481.689453 0)"/>
     <use xlink:href="#DejaVuSans-Oblique-28" transform="translate(513.476562 0)"/>
     <use xlink:href="#DejaVuSans-Oblique-69" transform="translate(552.490234 0)"/>
     <use xlink:href="#DejaVuSans-Oblique-6d" transform="translate(580.273438 0)"/>
     <use xlink:href="#DejaVuSans-Oblique-70" transform="translate(677.685547 0)"/>
     <use xlink:href="#DejaVuSans-Oblique-6c" transform="translate(741.162109 0)"/>
     <use xlink:href="#DejaVuSans-Oblique-69" transform="translate(768.945312 0)"/>
     <use xlink:href="#DejaVuSans-Oblique-63" transform="translate(796.728516 0)"/>
     <use xlink:href="#DejaVuSans-Oblique-69" transform="translate(851.708984 0)"/>
     <use xlink:href="#DejaVuSans-Oblique-74" transform="translate(879.492188 0)"/>
     <use xlink:href="#DejaVuSans-Oblique-2f" transform="translate(918.701172 0)"/>
     <use xlink:href="#DejaVuSans-Oblique-65" transform="translate(952.392578 0)"/>
     <use xlink:href="#DejaVuSans-Oblique-78" transform="translate(1013.916016 0)"/>
     <use xlink:href="#DejaVuSans-Oblique-70" transform="translate(1073.095703 0)"/>
     <use xlink:href="#DejaVuSans-Oblique-6c" transform="translate(1136.572266 0)"/>
     <use xlink:href="#DejaVuSans-Oblique-69" transform="translate(1164.355469 0)"/>
     <use xlink:href="#DejaVuSans-Oblique-63" transform="translate(1192.138672 0)"/>
     <use xlink:href="#DejaVuSans-Oblique-69" transform="translate(1247.119141 0)"/>
     <use xlink:href="#DejaVuSans-Oblique-74" transform="translate(1274.902344 0)"/>
     <use xlink:href="#DejaVuSans-Oblique-29" transform="translate(1314.111328 0)"/>
    </g>
   </g>
   <g id="text_6">
    <!-- Personalization Engine Architecture -->
    <g transform="translate(98.447969 29.376) scale(0.13 -0.13)">
     <use xlink:href="#DejaVuSans-Bold-50"/>
     <use xlink:href="#DejaVuSans-Bold-65" transform="translate(73.291016 0)"/>
     <use xlink:href="#DejaVuSans-Bold-72" transform="translate(141.113281 0)"/>
     <use xlink:href="#DejaVuSans-Bold-73" transform="translate(190.429688 0)"/>
     <use xlink:href="#DejaVuSans-Bold-6f" transform="translate(249.951172 0)"/>
     <use xlink:href="#DejaVuSans-Bold-6e" transform="translate(318.652344 0)"/>
     <use xlink:href="#DejaVuSans-Bold-61" transform="translate(389.84375 0)"/>
     <use xlink:href="#DejaVuSans-Bold-6c" transform="translate(457.324219 0)"/>
     <use xlink:href="#DejaVuSans-Bold-69" transform="translate(491.601562 0)"/>
     <use xlink:href="#DejaVuSans-Bold-7a" transform="translate(525.878906 0)"/>
     <use xlink:href="#DejaVuSans-Bold-61" transform="translate(584.082031 0)"/>
     <use xlink:href="#DejaVuSans-Bold-74" transform="translate(651.5625 0)"/>
     <use xlink:href="#DejaVuSans-Bold-69" transform="translate(699.365234 0)"/>
     <use xlink:href="#DejaVuSans-Bold-6f" transform="translate(733.642578 0)"/>
     <use xlink:href="#DejaVuSans-Bold-6e" transform="translate(802.34375 0)"/>
     <use xlink:href="#DejaVuSans-Bold-20" transform="translate(873.535156 0)"/>
     <use xlink:href="#DejaVuSans-Bold-45" transform="translate(908.349609 0)"/>
     <use xlink:href="#DejaVuSans-Bold-6e" transform="translate(976.660156 0)"/>
     <use xlink:href="#DejaVuSans-Bold-67" transform="translate(1047.851562 0)"/>
     <use xlink:href="#DejaVuSans-Bold-69" transform="translate(1119.433594 0)"/>
     <use xlink:href="#DejaVuSans-Bold-6e" transform="translate(1153.710938 0)"/>
     <use xlink:href="#DejaVuSans-Bold-65" transform="translate(1224.902344 0)"/>
     <use xlink:href="#DejaVuSans-Bold-20" transform="translate(1292.724609 0)"/>
     <use xlink:href="#DejaVuSans-Bold-41" transform="translate(1327.539062 0)"/>
     <use xlink:href="#DejaVuSans-Bold-72" transform="translate(1404.931641 0)"/>
     <use xlink:href="#DejaVuSans-Bold-63" transform="translate(1454.248047 0)"/>
     <use xlink:href="#DejaVuSans-Bold-68" transform="translate(1513.525391 0)"/>
     <use xlink:href="#DejaVuSans-Bold-69" transform="translate(1584.716797 0)"/>
     <use xlink:href="#DejaVuSans-Bold-74" transform="translate(1618.994141 0)"/>
     <use xlink:href="#DejaVuSans-Bold-65" transform="translate(1666.796875 0)"/>
     <use xlink:href="#DejaVuSans-Bold-63" transform="translate(1734.619141 0)"/>
     <use xlink:href="#DejaVuSans-Bold-74" transform="translate(1793.896484 0)"/>
     <use xlink:href="#DejaVuSans-Bold-75" transform="translate(1841.699219 0)"/>
     <use xlink:href="#DejaVuSans-Bold-72" transform="translate(1912.890625 0)"/>
     <use xlink:href="#DejaVuSans-Bold-65" transform="translate(1962.207031 0)"/>
    </g>
   </g>
  </g>
 </g>
 <defs>
  <clipPath id="p3e920c0cce">
   <rect x="7.2" y="7.2" width="446.4" height="277.2"/>
  </clipPath>
 </defs>
</svg>
