<?xml version="1.0" encoding="utf-8" standalone="no"?>
<!DOCTYPE svg PUBLIC "-//W3C//DTD SVG 1.1//EN"
  "http://www.w3.org/Graphics/SVG/1.1/DTD/svg11.dtd">
<svg xmlns:xlink="http://www.w3.org/1999/xlink" width="460.8pt" height="291.6pt" viewBox="0 0 460.8 291.6" xmlns="http://www.w3.org/2000/svg" version="1.1">
 <metadata>
  <rdf:RDF xmlns:dc="http://purl.org/dc/elements/1.1/" xmlns:cc="http://creativecommons.org/ns#" xmlns:rdf="http://www.w3.org/1999/02/22-rdf-syntax-ns#">
   <cc:Work>
    <dc:type rdf:resource="http://purl.org/dc/dcmitype/StillImage"/>
    <dc:date>2026-07-08T10:06:06.873300</dc:date>
    <dc:format>image/svg+xml</dc:format>
    <dc:creator>
     <cc:Agent>
      <dc:title>Matplotlib v3.10.1, https://matplotlib.org/</dc:title>
     </cc:Agent>
    </dc:creator>
   </cc:Work>
  </rdf:RDF>
 </metadata>
 <defs>
  <style type="text/css">*{stroke-linejoin: round; stroke-linecap: butt}</style>
 </defs>
 <g id="figure_1">
  <g id="patch_1">
   <path d="M 0 291.6 
L 460.8 291.6 
L 460.8 0 
L 0 0 
z
" style="fill: #ffffff"/>
  </g>
  <g id="axes_1">
   <g id="patch_2">
    <path d="M 42.912 242.82 
L 163.44 242.82 
L 163.44 76.5 
L 42.912 76.5 
z
" clip-path="url(#p5cf9ce5f54)" style="fill: #1e88e5; opacity: 0.85; stroke: #ffffff; stroke-width: 2; stroke-linejoin: miter"/>
   </g>
   <g id="patch_3">
    <path d="M 176.832 242.82 
L 297.36 242.82 
L 297.36 76.5 
L 176.832 76.5 
z
" clip-path="url(#p5cf9ce5f54)" style="fill: #43a047; opacity: 0.85; stroke: #ffffff; stroke-width: 2; stroke-linejoin: miter"/>
   </g>
   <g id="patch_4">
    <path d="M 310.752 242.82 
L 431.28 242.82 
L 431.28 76.5 
L 310.752 76.5 
z
" clip-path="url(#p5cf9ce5f54)" style="fill: #e53935; opacity: 0.85; stroke: #ffffff; stroke-width: 2; stroke-linejoin: miter"/>
   </g>
   <g id="text_1">
    <!-- Content-Based -->
    <g style="fill: #ffffff" transform="translate(61.575219 129.061406) scale(0.1 -0.1)">
     <defs>
      <path id="DejaVuSans-Bold-43" d="M 4288 256 
Q 3956 84 3597 -3 
Q 3238 -91 2847 -91 
Q 1681 -91 1000 561 
Q 319 1213 319 2328 
Q 319 3447 1000 4098 
Q 1681 4750 2847 4750 
Q 3238 4750 3597 4662 
Q 3956 4575 4288 4403 
L 4288 3438 
Q 3953 3666 3628 3772 
Q 3303 3878 2944 3878 
Q 2300 3878 1931 3465 
Q 1563 3053 1563 2328 
Q 1563 1606 1931 1193 
Q 2300 781 2944 781 
Q 3303 781 3628 887 
Q 3953 994 4288 1222 
L 4288 256 
z
" transform="scale(0.015625)"/>
      <path id="DejaVuSans-Bold-6f" d="M 2203 2784 
Q 1831 2784 1636 2517 
Q 1441 2250 1441 1747 
Q 1441 1244 1636 976 
Q 1831 709 2203 709 
Q 2569 709 2762 976 
Q 2956 1244 2956 1747 
Q 2956 2250 2762 2517 
Q 2569 2784 2203 2784 
z
M 2203 3584 
Q 3106 3584 3614 3096 
Q 4122 2609 4122 1747 
Q 4122 884 3614 396 
Q 3106 -91 2203 -91 
Q 1297 -91 786 396 
Q 275 884 275 1747 
Q 275 2609 786 3096 
Q 1297 3584 2203 3584 
z
" transform="scale(0.015625)"/>
      <path id="DejaVuSans-Bold-6e" d="M 4056 2131 
L 4056 0 
L 2931 0 
L 2931 347 
L 2931 1631 
Q 2931 2084 2911 2256 
Q 2891 2428 2841 2509 
Q 2775 2619 2662 2680 
Q 2550 2741 2406 2741 
Q 2056 2741 1856 2470 
Q 1656 2200 1656 1722 
L 1656 0 
L 538 0 
L 538 3500 
L 1656 3500 
L 1656 2988 
Q 1909 3294 2193 3439 
Q 2478 3584 2822 3584 
Q 3428 3584 3742 3212 
Q 4056 2841 4056 2131 
z
" transform="scale(0.015625)"/>
      <path id="DejaVuSans-Bold-74" d="M 1759 4494 
L 1759 3500 
L 2913 3500 
L 2913 2700 
L 1759 2700 
L 1759 1216 
Q 1759 972 1856 886 
Q 1953 800 2241 800 
L 2816 800 
L 2816 0 
L 1856 0 
Q 1194 0 917 276 
Q 641 553 641 1216 
L 641 2700 
L 84 2700 
L 84 3500 
L 641 3500 
L 641 4494 
L 1759 4494 
z
" transform="scale(0.015625)"/>
      <path id="DejaVuSans-Bold-65" d="M 4031 1759 
L 4031 1441 
L 1416 1441 
Q 1456 1047 1700 850 
Q 1944 653 2381 653 
Q 2734 653 3104 758 
Q 3475 863 3866 1075 
L 3866 213 
Q 3469 63 3072 -14 
Q 2675 -91 2278 -91 
Q 1328 -91 801 392 
Q 275 875 275 1747 
Q 275 2603 792 3093 
Q 1309 3584 2216 3584 
Q 3041 3584 3536 3087 
Q 4031 2591 4031 1759 
z
M 2881 2131 
Q 2881 2450 2695 2645 
Q 2509 2841 2209 2841 
Q 1884 2841 1681 2658 
Q 1478 2475 1428 2131 
L 2881 2131 
z
" transform="scale(0.015625)"/>
      <path id="DejaVuSans-Bold-2d" d="M 347 2297 
L 2309 2297 
L 2309 1388 
L 347 1388 
L 347 2297 
z
" transform="scale(0.015625)"/>
      <path id="DejaVuSans-Bold-42" d="M 2456 2859 
Q 2741 2859 2887 2984 
Q 3034 3109 3034 3353 
Q 3034 3594 2887 3720 
Q 2741 3847 2456 3847 
L 1791 3847 
L 1791 2859 
L 2456 2859 
z
M 2497 819 
Q 2859 819 3042 972 
Q 3225 1125 3225 1434 
Q 3225 1738 3044 1889 
Q 2863 2041 2497 2041 
L 1791 2041 
L 1791 819 
L 2497 819 
z
M 3616 2497 
Q 4003 2384 4215 2081 
Q 4428 1778 4428 1338 
Q 4428 663 3972 331 
Q 3516 0 2584 0 
L 588 0 
L 588 4666 
L 2394 4666 
Q 3366 4666 3802 4372 
Q 4238 4078 4238 3431 
Q 4238 3091 4078 2852 
Q 3919 2613 3616 2497 
z
" transform="scale(0.015625)"/>
      <path id="DejaVuSans-Bold-61" d="M 2106 1575 
Q 1756 1575 1579 1456 
Q 1403 1338 1403 1106 
Q 1403 894 1545 773 
Q 1688 653 1941 653 
Q 2256 653 2472 879 
Q 2688 1106 2688 1447 
L 2688 1575 
L 2106 1575 
z
M 3816 1997 
L 3816 0 
L 2688 0 
L 2688 519 
Q 2463 200 2181 54 
Q 1900 -91 1497 -91 
Q 953 -91 614 226 
Q 275 544 275 1050 
Q 275 1666 698 1953 
Q 1122 2241 2028 2241 
L 2688 2241 
L 2688 2328 
Q 2688 2594 2478 2717 
Q 2269 2841 1825 2841 
Q 1466 2841 1156 2769 
Q 847 2697 581 2553 
L 581 3406 
Q 941 3494 1303 3539 
Q 1666 3584 2028 3584 
Q 2975 3584 3395 3211 
Q 3816 2838 3816 1997 
z
" transform="scale(0.015625)"/>
      <path id="DejaVuSans-Bold-73" d="M 3272 3391 
L 3272 2541 
Q 2913 2691 2578 2766 
Q 2244 2841 1947 2841 
Q 1628 2841 1473 2761 
Q 1319 2681 1319 2516 
Q 1319 2381 1436 2309 
Q 1553 2238 1856 2203 
L 2053 2175 
Q 2913 2066 3209 1816 
Q 3506 1566 3506 1031 
Q 3506 472 3093 190 
Q 2681 -91 1863 -91 
Q 1516 -91 1145 -36 
Q 775 19 384 128 
L 384 978 
Q 719 816 1070 734 
Q 1422 653 1784 653 
Q 2113 653 2278 743 
Q 2444 834 2444 1013 
Q 2444 1163 2330 1236 
Q 2216 1309 1875 1350 
L 1678 1375 
Q 931 1469 631 1722 
Q 331 1975 331 2491 
Q 331 3047 712 3315 
Q 1094 3584 1881 3584 
Q 2191 3584 2531 3537 
Q 2872 3491 3272 3391 
z
" transform="scale(0.015625)"/>
      <path id="DejaVuSans-Bold-64" d="M 2919 2988 
L 2919 4863 
L 4044 4863 
L 4044 0 
L 2919 0 
L 2919 506 
Q 2688 197 2409 53 
Q 2131 -91 1766 -91 
Q 1119 -91 703 423 
Q 288 938 288 1747 
Q 288 2556 703 3070 
Q 1119 3584 1766 3584 
Q 2128 3584 2408 3439 
Q 2688 3294 2919 2988 
z
M 2181 722 
Q 2541 722 2730 984 
Q 2919 1247 2919 1747 
Q 2919 2247 2730 2509 
Q 2541 2772 2181 2772 
Q 1825 2772 1636 2509 
Q 1447 2247 1447 1747 
Q 1447 1247 1636 984 
Q 1825 722 2181 722 
z
" transform="scale(0.015625)"/>
     </defs>
     <use xlink:href="#DejaVuSans-Bold-43"/>
     <use xlink:href="#DejaVuSans-Bold-6f" transform="translate(73.388672 0)"/>
     <use xlink:href="#DejaVuSans-Bold-6e" transform="translate(142.089844 0)"/>
     <use xlink:href="#DejaVuSans-Bold-74" transform="translate(213.28125 0)"/>
     <use xlink:href="#DejaVuSans-Bold-65" transform="translate(261.083984 0)"/>
     <use xlink:href="#DejaVuSans-Bold-6e" transform="translate(328.90625 0)"/>
     <use xlink:href="#DejaVuSans-Bold-74" transform="translate(400.097656 0)"/>
     <use xlink:href="#DejaVuSans-Bold-2d" transform="translate(447.900391 0)"/>
     <use xlink:href="#DejaVuSans-Bold-42" transform="translate(489.404297 0)"/>
     <use xlink:href="#DejaVuSans-Bold-61" transform="translate(565.625 0)"/>
     <use xlink:href="#DejaVuSans-Bold-73" transform="translate(633.105469 0)"/>
     <use xlink:href="#DejaVuSans-Bold-65" transform="translate(692.626953 0)"/>
     <use xlink:href="#DejaVuSans-Bold-64" transform="translate(760.449219 0)"/>
    </g>
    <!-- Filtering -->
    <g style="fill: #ffffff" transform="translate(79.233031 140.259219) scale(0.1 -0.1)">
     <defs>
      <path id="DejaVuSans-Bold-46" d="M 588 4666 
L 3834 4666 
L 3834 3756 
L 1791 3756 
L 1791 2888 
L 3713 2888 
L 3713 1978 
L 1791 1978 
L 1791 0 
L 588 0 
L 588 4666 
z
" transform="scale(0.015625)"/>
      <path id="DejaVuSans-Bold-69" d="M 538 3500 
L 1656 3500 
L 1656 0 
L 538 0 
L 538 3500 
z
M 538 4863 
L 1656 4863 
L 1656 3950 
L 538 3950 
L 538 4863 
z
" transform="scale(0.015625)"/>
      <path id="DejaVuSans-Bold-6c" d="M 538 4863 
L 1656 4863 
L 1656 0 
L 538 0 
L 538 4863 
z
" transform="scale(0.015625)"/>
      <path id="DejaVuSans-Bold-72" d="M 3138 2547 
Q 2991 2616 2845 2648 
Q 2700 2681 2553 2681 
Q 2122 2681 1889 2404 
Q 1656 2128 1656 1613 
L 1656 0 
L 538 0 
L 538 3500 
L 1656 3500 
L 1656 2925 
Q 1872 3269 2151 3426 
Q 2431 3584 2822 3584 
Q 2878 3584 2943 3579 
Q 3009 3575 3134 3559 
L 3138 2547 
z
" transform="scale(0.015625)"/>
      <path id="DejaVuSans-Bold-67" d="M 2919 594 
Q 2688 288 2409 144 
Q 2131 0 1766 0 
Q 1125 0 706 504 
Q 288 1009 288 1791 
Q 288 2575 706 3076 
Q 1125 3578 1766 3578 
Q 2131 3578 2409 3434 
Q 2688 3291 2919 2981 
L 2919 3500 
L 4044 3500 
L 4044 353 
Q 4044 -491 3511 -936 
Q 2978 -1381 1966 -1381 
Q 1638 -1381 1331 -1331 
Q 1025 -1281 716 -1178 
L 716 -306 
Q 1009 -475 1290 -558 
Q 1572 -641 1856 -641 
Q 2406 -641 2662 -400 
Q 2919 -159 2919 353 
L 2919 594 
z
M 2181 2772 
Q 1834 2772 1640 2515 
Q 1447 2259 1447 1791 
Q 1447 1309 1634 1061 
Q 1822 813 2181 813 
Q 2531 813 2725 1069 
Q 2919 1325 2919 1791 
Q 2919 2259 2725 2515 
Q 2531 2772 2181 2772 
z
" transform="scale(0.015625)"/>
     </defs>
     <use xlink:href="#DejaVuSans-Bold-46"/>
     <use xlink:href="#DejaVuSans-Bold-69" transform="translate(68.310547 0)"/>
     <use xlink:href="#DejaVuSans-Bold-6c" transform="translate(102.587891 0)"/>
     <use xlink:href="#DejaVuSans-Bold-74" transform="translate(136.865234 0)"/>
     <use xlink:href="#DejaVuSans-Bold-65" transform="translate(184.667969 0)"/>
     <use xlink:href="#DejaVuSans-Bold-72" transform="translate(252.490234 0)"/>
     <use xlink:href="#DejaVuSans-Bold-69" transform="translate(301.806641 0)"/>
     <use xlink:href="#DejaVuSans-Bold-6e" transform="translate(336.083984 0)"/>
     <use xlink:href="#DejaVuSans-Bold-67" transform="translate(407.275391 0)"/>
    </g>
   </g>
   <g id="text_2">
    <!-- Recommends items -->
    <g style="fill: #ffffff; opacity: 0.9" transform="translate(63.66475 180.62925) scale(0.08 -0.08)">
     <defs>
      <path id="DejaVuSans-52" d="M 2841 2188 
Q 3044 2119 3236 1894 
Q 3428 1669 3622 1275 
L 4263 0 
L 3584 0 
L 2988 1197 
Q 2756 1666 2539 1819 
Q 2322 1972 1947 1972 
L 1259 1972 
L 1259 0 
L 628 0 
L 628 4666 
L 2053 4666 
Q 2853 4666 3247 4331 
Q 3641 3997 3641 3322 
Q 3641 2881 3436 2590 
Q 3231 2300 2841 2188 
z
M 1259 4147 
L 1259 2491 
L 2053 2491 
Q 2509 2491 2742 2702 
Q 2975 2913 2975 3322 
Q 2975 3731 2742 3939 
Q 2509 4147 2053 4147 
L 1259 4147 
z
" transform="scale(0.015625)"/>
      <path id="DejaVuSans-65" d="M 3597 1894 
L 3597 1613 
L 953 1613 
Q 991 1019 1311 708 
Q 1631 397 2203 397 
Q 2534 397 2845 478 
Q 3156 559 3463 722 
L 3463 178 
Q 3153 47 2828 -22 
Q 2503 -91 2169 -91 
Q 1331 -91 842 396 
Q 353 884 353 1716 
Q 353 2575 817 3079 
Q 1281 3584 2069 3584 
Q 2775 3584 3186 3129 
Q 3597 2675 3597 1894 
z
M 3022 2063 
Q 3016 2534 2758 2815 
Q 2500 3097 2075 3097 
Q 1594 3097 1305 2825 
Q 1016 2553 972 2059 
L 3022 2063 
z
" transform="scale(0.015625)"/>
      <path id="DejaVuSans-63" d="M 3122 3366 
L 3122 2828 
Q 2878 2963 2633 3030 
Q 2388 3097 2138 3097 
Q 1578 3097 1268 2742 
Q 959 2388 959 1747 
Q 959 1106 1268 751 
Q 1578 397 2138 397 
Q 2388 397 2633 464 
Q 2878 531 3122 666 
L 3122 134 
Q 2881 22 2623 -34 
Q 2366 -91 2075 -91 
Q 1284 -91 818 406 
Q 353 903 353 1747 
Q 353 2603 823 3093 
Q 1294 3584 2113 3584 
Q 2378 3584 2631 3529 
Q 2884 3475 3122 3366 
z
" transform="scale(0.015625)"/>
      <path id="DejaVuSans-6f" d="M 1959 3097 
Q 1497 3097 1228 2736 
Q 959 2375 959 1747 
Q 959 1119 1226 758 
Q 1494 397 1959 397 
Q 2419 397 2687 759 
Q 2956 1122 2956 1747 
Q 2956 2369 2687 2733 
Q 2419 3097 1959 3097 
z
M 1959 3584 
Q 2709 3584 3137 3096 
Q 3566 2609 3566 1747 
Q 3566 888 3137 398 
Q 2709 -91 1959 -91 
Q 1206 -91 779 398 
Q 353 888 353 1747 
Q 353 2609 779 3096 
Q 1206 3584 1959 3584 
z
" transform="scale(0.015625)"/>
      <path id="DejaVuSans-6d" d="M 3328 2828 
Q 3544 3216 3844 3400 
Q 4144 3584 4550 3584 
Q 5097 3584 5394 3201 
Q 5691 2819 5691 2113 
L 5691 0 
L 5113 0 
L 5113 2094 
Q 5113 2597 4934 2840 
Q 4756 3084 4391 3084 
Q 3944 3084 3684 2787 
Q 3425 2491 3425 1978 
L 3425 0 
L 2847 0 
L 2847 2094 
Q 2847 2600 2669 2842 
Q 2491 3084 2119 3084 
Q 1678 3084 1418 2786 
Q 1159 2488 1159 1978 
L 1159 0 
L 581 0 
L 581 3500 
L 1159 3500 
L 1159 2956 
Q 1356 3278 1631 3431 
Q 1906 3584 2284 3584 
Q 2666 3584 2933 3390 
Q 3200 3197 3328 2828 
z
" transform="scale(0.015625)"/>
      <path id="DejaVuSans-6e" d="M 3513 2113 
L 3513 0 
L 2938 0 
L 2938 2094 
Q 2938 2591 2744 2837 
Q 2550 3084 2163 3084 
Q 1697 3084 1428 2787 
Q 1159 2491 1159 1978 
L 1159 0 
L 581 0 
L 581 3500 
L 1159 3500 
L 1159 2956 
Q 1366 3272 1645 3428 
Q 1925 3584 2291 3584 
Q 2894 3584 3203 3211 
Q 3513 2838 3513 2113 
z
" transform="scale(0.015625)"/>
      <path id="DejaVuSans-64" d="M 2906 2969 
L 2906 4863 
L 3481 4863 
L 3481 0 
L 2906 0 
L 2906 525 
Q 2725 213 2448 61 
Q 2172 -91 1784 -91 
Q 1150 -91 751 415 
Q 353 922 353 1747 
Q 353 2572 751 3078 
Q 1150 3584 1784 3584 
Q 2172 3584 2448 3432 
Q 2725 3281 2906 2969 
z
M 947 1747 
Q 947 1113 1208 752 
Q 1469 391 1925 391 
Q 2381 391 2643 752 
Q 2906 1113 2906 1747 
Q 2906 2381 2643 2742 
Q 2381 3103 1925 3103 
Q 1469 3103 1208 2742 
Q 947 2381 947 1747 
z
" transform="scale(0.015625)"/>
      <path id="DejaVuSans-73" d="M 2834 3397 
L 2834 2853 
Q 2591 2978 2328 3040 
Q 2066 3103 1784 3103 
Q 1356 3103 1142 2972 
Q 928 2841 928 2578 
Q 928 2378 1081 2264 
Q 1234 2150 1697 2047 
L 1894 2003 
Q 2506 1872 2764 1633 
Q 3022 1394 3022 966 
Q 3022 478 2636 193 
Q 2250 -91 1575 -91 
Q 1294 -91 989 -36 
Q 684 19 347 128 
L 347 722 
Q 666 556 975 473 
Q 1284 391 1588 391 
Q 1994 391 2212 530 
Q 2431 669 2431 922 
Q 2431 1156 2273 1281 
Q 2116 1406 1581 1522 
L 1381 1569 
Q 847 1681 609 1914 
Q 372 2147 372 2553 
Q 372 3047 722 3315 
Q 1072 3584 1716 3584 
Q 2034 3584 2315 3537 
Q 2597 3491 2834 3397 
z
" transform="scale(0.015625)"/>
      <path id="DejaVuSans-20" transform="scale(0.015625)"/>
      <path id="DejaVuSans-69" d="M 603 3500 
L 1178 3500 
L 1178 0 
L 603 0 
L 603 3500 
z
M 603 4863 
L 1178 4863 
L 1178 4134 
L 603 4134 
L 603 4863 
z
" transform="scale(0.015625)"/>
      <path id="DejaVuSans-74" d="M 1172 4494 
L 1172 3500 
L 2356 3500 
L 2356 3053 
L 1172 3053 
L 1172 1153 
Q 1172 725 1289 603 
Q 1406 481 1766 481 
L 2356 481 
L 2356 0 
L 1766 0 
Q 1100 0 847 248 
Q 594 497 594 1153 
L 594 3053 
L 172 3053 
L 172 3500 
L 594 3500 
L 594 4494 
L 1172 4494 
z
" transform="scale(0.015625)"/>
     </defs>
     <use xlink:href="#DejaVuSans-52"/>
     <use xlink:href="#DejaVuSans-65" transform="translate(64.982422 0)"/>
     <use xlink:href="#DejaVuSans-63" transform="translate(126.505859 0)"/>
     <use xlink:href="#DejaVuSans-6f" transform="translate(181.486328 0)"/>
     <use xlink:href="#DejaVuSans-6d" transform="translate(242.667969 0)"/>
     <use xlink:href="#DejaVuSans-6d" transform="translate(340.080078 0)"/>
     <use xlink:href="#DejaVuSans-65" transform="translate(437.492188 0)"/>
     <use xlink:href="#DejaVuSans-6e" transform="translate(499.015625 0)"/>
     <use xlink:href="#DejaVuSans-64" transform="translate(562.394531 0)"/>
     <use xlink:href="#DejaVuSans-73" transform="translate(625.871094 0)"/>
     <use xlink:href="#DejaVuSans-20" transform="translate(677.970703 0)"/>
     <use xlink:href="#DejaVuSans-69" transform="translate(709.757812 0)"/>
     <use xlink:href="#DejaVuSans-74" transform="translate(737.541016 0)"/>
     <use xlink:href="#DejaVuSans-65" transform="translate(776.75 0)"/>
     <use xlink:href="#DejaVuSans-6d" transform="translate(838.273438 0)"/>
     <use xlink:href="#DejaVuSans-73" transform="translate(935.685547 0)"/>
    </g>
    <!-- similar to what -->
    <g style="fill: #ffffff; opacity: 0.9" transform="translate(73.382875 189.5875) scale(0.08 -0.08)">
     <defs>
      <path id="DejaVuSans-6c" d="M 603 4863 
L 1178 4863 
L 1178 0 
L 603 0 
L 603 4863 
z
" transform="scale(0.015625)"/>
      <path id="DejaVuSans-61" d="M 2194 1759 
Q 1497 1759 1228 1600 
Q 959 1441 959 1056 
Q 959 750 1161 570 
Q 1363 391 1709 391 
Q 2188 391 2477 730 
Q 2766 1069 2766 1631 
L 2766 1759 
L 2194 1759 
z
M 3341 1997 
L 3341 0 
L 2766 0 
L 2766 531 
Q 2569 213 2275 61 
Q 1981 -91 1556 -91 
Q 1019 -91 701 211 
Q 384 513 384 1019 
Q 384 1609 779 1909 
Q 1175 2209 1959 2209 
L 2766 2209 
L 2766 2266 
Q 2766 2663 2505 2880 
Q 2244 3097 1772 3097 
Q 1472 3097 1187 3025 
Q 903 2953 641 2809 
L 641 3341 
Q 956 3463 1253 3523 
Q 1550 3584 1831 3584 
Q 2591 3584 2966 3190 
Q 3341 2797 3341 1997 
z
" transform="scale(0.015625)"/>
      <path id="DejaVuSans-72" d="M 2631 2963 
Q 2534 3019 2420 3045 
Q 2306 3072 2169 3072 
Q 1681 3072 1420 2755 
Q 1159 2438 1159 1844 
L 1159 0 
L 581 0 
L 581 3500 
L 1159 3500 
L 1159 2956 
Q 1341 3275 1631 3429 
Q 1922 3584 2338 3584 
Q 2397 3584 2469 3576 
Q 2541 3569 2628 3553 
L 2631 2963 
z
" transform="scale(0.015625)"/>
      <path id="DejaVuSans-77" d="M 269 3500 
L 844 3500 
L 1563 769 
L 2278 3500 
L 2956 3500 
L 3675 769 
L 4391 3500 
L 4966 3500 
L 4050 0 
L 3372 0 
L 2619 2869 
L 1863 0 
L 1184 0 
L 269 3500 
z
" transform="scale(0.015625)"/>
      <path id="DejaVuSans-68" d="M 3513 2113 
L 3513 0 
L 2938 0 
L 2938 2094 
Q 2938 2591 2744 2837 
Q 2550 3084 2163 3084 
Q 1697 3084 1428 2787 
Q 1159 2491 1159 1978 
L 1159 0 
L 581 0 
L 581 4863 
L 1159 4863 
L 1159 2956 
Q 1366 3272 1645 3428 
Q 1925 3584 2291 3584 
Q 2894 3584 3203 3211 
Q 3513 2838 3513 2113 
z
" transform="scale(0.015625)"/>
     </defs>
     <use xlink:href="#DejaVuSans-73"/>
     <use xlink:href="#DejaVuSans-69" transform="translate(52.099609 0)"/>
     <use xlink:href="#DejaVuSans-6d" transform="translate(79.882812 0)"/>
     <use xlink:href="#DejaVuSans-69" transform="translate(177.294922 0)"/>
     <use xlink:href="#DejaVuSans-6c" transform="translate(205.078125 0)"/>
     <use xlink:href="#DejaVuSans-61" transform="translate(232.861328 0)"/>
     <use xlink:href="#DejaVuSans-72" transform="translate(294.140625 0)"/>
     <use xlink:href="#DejaVuSans-20" transform="translate(335.253906 0)"/>
     <use xlink:href="#DejaVuSans-74" transform="translate(367.041016 0)"/>
     <use xlink:href="#DejaVuSans-6f" transform="translate(406.25 0)"/>
     <use xlink:href="#DejaVuSans-20" transform="translate(467.431641 0)"/>
     <use xlink:href="#DejaVuSans-77" transform="translate(499.21875 0)"/>
     <use xlink:href="#DejaVuSans-68" transform="translate(581.005859 0)"/>
     <use xlink:href="#DejaVuSans-61" transform="translate(644.384766 0)"/>
     <use xlink:href="#DejaVuSans-74" transform="translate(705.664062 0)"/>
    </g>
    <!-- the user liked before -->
    <g style="fill: #ffffff; opacity: 0.9" transform="translate(61.80725 198.54575) scale(0.08 -0.08)">
     <defs>
      <path id="DejaVuSans-75" d="M 544 1381 
L 544 3500 
L 1119 3500 
L 1119 1403 
Q 1119 906 1312 657 
Q 1506 409 1894 409 
Q 2359 409 2629 706 
Q 2900 1003 2900 1516 
L 2900 3500 
L 3475 3500 
L 3475 0 
L 2900 0 
L 2900 538 
Q 2691 219 2414 64 
Q 2138 -91 1772 -91 
Q 1169 -91 856 284 
Q 544 659 544 1381 
z
M 1991 3584 
L 1991 3584 
z
" transform="scale(0.015625)"/>
      <path id="DejaVuSans-6b" d="M 581 4863 
L 1159 4863 
L 1159 1991 
L 2875 3500 
L 3609 3500 
L 1753 1863 
L 3688 0 
L 2938 0 
L 1159 1709 
L 1159 0 
L 581 0 
L 581 4863 
z
" transform="scale(0.015625)"/>
      <path id="DejaVuSans-62" d="M 3116 1747 
Q 3116 2381 2855 2742 
Q 2594 3103 2138 3103 
Q 1681 3103 1420 2742 
Q 1159 2381 1159 1747 
Q 1159 1113 1420 752 
Q 1681 391 2138 391 
Q 2594 391 2855 752 
Q 3116 1113 3116 1747 
z
M 1159 2969 
Q 1341 3281 1617 3432 
Q 1894 3584 2278 3584 
Q 2916 3584 3314 3078 
Q 3713 2572 3713 1747 
Q 3713 922 3314 415 
Q 2916 -91 2278 -91 
Q 1894 -91 1617 61 
Q 1341 213 1159 525 
L 1159 0 
L 581 0 
L 581 4863 
L 1159 4863 
L 1159 2969 
z
" transform="scale(0.015625)"/>
      <path id="DejaVuSans-66" d="M 2375 4863 
L 2375 4384 
L 1825 4384 
Q 1516 4384 1395 4259 
Q 1275 4134 1275 3809 
L 1275 3500 
L 2222 3500 
L 2222 3053 
L 1275 3053 
L 1275 0 
L 697 0 
L 697 3053 
L 147 3053 
L 147 3500 
L 697 3500 
L 697 3744 
Q 697 4328 969 4595 
Q 1241 4863 1831 4863 
L 2375 4863 
z
" transform="scale(0.015625)"/>
     </defs>
     <use xlink:href="#DejaVuSans-74"/>
     <use xlink:href="#DejaVuSans-68" transform="translate(39.208984 0)"/>
     <use xlink:href="#DejaVuSans-65" transform="translate(102.587891 0)"/>
     <use xlink:href="#DejaVuSans-20" transform="translate(164.111328 0)"/>
     <use xlink:href="#DejaVuSans-75" transform="translate(195.898438 0)"/>
     <use xlink:href="#DejaVuSans-73" transform="translate(259.277344 0)"/>
     <use xlink:href="#DejaVuSans-65" transform="translate(311.376953 0)"/>
     <use xlink:href="#DejaVuSans-72" transform="translate(372.900391 0)"/>
     <use xlink:href="#DejaVuSans-20" transform="translate(414.013672 0)"/>
     <use xlink:href="#DejaVuSans-6c" transform="translate(445.800781 0)"/>
     <use xlink:href="#DejaVuSans-69" transform="translate(473.583984 0)"/>
     <use xlink:href="#DejaVuSans-6b" transform="translate(501.367188 0)"/>
     <use xlink:href="#DejaVuSans-65" transform="translate(555.652344 0)"/>
     <use xlink:href="#DejaVuSans-64" transform="translate(617.175781 0)"/>
     <use xlink:href="#DejaVuSans-20" transform="translate(680.652344 0)"/>
     <use xlink:href="#DejaVuSans-62" transform="translate(712.439453 0)"/>
     <use xlink:href="#DejaVuSans-65" transform="translate(775.916016 0)"/>
     <use xlink:href="#DejaVuSans-66" transform="translate(837.439453 0)"/>
     <use xlink:href="#DejaVuSans-6f" transform="translate(872.644531 0)"/>
     <use xlink:href="#DejaVuSans-72" transform="translate(933.826172 0)"/>
     <use xlink:href="#DejaVuSans-65" transform="translate(972.689453 0)"/>
    </g>
   </g>
   <g id="text_3">
    <!-- Collaborative -->
    <g style="fill: #ffffff" transform="translate(199.580375 129.061406) scale(0.1 -0.1)">
     <defs>
      <path id="DejaVuSans-Bold-62" d="M 2400 722 
Q 2759 722 2948 984 
Q 3138 1247 3138 1747 
Q 3138 2247 2948 2509 
Q 2759 2772 2400 2772 
Q 2041 2772 1848 2508 
Q 1656 2244 1656 1747 
Q 1656 1250 1848 986 
Q 2041 722 2400 722 
z
M 1656 2988 
Q 1888 3294 2169 3439 
Q 2450 3584 2816 3584 
Q 3463 3584 3878 3070 
Q 4294 2556 4294 1747 
Q 4294 938 3878 423 
Q 3463 -91 2816 -91 
Q 2450 -91 2169 54 
Q 1888 200 1656 506 
L 1656 0 
L 538 0 
L 538 4863 
L 1656 4863 
L 1656 2988 
z
" transform="scale(0.015625)"/>
      <path id="DejaVuSans-Bold-76" d="M 97 3500 
L 1216 3500 
L 2088 1081 
L 2956 3500 
L 4078 3500 
L 2700 0 
L 1472 0 
L 97 3500 
z
" transform="scale(0.015625)"/>
     </defs>
     <use xlink:href="#DejaVuSans-Bold-43"/>
     <use xlink:href="#DejaVuSans-Bold-6f" transform="translate(73.388672 0)"/>
     <use xlink:href="#DejaVuSans-Bold-6c" transform="translate(142.089844 0)"/>
     <use xlink:href="#DejaVuSans-Bold-6c" transform="translate(176.367188 0)"/>
     <use xlink:href="#DejaVuSans-Bold-61" transform="translate(210.644531 0)"/>
     <use xlink:href="#DejaVuSans-Bold-62" transform="translate(278.125 0)"/>
     <use xlink:href="#DejaVuSans-Bold-6f" transform="translate(349.707031 0)"/>
     <use xlink:href="#DejaVuSans-Bold-72" transform="translate(418.408203 0)"/>
     <use xlink:href="#DejaVuSans-Bold-61" transform="translate(467.724609 0)"/>
     <use xlink:href="#DejaVuSans-Bold-74" transform="translate(535.205078 0)"/>
     <use xlink:href="#DejaVuSans-Bold-69" transform="translate(583.007812 0)"/>
     <use xlink:href="#DejaVuSans-Bold-76" transform="translate(617.285156 0)"/>
     <use xlink:href="#DejaVuSans-Bold-65" transform="translate(682.470703 0)"/>
    </g>
    <!-- Filtering -->
    <g style="fill: #ffffff" transform="translate(213.153031 140.259219) scale(0.1 -0.1)">
     <use xlink:href="#DejaVuSans-Bold-46"/>
     <use xlink:href="#DejaVuSans-Bold-69" transform="translate(68.310547 0)"/>
     <use xlink:href="#DejaVuSans-Bold-6c" transform="translate(102.587891 0)"/>
     <use xlink:href="#DejaVuSans-Bold-74" transform="translate(136.865234 0)"/>
     <use xlink:href="#DejaVuSans-Bold-65" transform="translate(184.667969 0)"/>
     <use xlink:href="#DejaVuSans-Bold-72" transform="translate(252.490234 0)"/>
     <use xlink:href="#DejaVuSans-Bold-69" transform="translate(301.806641 0)"/>
     <use xlink:href="#DejaVuSans-Bold-6e" transform="translate(336.083984 0)"/>
     <use xlink:href="#DejaVuSans-Bold-67" transform="translate(407.275391 0)"/>
    </g>
   </g>
   <g id="text_4">
    <!-- Recommends items -->
    <g style="fill: #ffffff; opacity: 0.9" transform="translate(197.58475 180.62925) scale(0.08 -0.08)">
     <use xlink:href="#DejaVuSans-52"/>
     <use xlink:href="#DejaVuSans-65" transform="translate(64.982422 0)"/>
     <use xlink:href="#DejaVuSans-63" transform="translate(126.505859 0)"/>
     <use xlink:href="#DejaVuSans-6f" transform="translate(181.486328 0)"/>
     <use xlink:href="#DejaVuSans-6d" transform="translate(242.667969 0)"/>
     <use xlink:href="#DejaVuSans-6d" transform="translate(340.080078 0)"/>
     <use xlink:href="#DejaVuSans-65" transform="translate(437.492188 0)"/>
     <use xlink:href="#DejaVuSans-6e" transform="translate(499.015625 0)"/>
     <use xlink:href="#DejaVuSans-64" transform="translate(562.394531 0)"/>
     <use xlink:href="#DejaVuSans-73" transform="translate(625.871094 0)"/>
     <use xlink:href="#DejaVuSans-20" transform="translate(677.970703 0)"/>
     <use xlink:href="#DejaVuSans-69" transform="translate(709.757812 0)"/>
     <use xlink:href="#DejaVuSans-74" transform="translate(737.541016 0)"/>
     <use xlink:href="#DejaVuSans-65" transform="translate(776.75 0)"/>
     <use xlink:href="#DejaVuSans-6d" transform="translate(838.273438 0)"/>
     <use xlink:href="#DejaVuSans-73" transform="translate(935.685547 0)"/>
    </g>
    <!-- liked by similar -->
    <g style="fill: #ffffff; opacity: 0.9" transform="translate(206.842875 189.5875) scale(0.08 -0.08)">
     <defs>
      <path id="DejaVuSans-79" d="M 2059 -325 
Q 1816 -950 1584 -1140 
Q 1353 -1331 966 -1331 
L 506 -1331 
L 506 -850 
L 844 -850 
Q 1081 -850 1212 -737 
Q 1344 -625 1503 -206 
L 1606 56 
L 191 3500 
L 800 3500 
L 1894 763 
L 2988 3500 
L 3597 3500 
L 2059 -325 
z
" transform="scale(0.015625)"/>
     </defs>
     <use xlink:href="#DejaVuSans-6c"/>
     <use xlink:href="#DejaVuSans-69" transform="translate(27.783203 0)"/>
     <use xlink:href="#DejaVuSans-6b" transform="translate(55.566406 0)"/>
     <use xlink:href="#DejaVuSans-65" transform="translate(109.851562 0)"/>
     <use xlink:href="#DejaVuSans-64" transform="translate(171.375 0)"/>
     <use xlink:href="#DejaVuSans-20" transform="translate(234.851562 0)"/>
     <use xlink:href="#DejaVuSans-62" transform="translate(266.638672 0)"/>
     <use xlink:href="#DejaVuSans-79" transform="translate(330.115234 0)"/>
     <use xlink:href="#DejaVuSans-20" transform="translate(389.294922 0)"/>
     <use xlink:href="#DejaVuSans-73" transform="translate(421.082031 0)"/>
     <use xlink:href="#DejaVuSans-69" transform="translate(473.181641 0)"/>
     <use xlink:href="#DejaVuSans-6d" transform="translate(500.964844 0)"/>
     <use xlink:href="#DejaVuSans-69" transform="translate(598.376953 0)"/>
     <use xlink:href="#DejaVuSans-6c" transform="translate(626.160156 0)"/>
     <use xlink:href="#DejaVuSans-61" transform="translate(653.943359 0)"/>
     <use xlink:href="#DejaVuSans-72" transform="translate(715.222656 0)"/>
    </g>
    <!-- users -->
    <g style="fill: #ffffff; opacity: 0.9" transform="translate(226.287875 198.54575) scale(0.08 -0.08)">
     <use xlink:href="#DejaVuSans-75"/>
     <use xlink:href="#DejaVuSans-73" transform="translate(63.378906 0)"/>
     <use xlink:href="#DejaVuSans-65" transform="translate(115.478516 0)"/>
     <use xlink:href="#DejaVuSans-72" transform="translate(177.001953 0)"/>
     <use xlink:href="#DejaVuSans-73" transform="translate(218.115234 0)"/>
    </g>
   </g>
   <g id="text_5">
    <!-- Hybrid -->
    <g style="fill: #ffffff" transform="translate(352.23475 129.061406) scale(0.1 -0.1)">
     <defs>
      <path id="DejaVuSans-Bold-48" d="M 588 4666 
L 1791 4666 
L 1791 2888 
L 3566 2888 
L 3566 4666 
L 4769 4666 
L 4769 0 
L 3566 0 
L 3566 1978 
L 1791 1978 
L 1791 0 
L 588 0 
L 588 4666 
z
" transform="scale(0.015625)"/>
      <path id="DejaVuSans-Bold-79" d="M 78 3500 
L 1197 3500 
L 2138 1125 
L 2938 3500 
L 4056 3500 
L 2584 -331 
Q 2363 -916 2067 -1148 
Q 1772 -1381 1288 -1381 
L 641 -1381 
L 641 -647 
L 991 -647 
Q 1275 -647 1404 -556 
Q 1534 -466 1606 -231 
L 1638 -134 
L 78 3500 
z
" transform="scale(0.015625)"/>
     </defs>
     <use xlink:href="#DejaVuSans-Bold-48"/>
     <use xlink:href="#DejaVuSans-Bold-79" transform="translate(83.691406 0)"/>
     <use xlink:href="#DejaVuSans-Bold-62" transform="translate(148.876953 0)"/>
     <use xlink:href="#DejaVuSans-Bold-72" transform="translate(220.458984 0)"/>
     <use xlink:href="#DejaVuSans-Bold-69" transform="translate(269.775391 0)"/>
     <use xlink:href="#DejaVuSans-Bold-64" transform="translate(304.052734 0)"/>
    </g>
    <!-- Approach -->
    <g style="fill: #ffffff" transform="translate(344.190219 140.337344) scale(0.1 -0.1)">
     <defs>
      <path id="DejaVuSans-Bold-41" d="M 3419 850 
L 1538 850 
L 1241 0 
L 31 0 
L 1759 4666 
L 3194 4666 
L 4922 0 
L 3713 0 
L 3419 850 
z
M 1838 1716 
L 3116 1716 
L 2478 3572 
L 1838 1716 
z
" transform="scale(0.015625)"/>
      <path id="DejaVuSans-Bold-70" d="M 1656 506 
L 1656 -1331 
L 538 -1331 
L 538 3500 
L 1656 3500 
L 1656 2988 
Q 1888 3294 2169 3439 
Q 2450 3584 2816 3584 
Q 3463 3584 3878 3070 
Q 4294 2556 4294 1747 
Q 4294 938 3878 423 
Q 3463 -91 2816 -91 
Q 2450 -91 2169 54 
Q 1888 200 1656 506 
z
M 2400 2772 
Q 2041 2772 1848 2508 
Q 1656 2244 1656 1747 
Q 1656 1250 1848 986 
Q 2041 722 2400 722 
Q 2759 722 2948 984 
Q 3138 1247 3138 1747 
Q 3138 2247 2948 2509 
Q 2759 2772 2400 2772 
z
" transform="scale(0.015625)"/>
      <path id="DejaVuSans-Bold-63" d="M 3366 3391 
L 3366 2478 
Q 3138 2634 2908 2709 
Q 2678 2784 2431 2784 
Q 1963 2784 1702 2511 
Q 1441 2238 1441 1747 
Q 1441 1256 1702 982 
Q 1963 709 2431 709 
Q 2694 709 2930 787 
Q 3166 866 3366 1019 
L 3366 103 
Q 3103 6 2833 -42 
Q 2563 -91 2291 -91 
Q 1344 -91 809 395 
Q 275 881 275 1747 
Q 275 2613 809 3098 
Q 1344 3584 2291 3584 
Q 2566 3584 2833 3536 
Q 3100 3488 3366 3391 
z
" transform="scale(0.015625)"/>
      <path id="DejaVuSans-Bold-68" d="M 4056 2131 
L 4056 0 
L 2931 0 
L 2931 347 
L 2931 1625 
Q 2931 2084 2911 2256 
Q 2891 2428 2841 2509 
Q 2775 2619 2662 2680 
Q 2550 2741 2406 2741 
Q 2056 2741 1856 2470 
Q 1656 2200 1656 1722 
L 1656 0 
L 538 0 
L 538 4863 
L 1656 4863 
L 1656 2988 
Q 1909 3294 2193 3439 
Q 2478 3584 2822 3584 
Q 3428 3584 3742 3212 
Q 4056 2841 4056 2131 
z
" transform="scale(0.015625)"/>
     </defs>
     <use xlink:href="#DejaVuSans-Bold-41"/>
     <use xlink:href="#DejaVuSans-Bold-70" transform="translate(77.392578 0)"/>
     <use xlink:href="#DejaVuSans-Bold-70" transform="translate(148.974609 0)"/>
     <use xlink:href="#DejaVuSans-Bold-72" transform="translate(220.556641 0)"/>
     <use xlink:href="#DejaVuSans-Bold-6f" transform="translate(269.873047 0)"/>
     <use xlink:href="#DejaVuSans-Bold-61" transform="translate(338.574219 0)"/>
     <use xlink:href="#DejaVuSans-Bold-63" transform="translate(406.054688 0)"/>
     <use xlink:href="#DejaVuSans-Bold-68" transform="translate(465.332031 0)"/>
    </g>
   </g>
   <g id="text_6">
    <!-- Combines both -->
    <g style="fill: #ffffff; opacity: 0.9" transform="translate(340.78725 180.62925) scale(0.08 -0.08)">
     <defs>
      <path id="DejaVuSans-43" d="M 4122 4306 
L 4122 3641 
Q 3803 3938 3442 4084 
Q 3081 4231 2675 4231 
Q 1875 4231 1450 3742 
Q 1025 3253 1025 2328 
Q 1025 1406 1450 917 
Q 1875 428 2675 428 
Q 3081 428 3442 575 
Q 3803 722 4122 1019 
L 4122 359 
Q 3791 134 3420 21 
Q 3050 -91 2638 -91 
Q 1578 -91 968 557 
Q 359 1206 359 2328 
Q 359 3453 968 4101 
Q 1578 4750 2638 4750 
Q 3056 4750 3426 4639 
Q 3797 4528 4122 4306 
z
" transform="scale(0.015625)"/>
     </defs>
     <use xlink:href="#DejaVuSans-43"/>
     <use xlink:href="#DejaVuSans-6f" transform="translate(69.824219 0)"/>
     <use xlink:href="#DejaVuSans-6d" transform="translate(131.005859 0)"/>
     <use xlink:href="#DejaVuSans-62" transform="translate(228.417969 0)"/>
     <use xlink:href="#DejaVuSans-69" transform="translate(291.894531 0)"/>
     <use xlink:href="#DejaVuSans-6e" transform="translate(319.677734 0)"/>
     <use xlink:href="#DejaVuSans-65" transform="translate(383.056641 0)"/>
     <use xlink:href="#DejaVuSans-73" transform="translate(444.580078 0)"/>
     <use xlink:href="#DejaVuSans-20" transform="translate(496.679688 0)"/>
     <use xlink:href="#DejaVuSans-62" transform="translate(528.466797 0)"/>
     <use xlink:href="#DejaVuSans-6f" transform="translate(591.943359 0)"/>
     <use xlink:href="#DejaVuSans-74" transform="translate(653.125 0)"/>
     <use xlink:href="#DejaVuSans-68" transform="translate(692.333984 0)"/>
    </g>
    <!-- methods for -->
    <g style="fill: #ffffff; opacity: 0.9" transform="translate(346.7135 189.5875) scale(0.08 -0.08)">
     <use xlink:href="#DejaVuSans-6d"/>
     <use xlink:href="#DejaVuSans-65" transform="translate(97.412109 0)"/>
     <use xlink:href="#DejaVuSans-74" transform="translate(158.935547 0)"/>
     <use xlink:href="#DejaVuSans-68" transform="translate(198.144531 0)"/>
     <use xlink:href="#DejaVuSans-6f" transform="translate(261.523438 0)"/>
     <use xlink:href="#DejaVuSans-64" transform="translate(322.705078 0)"/>
     <use xlink:href="#DejaVuSans-73" transform="translate(386.181641 0)"/>
     <use xlink:href="#DejaVuSans-20" transform="translate(438.28125 0)"/>
     <use xlink:href="#DejaVuSans-66" transform="translate(470.068359 0)"/>
     <use xlink:href="#DejaVuSans-6f" transform="translate(505.273438 0)"/>
     <use xlink:href="#DejaVuSans-72" transform="translate(566.455078 0)"/>
    </g>
    <!-- better results -->
    <g style="fill: #ffffff; opacity: 0.9" transform="translate(344.10475 198.54575) scale(0.08 -0.08)">
     <use xlink:href="#DejaVuSans-62"/>
     <use xlink:href="#DejaVuSans-65" transform="translate(63.476562 0)"/>
     <use xlink:href="#DejaVuSans-74" transform="translate(125 0)"/>
     <use xlink:href="#DejaVuSans-74" transform="translate(164.208984 0)"/>
     <use xlink:href="#DejaVuSans-65" transform="translate(203.417969 0)"/>
     <use xlink:href="#DejaVuSans-72" transform="translate(264.941406 0)"/>
     <use xlink:href="#DejaVuSans-20" transform="translate(306.054688 0)"/>
     <use xlink:href="#DejaVuSans-72" transform="translate(337.841797 0)"/>
     <use xlink:href="#DejaVuSans-65" transform="translate(376.705078 0)"/>
     <use xlink:href="#DejaVuSans-73" transform="translate(438.228516 0)"/>
     <use xlink:href="#DejaVuSans-75" transform="translate(490.328125 0)"/>
     <use xlink:href="#DejaVuSans-6c" transform="translate(553.707031 0)"/>
     <use xlink:href="#DejaVuSans-74" transform="translate(581.490234 0)"/>
     <use xlink:href="#DejaVuSans-73" transform="translate(620.699219 0)"/>
    </g>
   </g>
   <g id="text_7">
    <!-- Recommendation System Approaches -->
    <g transform="translate(91.865703 34.92) scale(0.13 -0.13)">
     <defs>
      <path id="DejaVuSans-Bold-52" d="M 2297 2597 
Q 2675 2597 2839 2737 
Q 3003 2878 3003 3200 
Q 3003 3519 2839 3656 
Q 2675 3794 2297 3794 
L 1791 3794 
L 1791 2597 
L 2297 2597 
z
M 1791 1766 
L 1791 0 
L 588 0 
L 588 4666 
L 2425 4666 
Q 3347 4666 3776 4356 
Q 4206 4047 4206 3378 
Q 4206 2916 3982 2619 
Q 3759 2322 3309 2181 
Q 3556 2125 3751 1926 
Q 3947 1728 4147 1325 
L 4800 0 
L 3519 0 
L 2950 1159 
Q 2778 1509 2601 1637 
Q 2425 1766 2131 1766 
L 1791 1766 
z
" transform="scale(0.015625)"/>
      <path id="DejaVuSans-Bold-6d" d="M 3781 2919 
Q 3994 3244 4286 3414 
Q 4578 3584 4928 3584 
Q 5531 3584 5847 3212 
Q 6163 2841 6163 2131 
L 6163 0 
L 5038 0 
L 5038 1825 
Q 5041 1866 5042 1909 
Q 5044 1953 5044 2034 
Q 5044 2406 4934 2573 
Q 4825 2741 4581 2741 
Q 4263 2741 4089 2478 
Q 3916 2216 3909 1719 
L 3909 0 
L 2784 0 
L 2784 1825 
Q 2784 2406 2684 2573 
Q 2584 2741 2328 2741 
Q 2006 2741 1831 2477 
Q 1656 2213 1656 1722 
L 1656 0 
L 531 0 
L 531 3500 
L 1656 3500 
L 1656 2988 
Q 1863 3284 2130 3434 
Q 2397 3584 2719 3584 
Q 3081 3584 3359 3409 
Q 3638 3234 3781 2919 
z
" transform="scale(0.015625)"/>
      <path id="DejaVuSans-Bold-20" transform="scale(0.015625)"/>
      <path id="DejaVuSans-Bold-53" d="M 3834 4519 
L 3834 3531 
Q 3450 3703 3084 3790 
Q 2719 3878 2394 3878 
Q 1963 3878 1756 3759 
Q 1550 3641 1550 3391 
Q 1550 3203 1689 3098 
Q 1828 2994 2194 2919 
L 2706 2816 
Q 3484 2659 3812 2340 
Q 4141 2022 4141 1434 
Q 4141 663 3683 286 
Q 3225 -91 2284 -91 
Q 1841 -91 1394 -6 
Q 947 78 500 244 
L 500 1259 
Q 947 1022 1364 901 
Q 1781 781 2169 781 
Q 2563 781 2772 912 
Q 2981 1044 2981 1288 
Q 2981 1506 2839 1625 
Q 2697 1744 2272 1838 
L 1806 1941 
Q 1106 2091 782 2419 
Q 459 2747 459 3303 
Q 459 4000 909 4375 
Q 1359 4750 2203 4750 
Q 2588 4750 2994 4692 
Q 3400 4634 3834 4519 
z
" transform="scale(0.015625)"/>
     </defs>
     <use xlink:href="#DejaVuSans-Bold-52"/>
     <use xlink:href="#DejaVuSans-Bold-65" transform="translate(77.001953 0)"/>
     <use xlink:href="#DejaVuSans-Bold-63" transform="translate(144.824219 0)"/>
     <use xlink:href="#DejaVuSans-Bold-6f" transform="translate(204.101562 0)"/>
     <use xlink:href="#DejaVuSans-Bold-6d" transform="translate(272.802734 0)"/>
     <use xlink:href="#DejaVuSans-Bold-6d" transform="translate(377.001953 0)"/>
     <use xlink:href="#DejaVuSans-Bold-65" transform="translate(481.201172 0)"/>
     <use xlink:href="#DejaVuSans-Bold-6e" transform="translate(549.023438 0)"/>
     <use xlink:href="#DejaVuSans-Bold-64" transform="translate(620.214844 0)"/>
     <use xlink:href="#DejaVuSans-Bold-61" transform="translate(691.796875 0)"/>
     <use xlink:href="#DejaVuSans-Bold-74" transform="translate(759.277344 0)"/>
     <use xlink:href="#DejaVuSans-Bold-69" transform="translate(807.080078 0)"/>
     <use xlink:href="#DejaVuSans-Bold-6f" transform="translate(841.357422 0)"/>
     <use xlink:href="#DejaVuSans-Bold-6e" transform="translate(910.058594 0)"/>
     <use xlink:href="#DejaVuSans-Bold-20" transform="translate(981.25 0)"/>
     <use xlink:href="#DejaVuSans-Bold-53" transform="translate(1016.064453 0)"/>
     <use xlink:href="#DejaVuSans-Bold-79" transform="translate(1088.085938 0)"/>
     <use xlink:href="#DejaVuSans-Bold-73" transform="translate(1153.271484 0)"/>
     <use xlink:href="#DejaVuSans-Bold-74" transform="translate(1212.792969 0)"/>
     <use xlink:href="#DejaVuSans-Bold-65" transform="translate(1260.595703 0)"/>
     <use xlink:href="#DejaVuSans-Bold-6d" transform="translate(1328.417969 0)"/>
     <use xlink:href="#DejaVuSans-Bold-20" transform="translate(1432.617188 0)"/>
     <use xlink:href="#DejaVuSans-Bold-41" transform="translate(1467.431641 0)"/>
     <use xlink:href="#DejaVuSans-Bold-70" transform="translate(1544.824219 0)"/>
     <use xlink:href="#DejaVuSans-Bold-70" transform="translate(1616.40625 0)"/>
     <use xlink:href="#DejaVuSans-Bold-72" transform="translate(1687.988281 0)"/>
     <use xlink:href="#DejaVuSans-Bold-6f" transform="translate(1737.304688 0)"/>
     <use xlink:href="#DejaVuSans-Bold-61" transform="translate(1806.005859 0)"/>
     <use xlink:href="#DejaVuSans-Bold-63" transform="translate(1873.486328 0)"/>
     <use xlink:href="#DejaVuSans-Bold-68" transform="translate(1932.763672 0)"/>
     <use xlink:href="#DejaVuSans-Bold-65" transform="translate(2003.955078 0)"/>
     <use xlink:href="#DejaVuSans-Bold-73" transform="translate(2071.777344 0)"/>
    </g>
   </g>
  </g>
 </g>
 <defs>
  <clipPath id="p5cf9ce5f54">
   <rect x="7.2" y="7.2" width="446.4" height="277.2"/>
  </clipPath>
 </defs>
</svg>
