<?xml version="1.0" encoding="utf-8" standalone="no"?>
<!DOCTYPE svg PUBLIC "-//W3C//DTD SVG 1.1//EN"
  "http://www.w3.org/Graphics/SVG/1.1/DTD/svg11.dtd">
<svg xmlns:xlink="http://www.w3.org/1999/xlink" width="460.8pt" height="347.04pt" viewBox="0 0 460.8 347.04" xmlns="http://www.w3.org/2000/svg" version="1.1">
 <metadata>
  <rdf:RDF xmlns:dc="http://purl.org/dc/elements/1.1/" xmlns:cc="http://creativecommons.org/ns#" xmlns:rdf="http://www.w3.org/1999/02/22-rdf-syntax-ns#">
   <cc:Work>
    <dc:type rdf:resource="http://purl.org/dc/dcmitype/StillImage"/>
    <dc:date>2026-07-08T10:06:06.349502</dc:date>
    <dc:format>image/svg+xml</dc:format>
    <dc:creator>
     <cc:Agent>
      <dc:title>Matplotlib v3.10.1, https://matplotlib.org/</dc:title>
     </cc:Agent>
    </dc:creator>
   </cc:Work>
  </rdf:RDF>
 </metadata>
 <defs>
  <style type="text/css">*{stroke-linejoin: round; stroke-linecap: butt}</style>
 </defs>
 <g id="figure_1">
  <g id="patch_1">
   <path d="M 0 347.04 
L 460.8 347.04 
L 460.8 -0 
L 0 -0 
z
" style="fill: #ffffff"/>
  </g>
  <g id="axes_1">
   <g id="patch_2">
    <path d="M 78.218182 273.312 
C 81.446909 273.312 84.543831 271.559548 86.826885 268.4406 
C 89.10994 265.321652 90.392727 261.090858 90.392727 256.68 
C 90.392727 252.269142 89.10994 248.038348 86.826885 244.9194 
C 84.543831 241.800452 81.446909 240.048 78.218182 240.048 
C 74.989455 240.048 71.892533 241.800452 69.609478 244.9194 
C 67.326423 248.038348 66.043636 252.269142 66.043636 256.68 
C 66.043636 261.090858 67.326423 265.321652 69.609478 268.4406 
C 71.892533 271.559548 74.989455 273.312 78.218182 273.312 
z
" clip-path="url(#p64bd77eff4)" style="fill: #1e88e5; opacity: 0.85; stroke: #ffffff; stroke-width: 2; stroke-linejoin: miter"/>
   </g>
   <g id="patch_3">
    <path d="M 78.218182 217.872 
C 81.446909 217.872 84.543831 216.119548 86.826885 213.0006 
C 89.10994 209.881652 90.392727 205.650858 90.392727 201.24 
C 90.392727 196.829142 89.10994 192.598348 86.826885 189.4794 
C 84.543831 186.360452 81.446909 184.608 78.218182 184.608 
C 74.989455 184.608 71.892533 186.360452 69.609478 189.4794 
C 67.326423 192.598348 66.043636 196.829142 66.043636 201.24 
C 66.043636 205.650858 67.326423 209.881652 69.609478 213.0006 
C 71.892533 216.119548 74.989455 217.872 78.218182 217.872 
z
" clip-path="url(#p64bd77eff4)" style="fill: #1e88e5; opacity: 0.85; stroke: #ffffff; stroke-width: 2; stroke-linejoin: miter"/>
   </g>
   <g id="patch_4">
    <path d="M 78.218182 162.432 
C 81.446909 162.432 84.543831 160.679548 86.826885 157.5606 
C 89.10994 154.441652 90.392727 150.210858 90.392727 145.8 
C 90.392727 141.389142 89.10994 137.158348 86.826885 134.0394 
C 84.543831 130.920452 81.446909 129.168 78.218182 129.168 
C 74.989455 129.168 71.892533 130.920452 69.609478 134.0394 
C 67.326423 137.158348 66.043636 141.389142 66.043636 145.8 
C 66.043636 150.210858 67.326423 154.441652 69.609478 157.5606 
C 71.892533 160.679548 74.989455 162.432 78.218182 162.432 
z
" clip-path="url(#p64bd77eff4)" style="fill: #1e88e5; opacity: 0.85; stroke: #ffffff; stroke-width: 2; stroke-linejoin: miter"/>
   </g>
   <g id="patch_5">
    <path d="M 78.218182 106.992 
C 81.446909 106.992 84.543831 105.239548 86.826885 102.1206 
C 89.10994 99.001652 90.392727 94.770858 90.392727 90.36 
C 90.392727 85.949142 89.10994 81.718348 86.826885 78.5994 
C 84.543831 75.480452 81.446909 73.728 78.218182 73.728 
C 74.989455 73.728 71.892533 75.480452 69.609478 78.5994 
C 67.326423 81.718348 66.043636 85.949142 66.043636 90.36 
C 66.043636 94.770858 67.326423 99.001652 69.609478 102.1206 
C 71.892533 105.239548 74.989455 106.992 78.218182 106.992 
z
" clip-path="url(#p64bd77eff4)" style="fill: #1e88e5; opacity: 0.85; stroke: #ffffff; stroke-width: 2; stroke-linejoin: miter"/>
   </g>
   <g id="patch_6">
    <path d="M 230.4 301.032 
C 233.628727 301.032 236.725649 299.279548 239.008704 296.1606 
C 241.291759 293.041652 242.574545 288.810858 242.574545 284.4 
C 242.574545 279.989142 241.291759 275.758348 239.008704 272.6394 
C 236.725649 269.520452 233.628727 267.768 230.4 267.768 
C 227.171273 267.768 224.074351 269.520452 221.791296 272.6394 
C 219.508241 275.758348 218.225455 279.989142 218.225455 284.4 
C 218.225455 288.810858 219.508241 293.041652 221.791296 296.1606 
C 224.074351 299.279548 227.171273 301.032 230.4 301.032 
z
" clip-path="url(#p64bd77eff4)" style="fill: #43a047; opacity: 0.85; stroke: #ffffff; stroke-width: 2; stroke-linejoin: miter"/>
   </g>
   <g id="patch_7">
    <path d="M 230.4 245.592 
C 233.628727 245.592 236.725649 243.839548 239.008704 240.7206 
C 241.291759 237.601652 242.574545 233.370858 242.574545 228.96 
C 242.574545 224.549142 241.291759 220.318348 239.008704 217.1994 
C 236.725649 214.080452 233.628727 212.328 230.4 212.328 
C 227.171273 212.328 224.074351 214.080452 221.791296 217.1994 
C 219.508241 220.318348 218.225455 224.549142 218.225455 228.96 
C 218.225455 233.370858 219.508241 237.601652 221.791296 240.7206 
C 224.074351 243.839548 227.171273 245.592 230.4 245.592 
z
" clip-path="url(#p64bd77eff4)" style="fill: #43a047; opacity: 0.85; stroke: #ffffff; stroke-width: 2; stroke-linejoin: miter"/>
   </g>
   <g id="patch_8">
    <path d="M 230.4 190.152 
C 233.628727 190.152 236.725649 188.399548 239.008704 185.2806 
C 241.291759 182.161652 242.574545 177.930858 242.574545 173.52 
C 242.574545 169.109142 241.291759 164.878348 239.008704 161.7594 
C 236.725649 158.640452 233.628727 156.888 230.4 156.888 
C 227.171273 156.888 224.074351 158.640452 221.791296 161.7594 
C 219.508241 164.878348 218.225455 169.109142 218.225455 173.52 
C 218.225455 177.930858 219.508241 182.161652 221.791296 185.2806 
C 224.074351 188.399548 227.171273 190.152 230.4 190.152 
z
" clip-path="url(#p64bd77eff4)" style="fill: #43a047; opacity: 0.85; stroke: #ffffff; stroke-width: 2; stroke-linejoin: miter"/>
   </g>
   <g id="patch_9">
    <path d="M 230.4 134.712 
C 233.628727 134.712 236.725649 132.959548 239.008704 129.8406 
C 241.291759 126.721652 242.574545 122.490858 242.574545 118.08 
C 242.574545 113.669142 241.291759 109.438348 239.008704 106.3194 
C 236.725649 103.200452 233.628727 101.448 230.4 101.448 
C 227.171273 101.448 224.074351 103.200452 221.791296 106.3194 
C 219.508241 109.438348 218.225455 113.669142 218.225455 118.08 
C 218.225455 122.490858 219.508241 126.721652 221.791296 129.8406 
C 224.074351 132.959548 227.171273 134.712 230.4 134.712 
z
" clip-path="url(#p64bd77eff4)" style="fill: #43a047; opacity: 0.85; stroke: #ffffff; stroke-width: 2; stroke-linejoin: miter"/>
   </g>
   <g id="patch_10">
    <path d="M 230.4 79.272 
C 233.628727 79.272 236.725649 77.519548 239.008704 74.4006 
C 241.291759 71.281652 242.574545 67.050858 242.574545 62.64 
C 242.574545 58.229142 241.291759 53.998348 239.008704 50.8794 
C 236.725649 47.760452 233.628727 46.008 230.4 46.008 
C 227.171273 46.008 224.074351 47.760452 221.791296 50.8794 
C 219.508241 53.998348 218.225455 58.229142 218.225455 62.64 
C 218.225455 67.050858 219.508241 71.281652 221.791296 74.4006 
C 224.074351 77.519548 227.171273 79.272 230.4 79.272 
z
" clip-path="url(#p64bd77eff4)" style="fill: #43a047; opacity: 0.85; stroke: #ffffff; stroke-width: 2; stroke-linejoin: miter"/>
   </g>
   <g id="patch_11">
    <path d="M 382.581818 245.592 
C 385.810545 245.592 388.907467 243.839548 391.190522 240.7206 
C 393.473577 237.601652 394.756364 233.370858 394.756364 228.96 
C 394.756364 224.549142 393.473577 220.318348 391.190522 217.1994 
C 388.907467 214.080452 385.810545 212.328 382.581818 212.328 
C 379.353091 212.328 376.256169 214.080452 373.973115 217.1994 
C 371.69006 220.318348 370.407273 224.549142 370.407273 228.96 
C 370.407273 233.370858 371.69006 237.601652 373.973115 240.7206 
C 376.256169 243.839548 379.353091 245.592 382.581818 245.592 
z
" clip-path="url(#p64bd77eff4)" style="fill: #e53935; opacity: 0.85; stroke: #ffffff; stroke-width: 2; stroke-linejoin: miter"/>
   </g>
   <g id="patch_12">
    <path d="M 382.581818 190.152 
C 385.810545 190.152 388.907467 188.399548 391.190522 185.2806 
C 393.473577 182.161652 394.756364 177.930858 394.756364 173.52 
C 394.756364 169.109142 393.473577 164.878348 391.190522 161.7594 
C 388.907467 158.640452 385.810545 156.888 382.581818 156.888 
C 379.353091 156.888 376.256169 158.640452 373.973115 161.7594 
C 371.69006 164.878348 370.407273 169.109142 370.407273 173.52 
C 370.407273 177.930858 371.69006 182.161652 373.973115 185.2806 
C 376.256169 188.399548 379.353091 190.152 382.581818 190.152 
z
" clip-path="url(#p64bd77eff4)" style="fill: #e53935; opacity: 0.85; stroke: #ffffff; stroke-width: 2; stroke-linejoin: miter"/>
   </g>
   <g id="patch_13">
    <path d="M 382.581818 134.712 
C 385.810545 134.712 388.907467 132.959548 391.190522 129.8406 
C 393.473577 126.721652 394.756364 122.490858 394.756364 118.08 
C 394.756364 113.669142 393.473577 109.438348 391.190522 106.3194 
C 388.907467 103.200452 385.810545 101.448 382.581818 101.448 
C 379.353091 101.448 376.256169 103.200452 373.973115 106.3194 
C 371.69006 109.438348 370.407273 113.669142 370.407273 118.08 
C 370.407273 122.490858 371.69006 126.721652 373.973115 129.8406 
C 376.256169 132.959548 379.353091 134.712 382.581818 134.712 
z
" clip-path="url(#p64bd77eff4)" style="fill: #e53935; opacity: 0.85; stroke: #ffffff; stroke-width: 2; stroke-linejoin: miter"/>
   </g>
   <g id="line2d_1">
    <path d="M 78.218182 256.68 
L 230.4 284.4 
" clip-path="url(#p64bd77eff4)" style="fill: none; stroke: #808080; stroke-opacity: 0.3; stroke-width: 0.3; stroke-linecap: square"/>
   </g>
   <g id="line2d_2">
    <path d="M 78.218182 256.68 
L 230.4 228.96 
" clip-path="url(#p64bd77eff4)" style="fill: none; stroke: #808080; stroke-opacity: 0.3; stroke-width: 0.3; stroke-linecap: square"/>
   </g>
   <g id="line2d_3">
    <path d="M 78.218182 256.68 
L 230.4 173.52 
" clip-path="url(#p64bd77eff4)" style="fill: none; stroke: #808080; stroke-opacity: 0.3; stroke-width: 0.3; stroke-linecap: square"/>
   </g>
   <g id="line2d_4">
    <path d="M 78.218182 256.68 
L 230.4 118.08 
" clip-path="url(#p64bd77eff4)" style="fill: none; stroke: #808080; stroke-opacity: 0.3; stroke-width: 0.3; stroke-linecap: square"/>
   </g>
   <g id="line2d_5">
    <path d="M 78.218182 256.68 
L 230.4 62.64 
" clip-path="url(#p64bd77eff4)" style="fill: none; stroke: #808080; stroke-opacity: 0.3; stroke-width: 0.3; stroke-linecap: square"/>
   </g>
   <g id="line2d_6">
    <path d="M 78.218182 201.24 
L 230.4 284.4 
" clip-path="url(#p64bd77eff4)" style="fill: none; stroke: #808080; stroke-opacity: 0.3; stroke-width: 0.3; stroke-linecap: square"/>
   </g>
   <g id="line2d_7">
    <path d="M 78.218182 201.24 
L 230.4 228.96 
" clip-path="url(#p64bd77eff4)" style="fill: none; stroke: #808080; stroke-opacity: 0.3; stroke-width: 0.3; stroke-linecap: square"/>
   </g>
   <g id="line2d_8">
    <path d="M 78.218182 201.24 
L 230.4 173.52 
" clip-path="url(#p64bd77eff4)" style="fill: none; stroke: #808080; stroke-opacity: 0.3; stroke-width: 0.3; stroke-linecap: square"/>
   </g>
   <g id="line2d_9">
    <path d="M 78.218182 201.24 
L 230.4 118.08 
" clip-path="url(#p64bd77eff4)" style="fill: none; stroke: #808080; stroke-opacity: 0.3; stroke-width: 0.3; stroke-linecap: square"/>
   </g>
   <g id="line2d_10">
    <path d="M 78.218182 201.24 
L 230.4 62.64 
" clip-path="url(#p64bd77eff4)" style="fill: none; stroke: #808080; stroke-opacity: 0.3; stroke-width: 0.3; stroke-linecap: square"/>
   </g>
   <g id="line2d_11">
    <path d="M 78.218182 145.8 
L 230.4 284.4 
" clip-path="url(#p64bd77eff4)" style="fill: none; stroke: #808080; stroke-opacity: 0.3; stroke-width: 0.3; stroke-linecap: square"/>
   </g>
   <g id="line2d_12">
    <path d="M 78.218182 145.8 
L 230.4 228.96 
" clip-path="url(#p64bd77eff4)" style="fill: none; stroke: #808080; stroke-opacity: 0.3; stroke-width: 0.3; stroke-linecap: square"/>
   </g>
   <g id="line2d_13">
    <path d="M 78.218182 145.8 
L 230.4 173.52 
" clip-path="url(#p64bd77eff4)" style="fill: none; stroke: #808080; stroke-opacity: 0.3; stroke-width: 0.3; stroke-linecap: square"/>
   </g>
   <g id="line2d_14">
    <path d="M 78.218182 145.8 
L 230.4 118.08 
" clip-path="url(#p64bd77eff4)" style="fill: none; stroke: #808080; stroke-opacity: 0.3; stroke-width: 0.3; stroke-linecap: square"/>
   </g>
   <g id="line2d_15">
    <path d="M 78.218182 145.8 
L 230.4 62.64 
" clip-path="url(#p64bd77eff4)" style="fill: none; stroke: #808080; stroke-opacity: 0.3; stroke-width: 0.3; stroke-linecap: square"/>
   </g>
   <g id="line2d_16">
    <path d="M 78.218182 90.36 
L 230.4 284.4 
" clip-path="url(#p64bd77eff4)" style="fill: none; stroke: #808080; stroke-opacity: 0.3; stroke-width: 0.3; stroke-linecap: square"/>
   </g>
   <g id="line2d_17">
    <path d="M 78.218182 90.36 
L 230.4 228.96 
" clip-path="url(#p64bd77eff4)" style="fill: none; stroke: #808080; stroke-opacity: 0.3; stroke-width: 0.3; stroke-linecap: square"/>
   </g>
   <g id="line2d_18">
    <path d="M 78.218182 90.36 
L 230.4 173.52 
" clip-path="url(#p64bd77eff4)" style="fill: none; stroke: #808080; stroke-opacity: 0.3; stroke-width: 0.3; stroke-linecap: square"/>
   </g>
   <g id="line2d_19">
    <path d="M 78.218182 90.36 
L 230.4 118.08 
" clip-path="url(#p64bd77eff4)" style="fill: none; stroke: #808080; stroke-opacity: 0.3; stroke-width: 0.3; stroke-linecap: square"/>
   </g>
   <g id="line2d_20">
    <path d="M 78.218182 90.36 
L 230.4 62.64 
" clip-path="url(#p64bd77eff4)" style="fill: none; stroke: #808080; stroke-opacity: 0.3; stroke-width: 0.3; stroke-linecap: square"/>
   </g>
   <g id="line2d_21">
    <path d="M 230.4 284.4 
L 382.581818 228.96 
" clip-path="url(#p64bd77eff4)" style="fill: none; stroke: #808080; stroke-opacity: 0.3; stroke-width: 0.3; stroke-linecap: square"/>
   </g>
   <g id="line2d_22">
    <path d="M 230.4 284.4 
L 382.581818 173.52 
" clip-path="url(#p64bd77eff4)" style="fill: none; stroke: #808080; stroke-opacity: 0.3; stroke-width: 0.3; stroke-linecap: square"/>
   </g>
   <g id="line2d_23">
    <path d="M 230.4 284.4 
L 382.581818 118.08 
" clip-path="url(#p64bd77eff4)" style="fill: none; stroke: #808080; stroke-opacity: 0.3; stroke-width: 0.3; stroke-linecap: square"/>
   </g>
   <g id="line2d_24">
    <path d="M 230.4 228.96 
L 382.581818 228.96 
" clip-path="url(#p64bd77eff4)" style="fill: none; stroke: #808080; stroke-opacity: 0.3; stroke-width: 0.3; stroke-linecap: square"/>
   </g>
   <g id="line2d_25">
    <path d="M 230.4 228.96 
L 382.581818 173.52 
" clip-path="url(#p64bd77eff4)" style="fill: none; stroke: #808080; stroke-opacity: 0.3; stroke-width: 0.3; stroke-linecap: square"/>
   </g>
   <g id="line2d_26">
    <path d="M 230.4 228.96 
L 382.581818 118.08 
" clip-path="url(#p64bd77eff4)" style="fill: none; stroke: #808080; stroke-opacity: 0.3; stroke-width: 0.3; stroke-linecap: square"/>
   </g>
   <g id="line2d_27">
    <path d="M 230.4 173.52 
L 382.581818 228.96 
" clip-path="url(#p64bd77eff4)" style="fill: none; stroke: #808080; stroke-opacity: 0.3; stroke-width: 0.3; stroke-linecap: square"/>
   </g>
   <g id="line2d_28">
    <path d="M 230.4 173.52 
L 382.581818 173.52 
" clip-path="url(#p64bd77eff4)" style="fill: none; stroke: #808080; stroke-opacity: 0.3; stroke-width: 0.3; stroke-linecap: square"/>
   </g>
   <g id="line2d_29">
    <path d="M 230.4 173.52 
L 382.581818 118.08 
" clip-path="url(#p64bd77eff4)" style="fill: none; stroke: #808080; stroke-opacity: 0.3; stroke-width: 0.3; stroke-linecap: square"/>
   </g>
   <g id="line2d_30">
    <path d="M 230.4 118.08 
L 382.581818 228.96 
" clip-path="url(#p64bd77eff4)" style="fill: none; stroke: #808080; stroke-opacity: 0.3; stroke-width: 0.3; stroke-linecap: square"/>
   </g>
   <g id="line2d_31">
    <path d="M 230.4 118.08 
L 382.581818 173.52 
" clip-path="url(#p64bd77eff4)" style="fill: none; stroke: #808080; stroke-opacity: 0.3; stroke-width: 0.3; stroke-linecap: square"/>
   </g>
   <g id="line2d_32">
    <path d="M 230.4 118.08 
L 382.581818 118.08 
" clip-path="url(#p64bd77eff4)" style="fill: none; stroke: #808080; stroke-opacity: 0.3; stroke-width: 0.3; stroke-linecap: square"/>
   </g>
   <g id="line2d_33">
    <path d="M 230.4 62.64 
L 382.581818 228.96 
" clip-path="url(#p64bd77eff4)" style="fill: none; stroke: #808080; stroke-opacity: 0.3; stroke-width: 0.3; stroke-linecap: square"/>
   </g>
   <g id="line2d_34">
    <path d="M 230.4 62.64 
L 382.581818 173.52 
" clip-path="url(#p64bd77eff4)" style="fill: none; stroke: #808080; stroke-opacity: 0.3; stroke-width: 0.3; stroke-linecap: square"/>
   </g>
   <g id="line2d_35">
    <path d="M 230.4 62.64 
L 382.581818 118.08 
" clip-path="url(#p64bd77eff4)" style="fill: none; stroke: #808080; stroke-opacity: 0.3; stroke-width: 0.3; stroke-linecap: square"/>
   </g>
   <g id="text_1">
    <!-- Input Layer -->
    <g style="fill: #1e88e5" transform="translate(49.230447 298.26) scale(0.09 -0.09)">
     <defs>
      <path id="DejaVuSans-Bold-49" d="M 588 4666 
L 1791 4666 
L 1791 0 
L 588 0 
L 588 4666 
z
" transform="scale(0.015625)"/>
      <path id="DejaVuSans-Bold-6e" d="M 4056 2131 
L 4056 0 
L 2931 0 
L 2931 347 
L 2931 1631 
Q 2931 2084 2911 2256 
Q 2891 2428 2841 2509 
Q 2775 2619 2662 2680 
Q 2550 2741 2406 2741 
Q 2056 2741 1856 2470 
Q 1656 2200 1656 1722 
L 1656 0 
L 538 0 
L 538 3500 
L 1656 3500 
L 1656 2988 
Q 1909 3294 2193 3439 
Q 2478 3584 2822 3584 
Q 3428 3584 3742 3212 
Q 4056 2841 4056 2131 
z
" transform="scale(0.015625)"/>
      <path id="DejaVuSans-Bold-70" d="M 1656 506 
L 1656 -1331 
L 538 -1331 
L 538 3500 
L 1656 3500 
L 1656 2988 
Q 1888 3294 2169 3439 
Q 2450 3584 2816 3584 
Q 3463 3584 3878 3070 
Q 4294 2556 4294 1747 
Q 4294 938 3878 423 
Q 3463 -91 2816 -91 
Q 2450 -91 2169 54 
Q 1888 200 1656 506 
z
M 2400 2772 
Q 2041 2772 1848 2508 
Q 1656 2244 1656 1747 
Q 1656 1250 1848 986 
Q 2041 722 2400 722 
Q 2759 722 2948 984 
Q 3138 1247 3138 1747 
Q 3138 2247 2948 2509 
Q 2759 2772 2400 2772 
z
" transform="scale(0.015625)"/>
      <path id="DejaVuSans-Bold-75" d="M 500 1363 
L 500 3500 
L 1625 3500 
L 1625 3150 
Q 1625 2866 1622 2436 
Q 1619 2006 1619 1863 
Q 1619 1441 1641 1255 
Q 1663 1069 1716 984 
Q 1784 875 1895 815 
Q 2006 756 2150 756 
Q 2500 756 2700 1025 
Q 2900 1294 2900 1772 
L 2900 3500 
L 4019 3500 
L 4019 0 
L 2900 0 
L 2900 506 
Q 2647 200 2364 54 
Q 2081 -91 1741 -91 
Q 1134 -91 817 281 
Q 500 653 500 1363 
z
" transform="scale(0.015625)"/>
      <path id="DejaVuSans-Bold-74" d="M 1759 4494 
L 1759 3500 
L 2913 3500 
L 2913 2700 
L 1759 2700 
L 1759 1216 
Q 1759 972 1856 886 
Q 1953 800 2241 800 
L 2816 800 
L 2816 0 
L 1856 0 
Q 1194 0 917 276 
Q 641 553 641 1216 
L 641 2700 
L 84 2700 
L 84 3500 
L 641 3500 
L 641 4494 
L 1759 4494 
z
" transform="scale(0.015625)"/>
      <path id="DejaVuSans-Bold-20" transform="scale(0.015625)"/>
      <path id="DejaVuSans-Bold-4c" d="M 588 4666 
L 1791 4666 
L 1791 909 
L 3903 909 
L 3903 0 
L 588 0 
L 588 4666 
z
" transform="scale(0.015625)"/>
      <path id="DejaVuSans-Bold-61" d="M 2106 1575 
Q 1756 1575 1579 1456 
Q 1403 1338 1403 1106 
Q 1403 894 1545 773 
Q 1688 653 1941 653 
Q 2256 653 2472 879 
Q 2688 1106 2688 1447 
L 2688 1575 
L 2106 1575 
z
M 3816 1997 
L 3816 0 
L 2688 0 
L 2688 519 
Q 2463 200 2181 54 
Q 1900 -91 1497 -91 
Q 953 -91 614 226 
Q 275 544 275 1050 
Q 275 1666 698 1953 
Q 1122 2241 2028 2241 
L 2688 2241 
L 2688 2328 
Q 2688 2594 2478 2717 
Q 2269 2841 1825 2841 
Q 1466 2841 1156 2769 
Q 847 2697 581 2553 
L 581 3406 
Q 941 3494 1303 3539 
Q 1666 3584 2028 3584 
Q 2975 3584 3395 3211 
Q 3816 2838 3816 1997 
z
" transform="scale(0.015625)"/>
      <path id="DejaVuSans-Bold-79" d="M 78 3500 
L 1197 3500 
L 2138 1125 
L 2938 3500 
L 4056 3500 
L 2584 -331 
Q 2363 -916 2067 -1148 
Q 1772 -1381 1288 -1381 
L 641 -1381 
L 641 -647 
L 991 -647 
Q 1275 -647 1404 -556 
Q 1534 -466 1606 -231 
L 1638 -134 
L 78 3500 
z
" transform="scale(0.015625)"/>
      <path id="DejaVuSans-Bold-65" d="M 4031 1759 
L 4031 1441 
L 1416 1441 
Q 1456 1047 1700 850 
Q 1944 653 2381 653 
Q 2734 653 3104 758 
Q 3475 863 3866 1075 
L 3866 213 
Q 3469 63 3072 -14 
Q 2675 -91 2278 -91 
Q 1328 -91 801 392 
Q 275 875 275 1747 
Q 275 2603 792 3093 
Q 1309 3584 2216 3584 
Q 3041 3584 3536 3087 
Q 4031 2591 4031 1759 
z
M 2881 2131 
Q 2881 2450 2695 2645 
Q 2509 2841 2209 2841 
Q 1884 2841 1681 2658 
Q 1478 2475 1428 2131 
L 2881 2131 
z
" transform="scale(0.015625)"/>
      <path id="DejaVuSans-Bold-72" d="M 3138 2547 
Q 2991 2616 2845 2648 
Q 2700 2681 2553 2681 
Q 2122 2681 1889 2404 
Q 1656 2128 1656 1613 
L 1656 0 
L 538 0 
L 538 3500 
L 1656 3500 
L 1656 2925 
Q 1872 3269 2151 3426 
Q 2431 3584 2822 3584 
Q 2878 3584 2943 3579 
Q 3009 3575 3134 3559 
L 3138 2547 
z
" transform="scale(0.015625)"/>
     </defs>
     <use xlink:href="#DejaVuSans-Bold-49"/>
     <use xlink:href="#DejaVuSans-Bold-6e" transform="translate(37.207031 0)"/>
     <use xlink:href="#DejaVuSans-Bold-70" transform="translate(108.398438 0)"/>
     <use xlink:href="#DejaVuSans-Bold-75" transform="translate(179.980469 0)"/>
     <use xlink:href="#DejaVuSans-Bold-74" transform="translate(251.171875 0)"/>
     <use xlink:href="#DejaVuSans-Bold-20" transform="translate(298.974609 0)"/>
     <use xlink:href="#DejaVuSans-Bold-4c" transform="translate(333.789062 0)"/>
     <use xlink:href="#DejaVuSans-Bold-61" transform="translate(397.509766 0)"/>
     <use xlink:href="#DejaVuSans-Bold-79" transform="translate(461.865234 0)"/>
     <use xlink:href="#DejaVuSans-Bold-65" transform="translate(527.050781 0)"/>
     <use xlink:href="#DejaVuSans-Bold-72" transform="translate(594.873047 0)"/>
    </g>
   </g>
   <g id="text_2">
    <!-- Hidden Layer -->
    <g style="fill: #43a047" transform="translate(196.858828 325.98) scale(0.09 -0.09)">
     <defs>
      <path id="DejaVuSans-Bold-48" d="M 588 4666 
L 1791 4666 
L 1791 2888 
L 3566 2888 
L 3566 4666 
L 4769 4666 
L 4769 0 
L 3566 0 
L 3566 1978 
L 1791 1978 
L 1791 0 
L 588 0 
L 588 4666 
z
" transform="scale(0.015625)"/>
      <path id="DejaVuSans-Bold-69" d="M 538 3500 
L 1656 3500 
L 1656 0 
L 538 0 
L 538 3500 
z
M 538 4863 
L 1656 4863 
L 1656 3950 
L 538 3950 
L 538 4863 
z
" transform="scale(0.015625)"/>
      <path id="DejaVuSans-Bold-64" d="M 2919 2988 
L 2919 4863 
L 4044 4863 
L 4044 0 
L 2919 0 
L 2919 506 
Q 2688 197 2409 53 
Q 2131 -91 1766 -91 
Q 1119 -91 703 423 
Q 288 938 288 1747 
Q 288 2556 703 3070 
Q 1119 3584 1766 3584 
Q 2128 3584 2408 3439 
Q 2688 3294 2919 2988 
z
M 2181 722 
Q 2541 722 2730 984 
Q 2919 1247 2919 1747 
Q 2919 2247 2730 2509 
Q 2541 2772 2181 2772 
Q 1825 2772 1636 2509 
Q 1447 2247 1447 1747 
Q 1447 1247 1636 984 
Q 1825 722 2181 722 
z
" transform="scale(0.015625)"/>
     </defs>
     <use xlink:href="#DejaVuSans-Bold-48"/>
     <use xlink:href="#DejaVuSans-Bold-69" transform="translate(83.691406 0)"/>
     <use xlink:href="#DejaVuSans-Bold-64" transform="translate(117.96875 0)"/>
     <use xlink:href="#DejaVuSans-Bold-64" transform="translate(189.550781 0)"/>
     <use xlink:href="#DejaVuSans-Bold-65" transform="translate(261.132812 0)"/>
     <use xlink:href="#DejaVuSans-Bold-6e" transform="translate(328.955078 0)"/>
     <use xlink:href="#DejaVuSans-Bold-20" transform="translate(400.146484 0)"/>
     <use xlink:href="#DejaVuSans-Bold-4c" transform="translate(434.960938 0)"/>
     <use xlink:href="#DejaVuSans-Bold-61" transform="translate(498.681641 0)"/>
     <use xlink:href="#DejaVuSans-Bold-79" transform="translate(563.037109 0)"/>
     <use xlink:href="#DejaVuSans-Bold-65" transform="translate(628.222656 0)"/>
     <use xlink:href="#DejaVuSans-Bold-72" transform="translate(696.044922 0)"/>
    </g>
   </g>
   <g id="text_3">
    <!-- Output Layer -->
    <g style="fill: #e53935" transform="translate(349.291662 270.54) scale(0.09 -0.09)">
     <defs>
      <path id="DejaVuSans-Bold-4f" d="M 2719 3878 
Q 2169 3878 1866 3472 
Q 1563 3066 1563 2328 
Q 1563 1594 1866 1187 
Q 2169 781 2719 781 
Q 3272 781 3575 1187 
Q 3878 1594 3878 2328 
Q 3878 3066 3575 3472 
Q 3272 3878 2719 3878 
z
M 2719 4750 
Q 3844 4750 4481 4106 
Q 5119 3463 5119 2328 
Q 5119 1197 4481 553 
Q 3844 -91 2719 -91 
Q 1597 -91 958 553 
Q 319 1197 319 2328 
Q 319 3463 958 4106 
Q 1597 4750 2719 4750 
z
" transform="scale(0.015625)"/>
     </defs>
     <use xlink:href="#DejaVuSans-Bold-4f"/>
     <use xlink:href="#DejaVuSans-Bold-75" transform="translate(85.009766 0)"/>
     <use xlink:href="#DejaVuSans-Bold-74" transform="translate(156.201172 0)"/>
     <use xlink:href="#DejaVuSans-Bold-70" transform="translate(204.003906 0)"/>
     <use xlink:href="#DejaVuSans-Bold-75" transform="translate(275.585938 0)"/>
     <use xlink:href="#DejaVuSans-Bold-74" transform="translate(346.777344 0)"/>
     <use xlink:href="#DejaVuSans-Bold-20" transform="translate(394.580078 0)"/>
     <use xlink:href="#DejaVuSans-Bold-4c" transform="translate(429.394531 0)"/>
     <use xlink:href="#DejaVuSans-Bold-61" transform="translate(493.115234 0)"/>
     <use xlink:href="#DejaVuSans-Bold-79" transform="translate(557.470703 0)"/>
     <use xlink:href="#DejaVuSans-Bold-65" transform="translate(622.65625 0)"/>
     <use xlink:href="#DejaVuSans-Bold-72" transform="translate(690.478516 0)"/>
    </g>
   </g>
   <g id="text_4">
    <!-- Simple Neural Network Architecture -->
    <g transform="translate(97.727891 69.57) scale(0.13 -0.13)">
     <defs>
      <path id="DejaVuSans-Bold-53" d="M 3834 4519 
L 3834 3531 
Q 3450 3703 3084 3790 
Q 2719 3878 2394 3878 
Q 1963 3878 1756 3759 
Q 1550 3641 1550 3391 
Q 1550 3203 1689 3098 
Q 1828 2994 2194 2919 
L 2706 2816 
Q 3484 2659 3812 2340 
Q 4141 2022 4141 1434 
Q 4141 663 3683 286 
Q 3225 -91 2284 -91 
Q 1841 -91 1394 -6 
Q 947 78 500 244 
L 500 1259 
Q 947 1022 1364 901 
Q 1781 781 2169 781 
Q 2563 781 2772 912 
Q 2981 1044 2981 1288 
Q 2981 1506 2839 1625 
Q 2697 1744 2272 1838 
L 1806 1941 
Q 1106 2091 782 2419 
Q 459 2747 459 3303 
Q 459 4000 909 4375 
Q 1359 4750 2203 4750 
Q 2588 4750 2994 4692 
Q 3400 4634 3834 4519 
z
" transform="scale(0.015625)"/>
      <path id="DejaVuSans-Bold-6d" d="M 3781 2919 
Q 3994 3244 4286 3414 
Q 4578 3584 4928 3584 
Q 5531 3584 5847 3212 
Q 6163 2841 6163 2131 
L 6163 0 
L 5038 0 
L 5038 1825 
Q 5041 1866 5042 1909 
Q 5044 1953 5044 2034 
Q 5044 2406 4934 2573 
Q 4825 2741 4581 2741 
Q 4263 2741 4089 2478 
Q 3916 2216 3909 1719 
L 3909 0 
L 2784 0 
L 2784 1825 
Q 2784 2406 2684 2573 
Q 2584 2741 2328 2741 
Q 2006 2741 1831 2477 
Q 1656 2213 1656 1722 
L 1656 0 
L 531 0 
L 531 3500 
L 1656 3500 
L 1656 2988 
Q 1863 3284 2130 3434 
Q 2397 3584 2719 3584 
Q 3081 3584 3359 3409 
Q 3638 3234 3781 2919 
z
" transform="scale(0.015625)"/>
      <path id="DejaVuSans-Bold-6c" d="M 538 4863 
L 1656 4863 
L 1656 0 
L 538 0 
L 538 4863 
z
" transform="scale(0.015625)"/>
      <path id="DejaVuSans-Bold-4e" d="M 588 4666 
L 1931 4666 
L 3628 1466 
L 3628 4666 
L 4769 4666 
L 4769 0 
L 3425 0 
L 1728 3200 
L 1728 0 
L 588 0 
L 588 4666 
z
" transform="scale(0.015625)"/>
      <path id="DejaVuSans-Bold-77" d="M 225 3500 
L 1313 3500 
L 1900 1088 
L 2491 3500 
L 3425 3500 
L 4013 1113 
L 4603 3500 
L 5691 3500 
L 4769 0 
L 3547 0 
L 2956 2406 
L 2369 0 
L 1147 0 
L 225 3500 
z
" transform="scale(0.015625)"/>
      <path id="DejaVuSans-Bold-6f" d="M 2203 2784 
Q 1831 2784 1636 2517 
Q 1441 2250 1441 1747 
Q 1441 1244 1636 976 
Q 1831 709 2203 709 
Q 2569 709 2762 976 
Q 2956 1244 2956 1747 
Q 2956 2250 2762 2517 
Q 2569 2784 2203 2784 
z
M 2203 3584 
Q 3106 3584 3614 3096 
Q 4122 2609 4122 1747 
Q 4122 884 3614 396 
Q 3106 -91 2203 -91 
Q 1297 -91 786 396 
Q 275 884 275 1747 
Q 275 2609 786 3096 
Q 1297 3584 2203 3584 
z
" transform="scale(0.015625)"/>
      <path id="DejaVuSans-Bold-6b" d="M 538 4863 
L 1656 4863 
L 1656 2216 
L 2944 3500 
L 4244 3500 
L 2534 1894 
L 4378 0 
L 3022 0 
L 1656 1459 
L 1656 0 
L 538 0 
L 538 4863 
z
" transform="scale(0.015625)"/>
      <path id="DejaVuSans-Bold-41" d="M 3419 850 
L 1538 850 
L 1241 0 
L 31 0 
L 1759 4666 
L 3194 4666 
L 4922 0 
L 3713 0 
L 3419 850 
z
M 1838 1716 
L 3116 1716 
L 2478 3572 
L 1838 1716 
z
" transform="scale(0.015625)"/>
      <path id="DejaVuSans-Bold-63" d="M 3366 3391 
L 3366 2478 
Q 3138 2634 2908 2709 
Q 2678 2784 2431 2784 
Q 1963 2784 1702 2511 
Q 1441 2238 1441 1747 
Q 1441 1256 1702 982 
Q 1963 709 2431 709 
Q 2694 709 2930 787 
Q 3166 866 3366 1019 
L 3366 103 
Q 3103 6 2833 -42 
Q 2563 -91 2291 -91 
Q 1344 -91 809 395 
Q 275 881 275 1747 
Q 275 2613 809 3098 
Q 1344 3584 2291 3584 
Q 2566 3584 2833 3536 
Q 3100 3488 3366 3391 
z
" transform="scale(0.015625)"/>
      <path id="DejaVuSans-Bold-68" d="M 4056 2131 
L 4056 0 
L 2931 0 
L 2931 347 
L 2931 1625 
Q 2931 2084 2911 2256 
Q 2891 2428 2841 2509 
Q 2775 2619 2662 2680 
Q 2550 2741 2406 2741 
Q 2056 2741 1856 2470 
Q 1656 2200 1656 1722 
L 1656 0 
L 538 0 
L 538 4863 
L 1656 4863 
L 1656 2988 
Q 1909 3294 2193 3439 
Q 2478 3584 2822 3584 
Q 3428 3584 3742 3212 
Q 4056 2841 4056 2131 
z
" transform="scale(0.015625)"/>
     </defs>
     <use xlink:href="#DejaVuSans-Bold-53"/>
     <use xlink:href="#DejaVuSans-Bold-69" transform="translate(72.021484 0)"/>
     <use xlink:href="#DejaVuSans-Bold-6d" transform="translate(106.298828 0)"/>
     <use xlink:href="#DejaVuSans-Bold-70" transform="translate(210.498047 0)"/>
     <use xlink:href="#DejaVuSans-Bold-6c" transform="translate(282.080078 0)"/>
     <use xlink:href="#DejaVuSans-Bold-65" transform="translate(316.357422 0)"/>
     <use xlink:href="#DejaVuSans-Bold-20" transform="translate(384.179688 0)"/>
     <use xlink:href="#DejaVuSans-Bold-4e" transform="translate(418.994141 0)"/>
     <use xlink:href="#DejaVuSans-Bold-65" transform="translate(502.685547 0)"/>
     <use xlink:href="#DejaVuSans-Bold-75" transform="translate(570.507812 0)"/>
     <use xlink:href="#DejaVuSans-Bold-72" transform="translate(641.699219 0)"/>
     <use xlink:href="#DejaVuSans-Bold-61" transform="translate(691.015625 0)"/>
     <use xlink:href="#DejaVuSans-Bold-6c" transform="translate(758.496094 0)"/>
     <use xlink:href="#DejaVuSans-Bold-20" transform="translate(792.773438 0)"/>
     <use xlink:href="#DejaVuSans-Bold-4e" transform="translate(827.587891 0)"/>
     <use xlink:href="#DejaVuSans-Bold-65" transform="translate(911.279297 0)"/>
     <use xlink:href="#DejaVuSans-Bold-74" transform="translate(979.101562 0)"/>
     <use xlink:href="#DejaVuSans-Bold-77" transform="translate(1026.904297 0)"/>
     <use xlink:href="#DejaVuSans-Bold-6f" transform="translate(1119.287109 0)"/>
     <use xlink:href="#DejaVuSans-Bold-72" transform="translate(1187.988281 0)"/>
     <use xlink:href="#DejaVuSans-Bold-6b" transform="translate(1237.304688 0)"/>
     <use xlink:href="#DejaVuSans-Bold-20" transform="translate(1303.808594 0)"/>
     <use xlink:href="#DejaVuSans-Bold-41" transform="translate(1338.623047 0)"/>
     <use xlink:href="#DejaVuSans-Bold-72" transform="translate(1416.015625 0)"/>
     <use xlink:href="#DejaVuSans-Bold-63" transform="translate(1465.332031 0)"/>
     <use xlink:href="#DejaVuSans-Bold-68" transform="translate(1524.609375 0)"/>
     <use xlink:href="#DejaVuSans-Bold-69" transform="translate(1595.800781 0)"/>
     <use xlink:href="#DejaVuSans-Bold-74" transform="translate(1630.078125 0)"/>
     <use xlink:href="#DejaVuSans-Bold-65" transform="translate(1677.880859 0)"/>
     <use xlink:href="#DejaVuSans-Bold-63" transform="translate(1745.703125 0)"/>
     <use xlink:href="#DejaVuSans-Bold-74" transform="translate(1804.980469 0)"/>
     <use xlink:href="#DejaVuSans-Bold-75" transform="translate(1852.783203 0)"/>
     <use xlink:href="#DejaVuSans-Bold-72" transform="translate(1923.974609 0)"/>
     <use xlink:href="#DejaVuSans-Bold-65" transform="translate(1973.291016 0)"/>
    </g>
   </g>
  </g>
 </g>
 <defs>
  <clipPath id="p64bd77eff4">
   <rect x="7.2" y="7.2" width="446.4" height="332.64"/>
  </clipPath>
 </defs>
</svg>
