<?xml version="1.0" encoding="utf-8" standalone="no"?>
<!DOCTYPE svg PUBLIC "-//W3C//DTD SVG 1.1//EN"
  "http://www.w3.org/Graphics/SVG/1.1/DTD/svg11.dtd">
<svg xmlns:xlink="http://www.w3.org/1999/xlink" width="460.8pt" height="363.677812pt" viewBox="0 0 460.8 363.677812" xmlns="http://www.w3.org/2000/svg" version="1.1">
 <metadata>
  <rdf:RDF xmlns:dc="http://purl.org/dc/elements/1.1/" xmlns:cc="http://creativecommons.org/ns#" xmlns:rdf="http://www.w3.org/1999/02/22-rdf-syntax-ns#">
   <cc:Work>
    <dc:type rdf:resource="http://purl.org/dc/dcmitype/StillImage"/>
    <dc:date>2026-07-08T10:06:05.797408</dc:date>
    <dc:format>image/svg+xml</dc:format>
    <dc:creator>
     <cc:Agent>
      <dc:title>Matplotlib v3.10.1, https://matplotlib.org/</dc:title>
     </cc:Agent>
    </dc:creator>
   </cc:Work>
  </rdf:RDF>
 </metadata>
 <defs>
  <style type="text/css">*{stroke-linejoin: round; stroke-linecap: butt}</style>
 </defs>
 <g id="figure_1">
  <g id="patch_1">
   <path d="M 0 363.677812 
L 460.8 363.677812 
L 460.8 -0 
L 0 -0 
z
" style="fill: #ffffff"/>
  </g>
  <g id="axes_1">
   <g id="patch_2">
    <path d="M 196.92 330.017812 
L 263.88 330.017812 
L 263.88 277.097812 
L 196.92 277.097812 
z
" clip-path="url(#p723c35b9fb)" style="fill: #e53935; opacity: 0.85; stroke: #ffffff; stroke-width: 2; stroke-linejoin: miter"/>
   </g>
   <g id="patch_3">
    <path d="M 152.28 254.417812 
L 308.52 254.417812 
L 308.52 201.497812 
L 152.28 201.497812 
z
" clip-path="url(#p723c35b9fb)" style="fill: #fb8c00; opacity: 0.85; stroke: #ffffff; stroke-width: 2; stroke-linejoin: miter"/>
   </g>
   <g id="patch_4">
    <path d="M 107.64 178.817812 
L 353.16 178.817812 
L 353.16 125.897812 
L 107.64 125.897812 
z
" clip-path="url(#p723c35b9fb)" style="fill: #43a047; opacity: 0.85; stroke: #ffffff; stroke-width: 2; stroke-linejoin: miter"/>
   </g>
   <g id="patch_5">
    <path d="M 63 103.217812 
L 397.8 103.217812 
L 397.8 50.297812 
L 63 50.297812 
z
" clip-path="url(#p723c35b9fb)" style="fill: #1e88e5; opacity: 0.85; stroke: #ffffff; stroke-width: 2; stroke-linejoin: miter"/>
   </g>
   <g id="line2d_1">
    <path d="M 196.92 277.097812 
L 152.28 254.417812 
" clip-path="url(#p723c35b9fb)" style="fill: none; stroke: #808080; stroke-linecap: square"/>
   </g>
   <g id="line2d_2">
    <path d="M 263.88 277.097812 
L 308.52 254.417812 
" clip-path="url(#p723c35b9fb)" style="fill: none; stroke: #808080; stroke-linecap: square"/>
   </g>
   <g id="line2d_3">
    <path d="M 152.28 201.497812 
L 107.64 178.817812 
" clip-path="url(#p723c35b9fb)" style="fill: none; stroke: #808080; stroke-linecap: square"/>
   </g>
   <g id="line2d_4">
    <path d="M 308.52 201.497812 
L 353.16 178.817812 
" clip-path="url(#p723c35b9fb)" style="fill: none; stroke: #808080; stroke-linecap: square"/>
   </g>
   <g id="line2d_5">
    <path d="M 107.64 125.897812 
L 63 103.217812 
" clip-path="url(#p723c35b9fb)" style="fill: none; stroke: #808080; stroke-linecap: square"/>
   </g>
   <g id="line2d_6">
    <path d="M 353.16 125.897812 
L 397.8 103.217812 
" clip-path="url(#p723c35b9fb)" style="fill: none; stroke: #808080; stroke-linecap: square"/>
   </g>
   <g id="text_1">
    <!-- AGI / ASI -->
    <g style="fill: #ffffff" transform="translate(201.03375 297.797062) scale(0.12 -0.12)">
     <defs>
      <path id="DejaVuSans-Bold-41" d="M 3419 850 
L 1538 850 
L 1241 0 
L 31 0 
L 1759 4666 
L 3194 4666 
L 4922 0 
L 3713 0 
L 3419 850 
z
M 1838 1716 
L 3116 1716 
L 2478 3572 
L 1838 1716 
z
" transform="scale(0.015625)"/>
      <path id="DejaVuSans-Bold-47" d="M 4781 347 
Q 4331 128 3847 18 
Q 3363 -91 2847 -91 
Q 1681 -91 1000 561 
Q 319 1213 319 2328 
Q 319 3456 1012 4103 
Q 1706 4750 2913 4750 
Q 3378 4750 3804 4662 
Q 4231 4575 4609 4403 
L 4609 3438 
Q 4219 3659 3833 3768 
Q 3447 3878 3059 3878 
Q 2341 3878 1952 3476 
Q 1563 3075 1563 2328 
Q 1563 1588 1938 1184 
Q 2313 781 3003 781 
Q 3191 781 3352 804 
Q 3513 828 3641 878 
L 3641 1784 
L 2906 1784 
L 2906 2591 
L 4781 2591 
L 4781 347 
z
" transform="scale(0.015625)"/>
      <path id="DejaVuSans-Bold-49" d="M 588 4666 
L 1791 4666 
L 1791 0 
L 588 0 
L 588 4666 
z
" transform="scale(0.015625)"/>
      <path id="DejaVuSans-Bold-20" transform="scale(0.015625)"/>
      <path id="DejaVuSans-Bold-2f" d="M 1644 4666 
L 2338 4666 
L 691 -594 
L 0 -594 
L 1644 4666 
z
" transform="scale(0.015625)"/>
      <path id="DejaVuSans-Bold-53" d="M 3834 4519 
L 3834 3531 
Q 3450 3703 3084 3790 
Q 2719 3878 2394 3878 
Q 1963 3878 1756 3759 
Q 1550 3641 1550 3391 
Q 1550 3203 1689 3098 
Q 1828 2994 2194 2919 
L 2706 2816 
Q 3484 2659 3812 2340 
Q 4141 2022 4141 1434 
Q 4141 663 3683 286 
Q 3225 -91 2284 -91 
Q 1841 -91 1394 -6 
Q 947 78 500 244 
L 500 1259 
Q 947 1022 1364 901 
Q 1781 781 2169 781 
Q 2563 781 2772 912 
Q 2981 1044 2981 1288 
Q 2981 1506 2839 1625 
Q 2697 1744 2272 1838 
L 1806 1941 
Q 1106 2091 782 2419 
Q 459 2747 459 3303 
Q 459 4000 909 4375 
Q 1359 4750 2203 4750 
Q 2588 4750 2994 4692 
Q 3400 4634 3834 4519 
z
" transform="scale(0.015625)"/>
     </defs>
     <use xlink:href="#DejaVuSans-Bold-41"/>
     <use xlink:href="#DejaVuSans-Bold-47" transform="translate(77.392578 0)"/>
     <use xlink:href="#DejaVuSans-Bold-49" transform="translate(159.472656 0)"/>
     <use xlink:href="#DejaVuSans-Bold-20" transform="translate(196.679688 0)"/>
     <use xlink:href="#DejaVuSans-Bold-2f" transform="translate(231.494141 0)"/>
     <use xlink:href="#DejaVuSans-Bold-20" transform="translate(268.017578 0)"/>
     <use xlink:href="#DejaVuSans-Bold-41" transform="translate(302.832031 0)"/>
     <use xlink:href="#DejaVuSans-Bold-53" transform="translate(380.224609 0)"/>
     <use xlink:href="#DejaVuSans-Bold-49" transform="translate(452.246094 0)"/>
    </g>
   </g>
   <g id="text_2">
    <!-- Artificial General -->
    <g style="fill: #ffffff; opacity: 0.9" transform="translate(196.9125 314.894187) scale(0.08 -0.08)">
     <defs>
      <path id="DejaVuSans-41" d="M 2188 4044 
L 1331 1722 
L 3047 1722 
L 2188 4044 
z
M 1831 4666 
L 2547 4666 
L 4325 0 
L 3669 0 
L 3244 1197 
L 1141 1197 
L 716 0 
L 50 0 
L 1831 4666 
z
" transform="scale(0.015625)"/>
      <path id="DejaVuSans-72" d="M 2631 2963 
Q 2534 3019 2420 3045 
Q 2306 3072 2169 3072 
Q 1681 3072 1420 2755 
Q 1159 2438 1159 1844 
L 1159 0 
L 581 0 
L 581 3500 
L 1159 3500 
L 1159 2956 
Q 1341 3275 1631 3429 
Q 1922 3584 2338 3584 
Q 2397 3584 2469 3576 
Q 2541 3569 2628 3553 
L 2631 2963 
z
" transform="scale(0.015625)"/>
      <path id="DejaVuSans-74" d="M 1172 4494 
L 1172 3500 
L 2356 3500 
L 2356 3053 
L 1172 3053 
L 1172 1153 
Q 1172 725 1289 603 
Q 1406 481 1766 481 
L 2356 481 
L 2356 0 
L 1766 0 
Q 1100 0 847 248 
Q 594 497 594 1153 
L 594 3053 
L 172 3053 
L 172 3500 
L 594 3500 
L 594 4494 
L 1172 4494 
z
" transform="scale(0.015625)"/>
      <path id="DejaVuSans-69" d="M 603 3500 
L 1178 3500 
L 1178 0 
L 603 0 
L 603 3500 
z
M 603 4863 
L 1178 4863 
L 1178 4134 
L 603 4134 
L 603 4863 
z
" transform="scale(0.015625)"/>
      <path id="DejaVuSans-66" d="M 2375 4863 
L 2375 4384 
L 1825 4384 
Q 1516 4384 1395 4259 
Q 1275 4134 1275 3809 
L 1275 3500 
L 2222 3500 
L 2222 3053 
L 1275 3053 
L 1275 0 
L 697 0 
L 697 3053 
L 147 3053 
L 147 3500 
L 697 3500 
L 697 3744 
Q 697 4328 969 4595 
Q 1241 4863 1831 4863 
L 2375 4863 
z
" transform="scale(0.015625)"/>
      <path id="DejaVuSans-63" d="M 3122 3366 
L 3122 2828 
Q 2878 2963 2633 3030 
Q 2388 3097 2138 3097 
Q 1578 3097 1268 2742 
Q 959 2388 959 1747 
Q 959 1106 1268 751 
Q 1578 397 2138 397 
Q 2388 397 2633 464 
Q 2878 531 3122 666 
L 3122 134 
Q 2881 22 2623 -34 
Q 2366 -91 2075 -91 
Q 1284 -91 818 406 
Q 353 903 353 1747 
Q 353 2603 823 3093 
Q 1294 3584 2113 3584 
Q 2378 3584 2631 3529 
Q 2884 3475 3122 3366 
z
" transform="scale(0.015625)"/>
      <path id="DejaVuSans-61" d="M 2194 1759 
Q 1497 1759 1228 1600 
Q 959 1441 959 1056 
Q 959 750 1161 570 
Q 1363 391 1709 391 
Q 2188 391 2477 730 
Q 2766 1069 2766 1631 
L 2766 1759 
L 2194 1759 
z
M 3341 1997 
L 3341 0 
L 2766 0 
L 2766 531 
Q 2569 213 2275 61 
Q 1981 -91 1556 -91 
Q 1019 -91 701 211 
Q 384 513 384 1019 
Q 384 1609 779 1909 
Q 1175 2209 1959 2209 
L 2766 2209 
L 2766 2266 
Q 2766 2663 2505 2880 
Q 2244 3097 1772 3097 
Q 1472 3097 1187 3025 
Q 903 2953 641 2809 
L 641 3341 
Q 956 3463 1253 3523 
Q 1550 3584 1831 3584 
Q 2591 3584 2966 3190 
Q 3341 2797 3341 1997 
z
" transform="scale(0.015625)"/>
      <path id="DejaVuSans-6c" d="M 603 4863 
L 1178 4863 
L 1178 0 
L 603 0 
L 603 4863 
z
" transform="scale(0.015625)"/>
      <path id="DejaVuSans-20" transform="scale(0.015625)"/>
      <path id="DejaVuSans-47" d="M 3809 666 
L 3809 1919 
L 2778 1919 
L 2778 2438 
L 4434 2438 
L 4434 434 
Q 4069 175 3628 42 
Q 3188 -91 2688 -91 
Q 1594 -91 976 548 
Q 359 1188 359 2328 
Q 359 3472 976 4111 
Q 1594 4750 2688 4750 
Q 3144 4750 3555 4637 
Q 3966 4525 4313 4306 
L 4313 3634 
Q 3963 3931 3569 4081 
Q 3175 4231 2741 4231 
Q 1884 4231 1454 3753 
Q 1025 3275 1025 2328 
Q 1025 1384 1454 906 
Q 1884 428 2741 428 
Q 3075 428 3337 486 
Q 3600 544 3809 666 
z
" transform="scale(0.015625)"/>
      <path id="DejaVuSans-65" d="M 3597 1894 
L 3597 1613 
L 953 1613 
Q 991 1019 1311 708 
Q 1631 397 2203 397 
Q 2534 397 2845 478 
Q 3156 559 3463 722 
L 3463 178 
Q 3153 47 2828 -22 
Q 2503 -91 2169 -91 
Q 1331 -91 842 396 
Q 353 884 353 1716 
Q 353 2575 817 3079 
Q 1281 3584 2069 3584 
Q 2775 3584 3186 3129 
Q 3597 2675 3597 1894 
z
M 3022 2063 
Q 3016 2534 2758 2815 
Q 2500 3097 2075 3097 
Q 1594 3097 1305 2825 
Q 1016 2553 972 2059 
L 3022 2063 
z
" transform="scale(0.015625)"/>
      <path id="DejaVuSans-6e" d="M 3513 2113 
L 3513 0 
L 2938 0 
L 2938 2094 
Q 2938 2591 2744 2837 
Q 2550 3084 2163 3084 
Q 1697 3084 1428 2787 
Q 1159 2491 1159 1978 
L 1159 0 
L 581 0 
L 581 3500 
L 1159 3500 
L 1159 2956 
Q 1366 3272 1645 3428 
Q 1925 3584 2291 3584 
Q 2894 3584 3203 3211 
Q 3513 2838 3513 2113 
z
" transform="scale(0.015625)"/>
     </defs>
     <use xlink:href="#DejaVuSans-41"/>
     <use xlink:href="#DejaVuSans-72" transform="translate(68.408203 0)"/>
     <use xlink:href="#DejaVuSans-74" transform="translate(109.521484 0)"/>
     <use xlink:href="#DejaVuSans-69" transform="translate(148.730469 0)"/>
     <use xlink:href="#DejaVuSans-66" transform="translate(176.513672 0)"/>
     <use xlink:href="#DejaVuSans-69" transform="translate(211.71875 0)"/>
     <use xlink:href="#DejaVuSans-63" transform="translate(239.501953 0)"/>
     <use xlink:href="#DejaVuSans-69" transform="translate(294.482422 0)"/>
     <use xlink:href="#DejaVuSans-61" transform="translate(322.265625 0)"/>
     <use xlink:href="#DejaVuSans-6c" transform="translate(383.544922 0)"/>
     <use xlink:href="#DejaVuSans-20" transform="translate(411.328125 0)"/>
     <use xlink:href="#DejaVuSans-47" transform="translate(443.115234 0)"/>
     <use xlink:href="#DejaVuSans-65" transform="translate(520.605469 0)"/>
     <use xlink:href="#DejaVuSans-6e" transform="translate(582.128906 0)"/>
     <use xlink:href="#DejaVuSans-65" transform="translate(645.507812 0)"/>
     <use xlink:href="#DejaVuSans-72" transform="translate(707.03125 0)"/>
     <use xlink:href="#DejaVuSans-61" transform="translate(748.144531 0)"/>
     <use xlink:href="#DejaVuSans-6c" transform="translate(809.423828 0)"/>
    </g>
    <!-- Intelligence -->
    <g style="fill: #ffffff; opacity: 0.9" transform="translate(207.125625 323.852437) scale(0.08 -0.08)">
     <defs>
      <path id="DejaVuSans-49" d="M 628 4666 
L 1259 4666 
L 1259 0 
L 628 0 
L 628 4666 
z
" transform="scale(0.015625)"/>
      <path id="DejaVuSans-67" d="M 2906 1791 
Q 2906 2416 2648 2759 
Q 2391 3103 1925 3103 
Q 1463 3103 1205 2759 
Q 947 2416 947 1791 
Q 947 1169 1205 825 
Q 1463 481 1925 481 
Q 2391 481 2648 825 
Q 2906 1169 2906 1791 
z
M 3481 434 
Q 3481 -459 3084 -895 
Q 2688 -1331 1869 -1331 
Q 1566 -1331 1297 -1286 
Q 1028 -1241 775 -1147 
L 775 -588 
Q 1028 -725 1275 -790 
Q 1522 -856 1778 -856 
Q 2344 -856 2625 -561 
Q 2906 -266 2906 331 
L 2906 616 
Q 2728 306 2450 153 
Q 2172 0 1784 0 
Q 1141 0 747 490 
Q 353 981 353 1791 
Q 353 2603 747 3093 
Q 1141 3584 1784 3584 
Q 2172 3584 2450 3431 
Q 2728 3278 2906 2969 
L 2906 3500 
L 3481 3500 
L 3481 434 
z
" transform="scale(0.015625)"/>
     </defs>
     <use xlink:href="#DejaVuSans-49"/>
     <use xlink:href="#DejaVuSans-6e" transform="translate(29.492188 0)"/>
     <use xlink:href="#DejaVuSans-74" transform="translate(92.871094 0)"/>
     <use xlink:href="#DejaVuSans-65" transform="translate(132.080078 0)"/>
     <use xlink:href="#DejaVuSans-6c" transform="translate(193.603516 0)"/>
     <use xlink:href="#DejaVuSans-6c" transform="translate(221.386719 0)"/>
     <use xlink:href="#DejaVuSans-69" transform="translate(249.169922 0)"/>
     <use xlink:href="#DejaVuSans-67" transform="translate(276.953125 0)"/>
     <use xlink:href="#DejaVuSans-65" transform="translate(340.429688 0)"/>
     <use xlink:href="#DejaVuSans-6e" transform="translate(401.953125 0)"/>
     <use xlink:href="#DejaVuSans-63" transform="translate(465.332031 0)"/>
     <use xlink:href="#DejaVuSans-65" transform="translate(520.3125 0)"/>
    </g>
   </g>
   <g id="text_3">
    <!-- Deep Learning -->
    <g style="fill: #ffffff" transform="translate(181.101562 222.150187) scale(0.12 -0.12)">
     <defs>
      <path id="DejaVuSans-Bold-44" d="M 1791 3756 
L 1791 909 
L 2222 909 
Q 2959 909 3348 1275 
Q 3738 1641 3738 2338 
Q 3738 3031 3350 3393 
Q 2963 3756 2222 3756 
L 1791 3756 
z
M 588 4666 
L 1856 4666 
Q 2919 4666 3439 4514 
Q 3959 4363 4331 4000 
Q 4659 3684 4818 3271 
Q 4978 2859 4978 2338 
Q 4978 1809 4818 1395 
Q 4659 981 4331 666 
Q 3956 303 3431 151 
Q 2906 0 1856 0 
L 588 0 
L 588 4666 
z
" transform="scale(0.015625)"/>
      <path id="DejaVuSans-Bold-65" d="M 4031 1759 
L 4031 1441 
L 1416 1441 
Q 1456 1047 1700 850 
Q 1944 653 2381 653 
Q 2734 653 3104 758 
Q 3475 863 3866 1075 
L 3866 213 
Q 3469 63 3072 -14 
Q 2675 -91 2278 -91 
Q 1328 -91 801 392 
Q 275 875 275 1747 
Q 275 2603 792 3093 
Q 1309 3584 2216 3584 
Q 3041 3584 3536 3087 
Q 4031 2591 4031 1759 
z
M 2881 2131 
Q 2881 2450 2695 2645 
Q 2509 2841 2209 2841 
Q 1884 2841 1681 2658 
Q 1478 2475 1428 2131 
L 2881 2131 
z
" transform="scale(0.015625)"/>
      <path id="DejaVuSans-Bold-70" d="M 1656 506 
L 1656 -1331 
L 538 -1331 
L 538 3500 
L 1656 3500 
L 1656 2988 
Q 1888 3294 2169 3439 
Q 2450 3584 2816 3584 
Q 3463 3584 3878 3070 
Q 4294 2556 4294 1747 
Q 4294 938 3878 423 
Q 3463 -91 2816 -91 
Q 2450 -91 2169 54 
Q 1888 200 1656 506 
z
M 2400 2772 
Q 2041 2772 1848 2508 
Q 1656 2244 1656 1747 
Q 1656 1250 1848 986 
Q 2041 722 2400 722 
Q 2759 722 2948 984 
Q 3138 1247 3138 1747 
Q 3138 2247 2948 2509 
Q 2759 2772 2400 2772 
z
" transform="scale(0.015625)"/>
      <path id="DejaVuSans-Bold-4c" d="M 588 4666 
L 1791 4666 
L 1791 909 
L 3903 909 
L 3903 0 
L 588 0 
L 588 4666 
z
" transform="scale(0.015625)"/>
      <path id="DejaVuSans-Bold-61" d="M 2106 1575 
Q 1756 1575 1579 1456 
Q 1403 1338 1403 1106 
Q 1403 894 1545 773 
Q 1688 653 1941 653 
Q 2256 653 2472 879 
Q 2688 1106 2688 1447 
L 2688 1575 
L 2106 1575 
z
M 3816 1997 
L 3816 0 
L 2688 0 
L 2688 519 
Q 2463 200 2181 54 
Q 1900 -91 1497 -91 
Q 953 -91 614 226 
Q 275 544 275 1050 
Q 275 1666 698 1953 
Q 1122 2241 2028 2241 
L 2688 2241 
L 2688 2328 
Q 2688 2594 2478 2717 
Q 2269 2841 1825 2841 
Q 1466 2841 1156 2769 
Q 847 2697 581 2553 
L 581 3406 
Q 941 3494 1303 3539 
Q 1666 3584 2028 3584 
Q 2975 3584 3395 3211 
Q 3816 2838 3816 1997 
z
" transform="scale(0.015625)"/>
      <path id="DejaVuSans-Bold-72" d="M 3138 2547 
Q 2991 2616 2845 2648 
Q 2700 2681 2553 2681 
Q 2122 2681 1889 2404 
Q 1656 2128 1656 1613 
L 1656 0 
L 538 0 
L 538 3500 
L 1656 3500 
L 1656 2925 
Q 1872 3269 2151 3426 
Q 2431 3584 2822 3584 
Q 2878 3584 2943 3579 
Q 3009 3575 3134 3559 
L 3138 2547 
z
" transform="scale(0.015625)"/>
      <path id="DejaVuSans-Bold-6e" d="M 4056 2131 
L 4056 0 
L 2931 0 
L 2931 347 
L 2931 1631 
Q 2931 2084 2911 2256 
Q 2891 2428 2841 2509 
Q 2775 2619 2662 2680 
Q 2550 2741 2406 2741 
Q 2056 2741 1856 2470 
Q 1656 2200 1656 1722 
L 1656 0 
L 538 0 
L 538 3500 
L 1656 3500 
L 1656 2988 
Q 1909 3294 2193 3439 
Q 2478 3584 2822 3584 
Q 3428 3584 3742 3212 
Q 4056 2841 4056 2131 
z
" transform="scale(0.015625)"/>
      <path id="DejaVuSans-Bold-69" d="M 538 3500 
L 1656 3500 
L 1656 0 
L 538 0 
L 538 3500 
z
M 538 4863 
L 1656 4863 
L 1656 3950 
L 538 3950 
L 538 4863 
z
" transform="scale(0.015625)"/>
      <path id="DejaVuSans-Bold-67" d="M 2919 594 
Q 2688 288 2409 144 
Q 2131 0 1766 0 
Q 1125 0 706 504 
Q 288 1009 288 1791 
Q 288 2575 706 3076 
Q 1125 3578 1766 3578 
Q 2131 3578 2409 3434 
Q 2688 3291 2919 2981 
L 2919 3500 
L 4044 3500 
L 4044 353 
Q 4044 -491 3511 -936 
Q 2978 -1381 1966 -1381 
Q 1638 -1381 1331 -1331 
Q 1025 -1281 716 -1178 
L 716 -306 
Q 1009 -475 1290 -558 
Q 1572 -641 1856 -641 
Q 2406 -641 2662 -400 
Q 2919 -159 2919 353 
L 2919 594 
z
M 2181 2772 
Q 1834 2772 1640 2515 
Q 1447 2259 1447 1791 
Q 1447 1309 1634 1061 
Q 1822 813 2181 813 
Q 2531 813 2725 1069 
Q 2919 1325 2919 1791 
Q 2919 2259 2725 2515 
Q 2531 2772 2181 2772 
z
" transform="scale(0.015625)"/>
     </defs>
     <use xlink:href="#DejaVuSans-Bold-44"/>
     <use xlink:href="#DejaVuSans-Bold-65" transform="translate(83.007812 0)"/>
     <use xlink:href="#DejaVuSans-Bold-65" transform="translate(150.830078 0)"/>
     <use xlink:href="#DejaVuSans-Bold-70" transform="translate(218.652344 0)"/>
     <use xlink:href="#DejaVuSans-Bold-20" transform="translate(290.234375 0)"/>
     <use xlink:href="#DejaVuSans-Bold-4c" transform="translate(325.048828 0)"/>
     <use xlink:href="#DejaVuSans-Bold-65" transform="translate(388.769531 0)"/>
     <use xlink:href="#DejaVuSans-Bold-61" transform="translate(456.591797 0)"/>
     <use xlink:href="#DejaVuSans-Bold-72" transform="translate(524.072266 0)"/>
     <use xlink:href="#DejaVuSans-Bold-6e" transform="translate(573.388672 0)"/>
     <use xlink:href="#DejaVuSans-Bold-69" transform="translate(644.580078 0)"/>
     <use xlink:href="#DejaVuSans-Bold-6e" transform="translate(678.857422 0)"/>
     <use xlink:href="#DejaVuSans-Bold-67" transform="translate(750.048828 0)"/>
    </g>
   </g>
   <g id="text_4">
    <!-- Neural networks -->
    <g style="fill: #ffffff; opacity: 0.9" transform="translate(197.605625 239.294187) scale(0.08 -0.08)">
     <defs>
      <path id="DejaVuSans-4e" d="M 628 4666 
L 1478 4666 
L 3547 763 
L 3547 4666 
L 4159 4666 
L 4159 0 
L 3309 0 
L 1241 3903 
L 1241 0 
L 628 0 
L 628 4666 
z
" transform="scale(0.015625)"/>
      <path id="DejaVuSans-75" d="M 544 1381 
L 544 3500 
L 1119 3500 
L 1119 1403 
Q 1119 906 1312 657 
Q 1506 409 1894 409 
Q 2359 409 2629 706 
Q 2900 1003 2900 1516 
L 2900 3500 
L 3475 3500 
L 3475 0 
L 2900 0 
L 2900 538 
Q 2691 219 2414 64 
Q 2138 -91 1772 -91 
Q 1169 -91 856 284 
Q 544 659 544 1381 
z
M 1991 3584 
L 1991 3584 
z
" transform="scale(0.015625)"/>
      <path id="DejaVuSans-77" d="M 269 3500 
L 844 3500 
L 1563 769 
L 2278 3500 
L 2956 3500 
L 3675 769 
L 4391 3500 
L 4966 3500 
L 4050 0 
L 3372 0 
L 2619 2869 
L 1863 0 
L 1184 0 
L 269 3500 
z
" transform="scale(0.015625)"/>
      <path id="DejaVuSans-6f" d="M 1959 3097 
Q 1497 3097 1228 2736 
Q 959 2375 959 1747 
Q 959 1119 1226 758 
Q 1494 397 1959 397 
Q 2419 397 2687 759 
Q 2956 1122 2956 1747 
Q 2956 2369 2687 2733 
Q 2419 3097 1959 3097 
z
M 1959 3584 
Q 2709 3584 3137 3096 
Q 3566 2609 3566 1747 
Q 3566 888 3137 398 
Q 2709 -91 1959 -91 
Q 1206 -91 779 398 
Q 353 888 353 1747 
Q 353 2609 779 3096 
Q 1206 3584 1959 3584 
z
" transform="scale(0.015625)"/>
      <path id="DejaVuSans-6b" d="M 581 4863 
L 1159 4863 
L 1159 1991 
L 2875 3500 
L 3609 3500 
L 1753 1863 
L 3688 0 
L 2938 0 
L 1159 1709 
L 1159 0 
L 581 0 
L 581 4863 
z
" transform="scale(0.015625)"/>
      <path id="DejaVuSans-73" d="M 2834 3397 
L 2834 2853 
Q 2591 2978 2328 3040 
Q 2066 3103 1784 3103 
Q 1356 3103 1142 2972 
Q 928 2841 928 2578 
Q 928 2378 1081 2264 
Q 1234 2150 1697 2047 
L 1894 2003 
Q 2506 1872 2764 1633 
Q 3022 1394 3022 966 
Q 3022 478 2636 193 
Q 2250 -91 1575 -91 
Q 1294 -91 989 -36 
Q 684 19 347 128 
L 347 722 
Q 666 556 975 473 
Q 1284 391 1588 391 
Q 1994 391 2212 530 
Q 2431 669 2431 922 
Q 2431 1156 2273 1281 
Q 2116 1406 1581 1522 
L 1381 1569 
Q 847 1681 609 1914 
Q 372 2147 372 2553 
Q 372 3047 722 3315 
Q 1072 3584 1716 3584 
Q 2034 3584 2315 3537 
Q 2597 3491 2834 3397 
z
" transform="scale(0.015625)"/>
     </defs>
     <use xlink:href="#DejaVuSans-4e"/>
     <use xlink:href="#DejaVuSans-65" transform="translate(74.804688 0)"/>
     <use xlink:href="#DejaVuSans-75" transform="translate(136.328125 0)"/>
     <use xlink:href="#DejaVuSans-72" transform="translate(199.707031 0)"/>
     <use xlink:href="#DejaVuSans-61" transform="translate(240.820312 0)"/>
     <use xlink:href="#DejaVuSans-6c" transform="translate(302.099609 0)"/>
     <use xlink:href="#DejaVuSans-20" transform="translate(329.882812 0)"/>
     <use xlink:href="#DejaVuSans-6e" transform="translate(361.669922 0)"/>
     <use xlink:href="#DejaVuSans-65" transform="translate(425.048828 0)"/>
     <use xlink:href="#DejaVuSans-74" transform="translate(486.572266 0)"/>
     <use xlink:href="#DejaVuSans-77" transform="translate(525.78125 0)"/>
     <use xlink:href="#DejaVuSans-6f" transform="translate(607.568359 0)"/>
     <use xlink:href="#DejaVuSans-72" transform="translate(668.75 0)"/>
     <use xlink:href="#DejaVuSans-6b" transform="translate(709.863281 0)"/>
     <use xlink:href="#DejaVuSans-73" transform="translate(767.773438 0)"/>
    </g>
    <!-- with many layers -->
    <g style="fill: #ffffff; opacity: 0.9" transform="translate(196.0025 248.252437) scale(0.08 -0.08)">
     <defs>
      <path id="DejaVuSans-68" d="M 3513 2113 
L 3513 0 
L 2938 0 
L 2938 2094 
Q 2938 2591 2744 2837 
Q 2550 3084 2163 3084 
Q 1697 3084 1428 2787 
Q 1159 2491 1159 1978 
L 1159 0 
L 581 0 
L 581 4863 
L 1159 4863 
L 1159 2956 
Q 1366 3272 1645 3428 
Q 1925 3584 2291 3584 
Q 2894 3584 3203 3211 
Q 3513 2838 3513 2113 
z
" transform="scale(0.015625)"/>
      <path id="DejaVuSans-6d" d="M 3328 2828 
Q 3544 3216 3844 3400 
Q 4144 3584 4550 3584 
Q 5097 3584 5394 3201 
Q 5691 2819 5691 2113 
L 5691 0 
L 5113 0 
L 5113 2094 
Q 5113 2597 4934 2840 
Q 4756 3084 4391 3084 
Q 3944 3084 3684 2787 
Q 3425 2491 3425 1978 
L 3425 0 
L 2847 0 
L 2847 2094 
Q 2847 2600 2669 2842 
Q 2491 3084 2119 3084 
Q 1678 3084 1418 2786 
Q 1159 2488 1159 1978 
L 1159 0 
L 581 0 
L 581 3500 
L 1159 3500 
L 1159 2956 
Q 1356 3278 1631 3431 
Q 1906 3584 2284 3584 
Q 2666 3584 2933 3390 
Q 3200 3197 3328 2828 
z
" transform="scale(0.015625)"/>
      <path id="DejaVuSans-79" d="M 2059 -325 
Q 1816 -950 1584 -1140 
Q 1353 -1331 966 -1331 
L 506 -1331 
L 506 -850 
L 844 -850 
Q 1081 -850 1212 -737 
Q 1344 -625 1503 -206 
L 1606 56 
L 191 3500 
L 800 3500 
L 1894 763 
L 2988 3500 
L 3597 3500 
L 2059 -325 
z
" transform="scale(0.015625)"/>
     </defs>
     <use xlink:href="#DejaVuSans-77"/>
     <use xlink:href="#DejaVuSans-69" transform="translate(81.787109 0)"/>
     <use xlink:href="#DejaVuSans-74" transform="translate(109.570312 0)"/>
     <use xlink:href="#DejaVuSans-68" transform="translate(148.779297 0)"/>
     <use xlink:href="#DejaVuSans-20" transform="translate(212.158203 0)"/>
     <use xlink:href="#DejaVuSans-6d" transform="translate(243.945312 0)"/>
     <use xlink:href="#DejaVuSans-61" transform="translate(341.357422 0)"/>
     <use xlink:href="#DejaVuSans-6e" transform="translate(402.636719 0)"/>
     <use xlink:href="#DejaVuSans-79" transform="translate(466.015625 0)"/>
     <use xlink:href="#DejaVuSans-20" transform="translate(525.195312 0)"/>
     <use xlink:href="#DejaVuSans-6c" transform="translate(556.982422 0)"/>
     <use xlink:href="#DejaVuSans-61" transform="translate(584.765625 0)"/>
     <use xlink:href="#DejaVuSans-79" transform="translate(646.044922 0)"/>
     <use xlink:href="#DejaVuSans-65" transform="translate(705.224609 0)"/>
     <use xlink:href="#DejaVuSans-72" transform="translate(766.748047 0)"/>
     <use xlink:href="#DejaVuSans-73" transform="translate(807.861328 0)"/>
    </g>
   </g>
   <g id="text_5">
    <!-- Machine Learning -->
    <g style="fill: #ffffff" transform="translate(170.270625 146.550187) scale(0.12 -0.12)">
     <defs>
      <path id="DejaVuSans-Bold-4d" d="M 588 4666 
L 2119 4666 
L 3181 2169 
L 4250 4666 
L 5778 4666 
L 5778 0 
L 4641 0 
L 4641 3413 
L 3566 897 
L 2803 897 
L 1728 3413 
L 1728 0 
L 588 0 
L 588 4666 
z
" transform="scale(0.015625)"/>
      <path id="DejaVuSans-Bold-63" d="M 3366 3391 
L 3366 2478 
Q 3138 2634 2908 2709 
Q 2678 2784 2431 2784 
Q 1963 2784 1702 2511 
Q 1441 2238 1441 1747 
Q 1441 1256 1702 982 
Q 1963 709 2431 709 
Q 2694 709 2930 787 
Q 3166 866 3366 1019 
L 3366 103 
Q 3103 6 2833 -42 
Q 2563 -91 2291 -91 
Q 1344 -91 809 395 
Q 275 881 275 1747 
Q 275 2613 809 3098 
Q 1344 3584 2291 3584 
Q 2566 3584 2833 3536 
Q 3100 3488 3366 3391 
z
" transform="scale(0.015625)"/>
      <path id="DejaVuSans-Bold-68" d="M 4056 2131 
L 4056 0 
L 2931 0 
L 2931 347 
L 2931 1625 
Q 2931 2084 2911 2256 
Q 2891 2428 2841 2509 
Q 2775 2619 2662 2680 
Q 2550 2741 2406 2741 
Q 2056 2741 1856 2470 
Q 1656 2200 1656 1722 
L 1656 0 
L 538 0 
L 538 4863 
L 1656 4863 
L 1656 2988 
Q 1909 3294 2193 3439 
Q 2478 3584 2822 3584 
Q 3428 3584 3742 3212 
Q 4056 2841 4056 2131 
z
" transform="scale(0.015625)"/>
     </defs>
     <use xlink:href="#DejaVuSans-Bold-4d"/>
     <use xlink:href="#DejaVuSans-Bold-61" transform="translate(99.511719 0)"/>
     <use xlink:href="#DejaVuSans-Bold-63" transform="translate(166.992188 0)"/>
     <use xlink:href="#DejaVuSans-Bold-68" transform="translate(226.269531 0)"/>
     <use xlink:href="#DejaVuSans-Bold-69" transform="translate(297.460938 0)"/>
     <use xlink:href="#DejaVuSans-Bold-6e" transform="translate(331.738281 0)"/>
     <use xlink:href="#DejaVuSans-Bold-65" transform="translate(402.929688 0)"/>
     <use xlink:href="#DejaVuSans-Bold-20" transform="translate(470.751953 0)"/>
     <use xlink:href="#DejaVuSans-Bold-4c" transform="translate(505.566406 0)"/>
     <use xlink:href="#DejaVuSans-Bold-65" transform="translate(569.287109 0)"/>
     <use xlink:href="#DejaVuSans-Bold-61" transform="translate(637.109375 0)"/>
     <use xlink:href="#DejaVuSans-Bold-72" transform="translate(704.589844 0)"/>
     <use xlink:href="#DejaVuSans-Bold-6e" transform="translate(753.90625 0)"/>
     <use xlink:href="#DejaVuSans-Bold-69" transform="translate(825.097656 0)"/>
     <use xlink:href="#DejaVuSans-Bold-6e" transform="translate(859.375 0)"/>
     <use xlink:href="#DejaVuSans-Bold-67" transform="translate(930.566406 0)"/>
    </g>
   </g>
   <g id="text_6">
    <!-- Algorithms that -->
    <g style="fill: #ffffff; opacity: 0.9" transform="translate(199.333125 163.694187) scale(0.08 -0.08)">
     <use xlink:href="#DejaVuSans-41"/>
     <use xlink:href="#DejaVuSans-6c" transform="translate(68.408203 0)"/>
     <use xlink:href="#DejaVuSans-67" transform="translate(96.191406 0)"/>
     <use xlink:href="#DejaVuSans-6f" transform="translate(159.667969 0)"/>
     <use xlink:href="#DejaVuSans-72" transform="translate(220.849609 0)"/>
     <use xlink:href="#DejaVuSans-69" transform="translate(261.962891 0)"/>
     <use xlink:href="#DejaVuSans-74" transform="translate(289.746094 0)"/>
     <use xlink:href="#DejaVuSans-68" transform="translate(328.955078 0)"/>
     <use xlink:href="#DejaVuSans-6d" transform="translate(392.333984 0)"/>
     <use xlink:href="#DejaVuSans-73" transform="translate(489.746094 0)"/>
     <use xlink:href="#DejaVuSans-20" transform="translate(541.845703 0)"/>
     <use xlink:href="#DejaVuSans-74" transform="translate(573.632812 0)"/>
     <use xlink:href="#DejaVuSans-68" transform="translate(612.841797 0)"/>
     <use xlink:href="#DejaVuSans-61" transform="translate(676.220703 0)"/>
     <use xlink:href="#DejaVuSans-74" transform="translate(737.5 0)"/>
    </g>
    <!-- learn from data -->
    <g style="fill: #ffffff; opacity: 0.9" transform="translate(199.408125 172.652437) scale(0.08 -0.08)">
     <defs>
      <path id="DejaVuSans-64" d="M 2906 2969 
L 2906 4863 
L 3481 4863 
L 3481 0 
L 2906 0 
L 2906 525 
Q 2725 213 2448 61 
Q 2172 -91 1784 -91 
Q 1150 -91 751 415 
Q 353 922 353 1747 
Q 353 2572 751 3078 
Q 1150 3584 1784 3584 
Q 2172 3584 2448 3432 
Q 2725 3281 2906 2969 
z
M 947 1747 
Q 947 1113 1208 752 
Q 1469 391 1925 391 
Q 2381 391 2643 752 
Q 2906 1113 2906 1747 
Q 2906 2381 2643 2742 
Q 2381 3103 1925 3103 
Q 1469 3103 1208 2742 
Q 947 2381 947 1747 
z
" transform="scale(0.015625)"/>
     </defs>
     <use xlink:href="#DejaVuSans-6c"/>
     <use xlink:href="#DejaVuSans-65" transform="translate(27.783203 0)"/>
     <use xlink:href="#DejaVuSans-61" transform="translate(89.306641 0)"/>
     <use xlink:href="#DejaVuSans-72" transform="translate(150.585938 0)"/>
     <use xlink:href="#DejaVuSans-6e" transform="translate(189.949219 0)"/>
     <use xlink:href="#DejaVuSans-20" transform="translate(253.328125 0)"/>
     <use xlink:href="#DejaVuSans-66" transform="translate(285.115234 0)"/>
     <use xlink:href="#DejaVuSans-72" transform="translate(320.320312 0)"/>
     <use xlink:href="#DejaVuSans-6f" transform="translate(359.183594 0)"/>
     <use xlink:href="#DejaVuSans-6d" transform="translate(420.365234 0)"/>
     <use xlink:href="#DejaVuSans-20" transform="translate(517.777344 0)"/>
     <use xlink:href="#DejaVuSans-64" transform="translate(549.564453 0)"/>
     <use xlink:href="#DejaVuSans-61" transform="translate(613.041016 0)"/>
     <use xlink:href="#DejaVuSans-74" transform="translate(674.320312 0)"/>
     <use xlink:href="#DejaVuSans-61" transform="translate(713.529297 0)"/>
    </g>
   </g>
   <g id="text_7">
    <!-- AI -->
    <g style="fill: #ffffff" transform="translate(223.524375 70.997062) scale(0.12 -0.12)">
     <use xlink:href="#DejaVuSans-Bold-41"/>
     <use xlink:href="#DejaVuSans-Bold-49" transform="translate(77.392578 0)"/>
    </g>
   </g>
   <g id="text_8">
    <!-- Intelligent agents -->
    <g style="fill: #ffffff; opacity: 0.9" transform="translate(195.308125 88.094187) scale(0.08 -0.08)">
     <use xlink:href="#DejaVuSans-49"/>
     <use xlink:href="#DejaVuSans-6e" transform="translate(29.492188 0)"/>
     <use xlink:href="#DejaVuSans-74" transform="translate(92.871094 0)"/>
     <use xlink:href="#DejaVuSans-65" transform="translate(132.080078 0)"/>
     <use xlink:href="#DejaVuSans-6c" transform="translate(193.603516 0)"/>
     <use xlink:href="#DejaVuSans-6c" transform="translate(221.386719 0)"/>
     <use xlink:href="#DejaVuSans-69" transform="translate(249.169922 0)"/>
     <use xlink:href="#DejaVuSans-67" transform="translate(276.953125 0)"/>
     <use xlink:href="#DejaVuSans-65" transform="translate(340.429688 0)"/>
     <use xlink:href="#DejaVuSans-6e" transform="translate(401.953125 0)"/>
     <use xlink:href="#DejaVuSans-74" transform="translate(465.332031 0)"/>
     <use xlink:href="#DejaVuSans-20" transform="translate(504.541016 0)"/>
     <use xlink:href="#DejaVuSans-61" transform="translate(536.328125 0)"/>
     <use xlink:href="#DejaVuSans-67" transform="translate(597.607422 0)"/>
     <use xlink:href="#DejaVuSans-65" transform="translate(661.083984 0)"/>
     <use xlink:href="#DejaVuSans-6e" transform="translate(722.607422 0)"/>
     <use xlink:href="#DejaVuSans-74" transform="translate(785.986328 0)"/>
     <use xlink:href="#DejaVuSans-73" transform="translate(825.195312 0)"/>
    </g>
    <!-- and systems -->
    <g style="fill: #ffffff; opacity: 0.9" transform="translate(205.05875 97.052437) scale(0.08 -0.08)">
     <use xlink:href="#DejaVuSans-61"/>
     <use xlink:href="#DejaVuSans-6e" transform="translate(61.279297 0)"/>
     <use xlink:href="#DejaVuSans-64" transform="translate(124.658203 0)"/>
     <use xlink:href="#DejaVuSans-20" transform="translate(188.134766 0)"/>
     <use xlink:href="#DejaVuSans-73" transform="translate(219.921875 0)"/>
     <use xlink:href="#DejaVuSans-79" transform="translate(272.021484 0)"/>
     <use xlink:href="#DejaVuSans-73" transform="translate(331.201172 0)"/>
     <use xlink:href="#DejaVuSans-74" transform="translate(383.300781 0)"/>
     <use xlink:href="#DejaVuSans-65" transform="translate(422.509766 0)"/>
     <use xlink:href="#DejaVuSans-6d" transform="translate(484.033203 0)"/>
     <use xlink:href="#DejaVuSans-73" transform="translate(581.445312 0)"/>
    </g>
   </g>
   <g id="text_9">
    <!-- The AI Capability Pyramid -->
    <g transform="translate(128.142031 17.837812) scale(0.14 -0.14)">
     <defs>
      <path id="DejaVuSans-Bold-54" d="M 31 4666 
L 4331 4666 
L 4331 3756 
L 2784 3756 
L 2784 0 
L 1581 0 
L 1581 3756 
L 31 3756 
L 31 4666 
z
" transform="scale(0.015625)"/>
      <path id="DejaVuSans-Bold-43" d="M 4288 256 
Q 3956 84 3597 -3 
Q 3238 -91 2847 -91 
Q 1681 -91 1000 561 
Q 319 1213 319 2328 
Q 319 3447 1000 4098 
Q 1681 4750 2847 4750 
Q 3238 4750 3597 4662 
Q 3956 4575 4288 4403 
L 4288 3438 
Q 3953 3666 3628 3772 
Q 3303 3878 2944 3878 
Q 2300 3878 1931 3465 
Q 1563 3053 1563 2328 
Q 1563 1606 1931 1193 
Q 2300 781 2944 781 
Q 3303 781 3628 887 
Q 3953 994 4288 1222 
L 4288 256 
z
" transform="scale(0.015625)"/>
      <path id="DejaVuSans-Bold-62" d="M 2400 722 
Q 2759 722 2948 984 
Q 3138 1247 3138 1747 
Q 3138 2247 2948 2509 
Q 2759 2772 2400 2772 
Q 2041 2772 1848 2508 
Q 1656 2244 1656 1747 
Q 1656 1250 1848 986 
Q 2041 722 2400 722 
z
M 1656 2988 
Q 1888 3294 2169 3439 
Q 2450 3584 2816 3584 
Q 3463 3584 3878 3070 
Q 4294 2556 4294 1747 
Q 4294 938 3878 423 
Q 3463 -91 2816 -91 
Q 2450 -91 2169 54 
Q 1888 200 1656 506 
L 1656 0 
L 538 0 
L 538 4863 
L 1656 4863 
L 1656 2988 
z
" transform="scale(0.015625)"/>
      <path id="DejaVuSans-Bold-6c" d="M 538 4863 
L 1656 4863 
L 1656 0 
L 538 0 
L 538 4863 
z
" transform="scale(0.015625)"/>
      <path id="DejaVuSans-Bold-74" d="M 1759 4494 
L 1759 3500 
L 2913 3500 
L 2913 2700 
L 1759 2700 
L 1759 1216 
Q 1759 972 1856 886 
Q 1953 800 2241 800 
L 2816 800 
L 2816 0 
L 1856 0 
Q 1194 0 917 276 
Q 641 553 641 1216 
L 641 2700 
L 84 2700 
L 84 3500 
L 641 3500 
L 641 4494 
L 1759 4494 
z
" transform="scale(0.015625)"/>
      <path id="DejaVuSans-Bold-79" d="M 78 3500 
L 1197 3500 
L 2138 1125 
L 2938 3500 
L 4056 3500 
L 2584 -331 
Q 2363 -916 2067 -1148 
Q 1772 -1381 1288 -1381 
L 641 -1381 
L 641 -647 
L 991 -647 
Q 1275 -647 1404 -556 
Q 1534 -466 1606 -231 
L 1638 -134 
L 78 3500 
z
" transform="scale(0.015625)"/>
      <path id="DejaVuSans-Bold-50" d="M 588 4666 
L 2584 4666 
Q 3475 4666 3951 4270 
Q 4428 3875 4428 3144 
Q 4428 2409 3951 2014 
Q 3475 1619 2584 1619 
L 1791 1619 
L 1791 0 
L 588 0 
L 588 4666 
z
M 1791 3794 
L 1791 2491 
L 2456 2491 
Q 2806 2491 2997 2661 
Q 3188 2831 3188 3144 
Q 3188 3456 2997 3625 
Q 2806 3794 2456 3794 
L 1791 3794 
z
" transform="scale(0.015625)"/>
      <path id="DejaVuSans-Bold-6d" d="M 3781 2919 
Q 3994 3244 4286 3414 
Q 4578 3584 4928 3584 
Q 5531 3584 5847 3212 
Q 6163 2841 6163 2131 
L 6163 0 
L 5038 0 
L 5038 1825 
Q 5041 1866 5042 1909 
Q 5044 1953 5044 2034 
Q 5044 2406 4934 2573 
Q 4825 2741 4581 2741 
Q 4263 2741 4089 2478 
Q 3916 2216 3909 1719 
L 3909 0 
L 2784 0 
L 2784 1825 
Q 2784 2406 2684 2573 
Q 2584 2741 2328 2741 
Q 2006 2741 1831 2477 
Q 1656 2213 1656 1722 
L 1656 0 
L 531 0 
L 531 3500 
L 1656 3500 
L 1656 2988 
Q 1863 3284 2130 3434 
Q 2397 3584 2719 3584 
Q 3081 3584 3359 3409 
Q 3638 3234 3781 2919 
z
" transform="scale(0.015625)"/>
      <path id="DejaVuSans-Bold-64" d="M 2919 2988 
L 2919 4863 
L 4044 4863 
L 4044 0 
L 2919 0 
L 2919 506 
Q 2688 197 2409 53 
Q 2131 -91 1766 -91 
Q 1119 -91 703 423 
Q 288 938 288 1747 
Q 288 2556 703 3070 
Q 1119 3584 1766 3584 
Q 2128 3584 2408 3439 
Q 2688 3294 2919 2988 
z
M 2181 722 
Q 2541 722 2730 984 
Q 2919 1247 2919 1747 
Q 2919 2247 2730 2509 
Q 2541 2772 2181 2772 
Q 1825 2772 1636 2509 
Q 1447 2247 1447 1747 
Q 1447 1247 1636 984 
Q 1825 722 2181 722 
z
" transform="scale(0.015625)"/>
     </defs>
     <use xlink:href="#DejaVuSans-Bold-54"/>
     <use xlink:href="#DejaVuSans-Bold-68" transform="translate(68.212891 0)"/>
     <use xlink:href="#DejaVuSans-Bold-65" transform="translate(139.404297 0)"/>
     <use xlink:href="#DejaVuSans-Bold-20" transform="translate(207.226562 0)"/>
     <use xlink:href="#DejaVuSans-Bold-41" transform="translate(242.041016 0)"/>
     <use xlink:href="#DejaVuSans-Bold-49" transform="translate(319.433594 0)"/>
     <use xlink:href="#DejaVuSans-Bold-20" transform="translate(356.640625 0)"/>
     <use xlink:href="#DejaVuSans-Bold-43" transform="translate(391.455078 0)"/>
     <use xlink:href="#DejaVuSans-Bold-61" transform="translate(464.84375 0)"/>
     <use xlink:href="#DejaVuSans-Bold-70" transform="translate(532.324219 0)"/>
     <use xlink:href="#DejaVuSans-Bold-61" transform="translate(603.90625 0)"/>
     <use xlink:href="#DejaVuSans-Bold-62" transform="translate(671.386719 0)"/>
     <use xlink:href="#DejaVuSans-Bold-69" transform="translate(742.96875 0)"/>
     <use xlink:href="#DejaVuSans-Bold-6c" transform="translate(777.246094 0)"/>
     <use xlink:href="#DejaVuSans-Bold-69" transform="translate(811.523438 0)"/>
     <use xlink:href="#DejaVuSans-Bold-74" transform="translate(845.800781 0)"/>
     <use xlink:href="#DejaVuSans-Bold-79" transform="translate(893.603516 0)"/>
     <use xlink:href="#DejaVuSans-Bold-20" transform="translate(958.789062 0)"/>
     <use xlink:href="#DejaVuSans-Bold-50" transform="translate(993.603516 0)"/>
     <use xlink:href="#DejaVuSans-Bold-79" transform="translate(1068.769531 0)"/>
     <use xlink:href="#DejaVuSans-Bold-72" transform="translate(1133.955078 0)"/>
     <use xlink:href="#DejaVuSans-Bold-61" transform="translate(1183.271484 0)"/>
     <use xlink:href="#DejaVuSans-Bold-6d" transform="translate(1250.751953 0)"/>
     <use xlink:href="#DejaVuSans-Bold-69" transform="translate(1354.951172 0)"/>
     <use xlink:href="#DejaVuSans-Bold-64" transform="translate(1389.228516 0)"/>
    </g>
   </g>
  </g>
 </g>
 <defs>
  <clipPath id="p723c35b9fb">
   <rect x="7.2" y="23.837812" width="446.4" height="332.64"/>
  </clipPath>
 </defs>
</svg>
