<?xml version="1.0" encoding="utf-8" standalone="no"?>
<!DOCTYPE svg PUBLIC "-//W3C//DTD SVG 1.1//EN"
  "http://www.w3.org/Graphics/SVG/1.1/DTD/svg11.dtd">
<svg xmlns:xlink="http://www.w3.org/1999/xlink" width="591.241477pt" height="402.48pt" viewBox="0 0 591.241477 402.48" xmlns="http://www.w3.org/2000/svg" version="1.1">
 <metadata>
  <rdf:RDF xmlns:dc="http://purl.org/dc/elements/1.1/" xmlns:cc="http://creativecommons.org/ns#" xmlns:rdf="http://www.w3.org/1999/02/22-rdf-syntax-ns#">
   <cc:Work>
    <dc:type rdf:resource="http://purl.org/dc/dcmitype/StillImage"/>
    <dc:date>2026-07-08T10:06:06.726857</dc:date>
    <dc:format>image/svg+xml</dc:format>
    <dc:creator>
     <cc:Agent>
      <dc:title>Matplotlib v3.10.1, https://matplotlib.org/</dc:title>
     </cc:Agent>
    </dc:creator>
   </cc:Work>
  </rdf:RDF>
 </metadata>
 <defs>
  <style type="text/css">*{stroke-linejoin: round; stroke-linecap: butt}</style>
 </defs>
 <g id="figure_1">
  <g id="patch_1">
   <path d="M 0 402.48 
L 591.241477 402.48 
L 591.241477 -0 
L 0 -0 
z
" style="fill: #ffffff"/>
  </g>
  <g id="axes_1">
   <g id="line2d_1">
    <path d="M 288.826989 180.487059 
L 143.891924 24.84 
" clip-path="url(#p564ba1fc8f)" style="fill: none; stroke: #808080; stroke-opacity: 0.5; stroke-linecap: square"/>
   </g>
   <g id="line2d_2">
    <path d="M 288.826989 180.487059 
L 506.229586 24.84 
" clip-path="url(#p564ba1fc8f)" style="fill: none; stroke: #808080; stroke-opacity: 0.5; stroke-linecap: square"/>
   </g>
   <g id="line2d_3">
    <path d="M 288.826989 180.487059 
L 542.463352 284.251765 
" clip-path="url(#p564ba1fc8f)" style="fill: none; stroke: #808080; stroke-opacity: 0.5; stroke-linecap: square"/>
   </g>
   <g id="line2d_4">
    <path d="M 288.826989 180.487059 
L 71.424391 284.251765 
" clip-path="url(#p564ba1fc8f)" style="fill: none; stroke: #808080; stroke-opacity: 0.5; stroke-linecap: square"/>
   </g>
   <g id="line2d_5">
    <path d="M 288.826989 180.487059 
L 288.826989 377.64 
" clip-path="url(#p564ba1fc8f)" style="fill: none; stroke: #808080; stroke-opacity: 0.5; stroke-linecap: square"/>
   </g>
   <g id="line2d_6">
    <path d="M 288.826989 180.487059 
L 35.190625 128.604706 
" clip-path="url(#p564ba1fc8f)" style="fill: none; stroke: #808080; stroke-opacity: 0.5; stroke-linecap: square"/>
   </g>
   <g id="text_1">
    <g id="patch_2">
     <path d="M 288.826989 233.502215 
C 302.886772 233.502215 316.372597 227.916204 326.314365 217.974435 
C 336.256134 208.032667 341.842145 194.546843 341.842145 180.487059 
C 341.842145 166.427275 336.256134 152.941451 326.314365 142.999682 
C 316.372597 133.057914 302.886772 127.471903 288.826989 127.471903 
C 274.767205 127.471903 261.281381 133.057914 251.339612 142.999682 
C 241.397844 152.941451 235.811832 166.427275 235.811832 180.487059 
C 235.811832 194.546843 241.397844 208.032667 251.339612 217.974435 
C 261.281381 227.916204 274.767205 233.502215 288.826989 233.502215 
z
" style="fill: #1e88e5; opacity: 0.85; stroke: #ffffff; stroke-linejoin: miter"/>
    </g>
    <!-- AI -->
    <g transform="translate(280.805426 176.511715) scale(0.14 -0.14)">
     <defs>
      <path id="DejaVuSans-Bold-41" d="M 3419 850 
L 1538 850 
L 1241 0 
L 31 0 
L 1759 4666 
L 3194 4666 
L 4922 0 
L 3713 0 
L 3419 850 
z
M 1838 1716 
L 3116 1716 
L 2478 3572 
L 1838 1716 
z
" transform="scale(0.015625)"/>
      <path id="DejaVuSans-Bold-49" d="M 588 4666 
L 1791 4666 
L 1791 0 
L 588 0 
L 588 4666 
z
" transform="scale(0.015625)"/>
     </defs>
     <use xlink:href="#DejaVuSans-Bold-41"/>
     <use xlink:href="#DejaVuSans-Bold-49" transform="translate(77.392578 0)"/>
    </g>
    <!-- Applications -->
    <g transform="translate(240.011832 192.188653) scale(0.14 -0.14)">
     <defs>
      <path id="DejaVuSans-Bold-70" d="M 1656 506 
L 1656 -1331 
L 538 -1331 
L 538 3500 
L 1656 3500 
L 1656 2988 
Q 1888 3294 2169 3439 
Q 2450 3584 2816 3584 
Q 3463 3584 3878 3070 
Q 4294 2556 4294 1747 
Q 4294 938 3878 423 
Q 3463 -91 2816 -91 
Q 2450 -91 2169 54 
Q 1888 200 1656 506 
z
M 2400 2772 
Q 2041 2772 1848 2508 
Q 1656 2244 1656 1747 
Q 1656 1250 1848 986 
Q 2041 722 2400 722 
Q 2759 722 2948 984 
Q 3138 1247 3138 1747 
Q 3138 2247 2948 2509 
Q 2759 2772 2400 2772 
z
" transform="scale(0.015625)"/>
      <path id="DejaVuSans-Bold-6c" d="M 538 4863 
L 1656 4863 
L 1656 0 
L 538 0 
L 538 4863 
z
" transform="scale(0.015625)"/>
      <path id="DejaVuSans-Bold-69" d="M 538 3500 
L 1656 3500 
L 1656 0 
L 538 0 
L 538 3500 
z
M 538 4863 
L 1656 4863 
L 1656 3950 
L 538 3950 
L 538 4863 
z
" transform="scale(0.015625)"/>
      <path id="DejaVuSans-Bold-63" d="M 3366 3391 
L 3366 2478 
Q 3138 2634 2908 2709 
Q 2678 2784 2431 2784 
Q 1963 2784 1702 2511 
Q 1441 2238 1441 1747 
Q 1441 1256 1702 982 
Q 1963 709 2431 709 
Q 2694 709 2930 787 
Q 3166 866 3366 1019 
L 3366 103 
Q 3103 6 2833 -42 
Q 2563 -91 2291 -91 
Q 1344 -91 809 395 
Q 275 881 275 1747 
Q 275 2613 809 3098 
Q 1344 3584 2291 3584 
Q 2566 3584 2833 3536 
Q 3100 3488 3366 3391 
z
" transform="scale(0.015625)"/>
      <path id="DejaVuSans-Bold-61" d="M 2106 1575 
Q 1756 1575 1579 1456 
Q 1403 1338 1403 1106 
Q 1403 894 1545 773 
Q 1688 653 1941 653 
Q 2256 653 2472 879 
Q 2688 1106 2688 1447 
L 2688 1575 
L 2106 1575 
z
M 3816 1997 
L 3816 0 
L 2688 0 
L 2688 519 
Q 2463 200 2181 54 
Q 1900 -91 1497 -91 
Q 953 -91 614 226 
Q 275 544 275 1050 
Q 275 1666 698 1953 
Q 1122 2241 2028 2241 
L 2688 2241 
L 2688 2328 
Q 2688 2594 2478 2717 
Q 2269 2841 1825 2841 
Q 1466 2841 1156 2769 
Q 847 2697 581 2553 
L 581 3406 
Q 941 3494 1303 3539 
Q 1666 3584 2028 3584 
Q 2975 3584 3395 3211 
Q 3816 2838 3816 1997 
z
" transform="scale(0.015625)"/>
      <path id="DejaVuSans-Bold-74" d="M 1759 4494 
L 1759 3500 
L 2913 3500 
L 2913 2700 
L 1759 2700 
L 1759 1216 
Q 1759 972 1856 886 
Q 1953 800 2241 800 
L 2816 800 
L 2816 0 
L 1856 0 
Q 1194 0 917 276 
Q 641 553 641 1216 
L 641 2700 
L 84 2700 
L 84 3500 
L 641 3500 
L 641 4494 
L 1759 4494 
z
" transform="scale(0.015625)"/>
      <path id="DejaVuSans-Bold-6f" d="M 2203 2784 
Q 1831 2784 1636 2517 
Q 1441 2250 1441 1747 
Q 1441 1244 1636 976 
Q 1831 709 2203 709 
Q 2569 709 2762 976 
Q 2956 1244 2956 1747 
Q 2956 2250 2762 2517 
Q 2569 2784 2203 2784 
z
M 2203 3584 
Q 3106 3584 3614 3096 
Q 4122 2609 4122 1747 
Q 4122 884 3614 396 
Q 3106 -91 2203 -91 
Q 1297 -91 786 396 
Q 275 884 275 1747 
Q 275 2609 786 3096 
Q 1297 3584 2203 3584 
z
" transform="scale(0.015625)"/>
      <path id="DejaVuSans-Bold-6e" d="M 4056 2131 
L 4056 0 
L 2931 0 
L 2931 347 
L 2931 1631 
Q 2931 2084 2911 2256 
Q 2891 2428 2841 2509 
Q 2775 2619 2662 2680 
Q 2550 2741 2406 2741 
Q 2056 2741 1856 2470 
Q 1656 2200 1656 1722 
L 1656 0 
L 538 0 
L 538 3500 
L 1656 3500 
L 1656 2988 
Q 1909 3294 2193 3439 
Q 2478 3584 2822 3584 
Q 3428 3584 3742 3212 
Q 4056 2841 4056 2131 
z
" transform="scale(0.015625)"/>
      <path id="DejaVuSans-Bold-73" d="M 3272 3391 
L 3272 2541 
Q 2913 2691 2578 2766 
Q 2244 2841 1947 2841 
Q 1628 2841 1473 2761 
Q 1319 2681 1319 2516 
Q 1319 2381 1436 2309 
Q 1553 2238 1856 2203 
L 2053 2175 
Q 2913 2066 3209 1816 
Q 3506 1566 3506 1031 
Q 3506 472 3093 190 
Q 2681 -91 1863 -91 
Q 1516 -91 1145 -36 
Q 775 19 384 128 
L 384 978 
Q 719 816 1070 734 
Q 1422 653 1784 653 
Q 2113 653 2278 743 
Q 2444 834 2444 1013 
Q 2444 1163 2330 1236 
Q 2216 1309 1875 1350 
L 1678 1375 
Q 931 1469 631 1722 
Q 331 1975 331 2491 
Q 331 3047 712 3315 
Q 1094 3584 1881 3584 
Q 2191 3584 2531 3537 
Q 2872 3491 3272 3391 
z
" transform="scale(0.015625)"/>
     </defs>
     <use xlink:href="#DejaVuSans-Bold-41"/>
     <use xlink:href="#DejaVuSans-Bold-70" transform="translate(77.392578 0)"/>
     <use xlink:href="#DejaVuSans-Bold-70" transform="translate(148.974609 0)"/>
     <use xlink:href="#DejaVuSans-Bold-6c" transform="translate(220.556641 0)"/>
     <use xlink:href="#DejaVuSans-Bold-69" transform="translate(254.833984 0)"/>
     <use xlink:href="#DejaVuSans-Bold-63" transform="translate(289.111328 0)"/>
     <use xlink:href="#DejaVuSans-Bold-61" transform="translate(348.388672 0)"/>
     <use xlink:href="#DejaVuSans-Bold-74" transform="translate(415.869141 0)"/>
     <use xlink:href="#DejaVuSans-Bold-69" transform="translate(463.671875 0)"/>
     <use xlink:href="#DejaVuSans-Bold-6f" transform="translate(497.949219 0)"/>
     <use xlink:href="#DejaVuSans-Bold-6e" transform="translate(566.650391 0)"/>
     <use xlink:href="#DejaVuSans-Bold-73" transform="translate(637.841797 0)"/>
    </g>
   </g>
   <g id="text_2">
    <g id="patch_3">
     <path d="M 113.08333 32.679062 
L 174.700517 32.679062 
Q 177.700517 32.679062 177.700517 29.679062 
L 177.700517 20.000937 
Q 177.700517 17.000937 174.700517 17.000937 
L 113.08333 17.000937 
Q 110.08333 17.000937 110.08333 20.000937 
L 110.08333 29.679062 
Q 110.08333 32.679062 113.08333 32.679062 
z
" style="fill: #e53935; opacity: 0.85; stroke: #ffffff; stroke-linejoin: miter"/>
    </g>
    <!-- Healthcare -->
    <g style="fill: #ffffff" transform="translate(113.08333 27.599375) scale(0.1 -0.1)">
     <defs>
      <path id="DejaVuSans-Bold-48" d="M 588 4666 
L 1791 4666 
L 1791 2888 
L 3566 2888 
L 3566 4666 
L 4769 4666 
L 4769 0 
L 3566 0 
L 3566 1978 
L 1791 1978 
L 1791 0 
L 588 0 
L 588 4666 
z
" transform="scale(0.015625)"/>
      <path id="DejaVuSans-Bold-65" d="M 4031 1759 
L 4031 1441 
L 1416 1441 
Q 1456 1047 1700 850 
Q 1944 653 2381 653 
Q 2734 653 3104 758 
Q 3475 863 3866 1075 
L 3866 213 
Q 3469 63 3072 -14 
Q 2675 -91 2278 -91 
Q 1328 -91 801 392 
Q 275 875 275 1747 
Q 275 2603 792 3093 
Q 1309 3584 2216 3584 
Q 3041 3584 3536 3087 
Q 4031 2591 4031 1759 
z
M 2881 2131 
Q 2881 2450 2695 2645 
Q 2509 2841 2209 2841 
Q 1884 2841 1681 2658 
Q 1478 2475 1428 2131 
L 2881 2131 
z
" transform="scale(0.015625)"/>
      <path id="DejaVuSans-Bold-68" d="M 4056 2131 
L 4056 0 
L 2931 0 
L 2931 347 
L 2931 1625 
Q 2931 2084 2911 2256 
Q 2891 2428 2841 2509 
Q 2775 2619 2662 2680 
Q 2550 2741 2406 2741 
Q 2056 2741 1856 2470 
Q 1656 2200 1656 1722 
L 1656 0 
L 538 0 
L 538 4863 
L 1656 4863 
L 1656 2988 
Q 1909 3294 2193 3439 
Q 2478 3584 2822 3584 
Q 3428 3584 3742 3212 
Q 4056 2841 4056 2131 
z
" transform="scale(0.015625)"/>
      <path id="DejaVuSans-Bold-72" d="M 3138 2547 
Q 2991 2616 2845 2648 
Q 2700 2681 2553 2681 
Q 2122 2681 1889 2404 
Q 1656 2128 1656 1613 
L 1656 0 
L 538 0 
L 538 3500 
L 1656 3500 
L 1656 2925 
Q 1872 3269 2151 3426 
Q 2431 3584 2822 3584 
Q 2878 3584 2943 3579 
Q 3009 3575 3134 3559 
L 3138 2547 
z
" transform="scale(0.015625)"/>
     </defs>
     <use xlink:href="#DejaVuSans-Bold-48"/>
     <use xlink:href="#DejaVuSans-Bold-65" transform="translate(83.691406 0)"/>
     <use xlink:href="#DejaVuSans-Bold-61" transform="translate(151.513672 0)"/>
     <use xlink:href="#DejaVuSans-Bold-6c" transform="translate(218.994141 0)"/>
     <use xlink:href="#DejaVuSans-Bold-74" transform="translate(253.271484 0)"/>
     <use xlink:href="#DejaVuSans-Bold-68" transform="translate(301.074219 0)"/>
     <use xlink:href="#DejaVuSans-Bold-63" transform="translate(372.265625 0)"/>
     <use xlink:href="#DejaVuSans-Bold-61" transform="translate(431.542969 0)"/>
     <use xlink:href="#DejaVuSans-Bold-72" transform="translate(499.023438 0)"/>
     <use xlink:href="#DejaVuSans-Bold-65" transform="translate(548.339844 0)"/>
    </g>
   </g>
   <g id="text_3">
    <!-- • Diagnosis -->
    <g style="fill: #696969" transform="translate(174.429665 99.406857) scale(0.07 -0.07)">
     <defs>
      <path id="DejaVuSans-2022" d="M 959 2381 
Q 959 2769 1229 3036 
Q 1500 3303 1894 3303 
Q 2281 3303 2548 3036 
Q 2816 2769 2816 2381 
Q 2816 1991 2547 1722 
Q 2278 1453 1888 1453 
Q 1497 1453 1228 1722 
Q 959 1991 959 2381 
z
" transform="scale(0.015625)"/>
      <path id="DejaVuSans-20" transform="scale(0.015625)"/>
      <path id="DejaVuSans-44" d="M 1259 4147 
L 1259 519 
L 2022 519 
Q 2988 519 3436 956 
Q 3884 1394 3884 2338 
Q 3884 3275 3436 3711 
Q 2988 4147 2022 4147 
L 1259 4147 
z
M 628 4666 
L 1925 4666 
Q 3281 4666 3915 4102 
Q 4550 3538 4550 2338 
Q 4550 1131 3912 565 
Q 3275 0 1925 0 
L 628 0 
L 628 4666 
z
" transform="scale(0.015625)"/>
      <path id="DejaVuSans-69" d="M 603 3500 
L 1178 3500 
L 1178 0 
L 603 0 
L 603 3500 
z
M 603 4863 
L 1178 4863 
L 1178 4134 
L 603 4134 
L 603 4863 
z
" transform="scale(0.015625)"/>
      <path id="DejaVuSans-61" d="M 2194 1759 
Q 1497 1759 1228 1600 
Q 959 1441 959 1056 
Q 959 750 1161 570 
Q 1363 391 1709 391 
Q 2188 391 2477 730 
Q 2766 1069 2766 1631 
L 2766 1759 
L 2194 1759 
z
M 3341 1997 
L 3341 0 
L 2766 0 
L 2766 531 
Q 2569 213 2275 61 
Q 1981 -91 1556 -91 
Q 1019 -91 701 211 
Q 384 513 384 1019 
Q 384 1609 779 1909 
Q 1175 2209 1959 2209 
L 2766 2209 
L 2766 2266 
Q 2766 2663 2505 2880 
Q 2244 3097 1772 3097 
Q 1472 3097 1187 3025 
Q 903 2953 641 2809 
L 641 3341 
Q 956 3463 1253 3523 
Q 1550 3584 1831 3584 
Q 2591 3584 2966 3190 
Q 3341 2797 3341 1997 
z
" transform="scale(0.015625)"/>
      <path id="DejaVuSans-67" d="M 2906 1791 
Q 2906 2416 2648 2759 
Q 2391 3103 1925 3103 
Q 1463 3103 1205 2759 
Q 947 2416 947 1791 
Q 947 1169 1205 825 
Q 1463 481 1925 481 
Q 2391 481 2648 825 
Q 2906 1169 2906 1791 
z
M 3481 434 
Q 3481 -459 3084 -895 
Q 2688 -1331 1869 -1331 
Q 1566 -1331 1297 -1286 
Q 1028 -1241 775 -1147 
L 775 -588 
Q 1028 -725 1275 -790 
Q 1522 -856 1778 -856 
Q 2344 -856 2625 -561 
Q 2906 -266 2906 331 
L 2906 616 
Q 2728 306 2450 153 
Q 2172 0 1784 0 
Q 1141 0 747 490 
Q 353 981 353 1791 
Q 353 2603 747 3093 
Q 1141 3584 1784 3584 
Q 2172 3584 2450 3431 
Q 2728 3278 2906 2969 
L 2906 3500 
L 3481 3500 
L 3481 434 
z
" transform="scale(0.015625)"/>
      <path id="DejaVuSans-6e" d="M 3513 2113 
L 3513 0 
L 2938 0 
L 2938 2094 
Q 2938 2591 2744 2837 
Q 2550 3084 2163 3084 
Q 1697 3084 1428 2787 
Q 1159 2491 1159 1978 
L 1159 0 
L 581 0 
L 581 3500 
L 1159 3500 
L 1159 2956 
Q 1366 3272 1645 3428 
Q 1925 3584 2291 3584 
Q 2894 3584 3203 3211 
Q 3513 2838 3513 2113 
z
" transform="scale(0.015625)"/>
      <path id="DejaVuSans-6f" d="M 1959 3097 
Q 1497 3097 1228 2736 
Q 959 2375 959 1747 
Q 959 1119 1226 758 
Q 1494 397 1959 397 
Q 2419 397 2687 759 
Q 2956 1122 2956 1747 
Q 2956 2369 2687 2733 
Q 2419 3097 1959 3097 
z
M 1959 3584 
Q 2709 3584 3137 3096 
Q 3566 2609 3566 1747 
Q 3566 888 3137 398 
Q 2709 -91 1959 -91 
Q 1206 -91 779 398 
Q 353 888 353 1747 
Q 353 2609 779 3096 
Q 1206 3584 1959 3584 
z
" transform="scale(0.015625)"/>
      <path id="DejaVuSans-73" d="M 2834 3397 
L 2834 2853 
Q 2591 2978 2328 3040 
Q 2066 3103 1784 3103 
Q 1356 3103 1142 2972 
Q 928 2841 928 2578 
Q 928 2378 1081 2264 
Q 1234 2150 1697 2047 
L 1894 2003 
Q 2506 1872 2764 1633 
Q 3022 1394 3022 966 
Q 3022 478 2636 193 
Q 2250 -91 1575 -91 
Q 1294 -91 989 -36 
Q 684 19 347 128 
L 347 722 
Q 666 556 975 473 
Q 1284 391 1588 391 
Q 1994 391 2212 530 
Q 2431 669 2431 922 
Q 2431 1156 2273 1281 
Q 2116 1406 1581 1522 
L 1381 1569 
Q 847 1681 609 1914 
Q 372 2147 372 2553 
Q 372 3047 722 3315 
Q 1072 3584 1716 3584 
Q 2034 3584 2315 3537 
Q 2597 3491 2834 3397 
z
" transform="scale(0.015625)"/>
     </defs>
     <use xlink:href="#DejaVuSans-2022"/>
     <use xlink:href="#DejaVuSans-20" transform="translate(58.984375 0)"/>
     <use xlink:href="#DejaVuSans-44" transform="translate(90.771484 0)"/>
     <use xlink:href="#DejaVuSans-69" transform="translate(167.773438 0)"/>
     <use xlink:href="#DejaVuSans-61" transform="translate(195.556641 0)"/>
     <use xlink:href="#DejaVuSans-67" transform="translate(256.835938 0)"/>
     <use xlink:href="#DejaVuSans-6e" transform="translate(320.3125 0)"/>
     <use xlink:href="#DejaVuSans-6f" transform="translate(383.691406 0)"/>
     <use xlink:href="#DejaVuSans-73" transform="translate(444.873047 0)"/>
     <use xlink:href="#DejaVuSans-69" transform="translate(496.972656 0)"/>
     <use xlink:href="#DejaVuSans-73" transform="translate(524.755859 0)"/>
    </g>
   </g>
   <g id="text_4">
    <!-- • Drug Discovery -->
    <g style="fill: #696969" transform="translate(164.463962 81.248033) scale(0.07 -0.07)">
     <defs>
      <path id="DejaVuSans-72" d="M 2631 2963 
Q 2534 3019 2420 3045 
Q 2306 3072 2169 3072 
Q 1681 3072 1420 2755 
Q 1159 2438 1159 1844 
L 1159 0 
L 581 0 
L 581 3500 
L 1159 3500 
L 1159 2956 
Q 1341 3275 1631 3429 
Q 1922 3584 2338 3584 
Q 2397 3584 2469 3576 
Q 2541 3569 2628 3553 
L 2631 2963 
z
" transform="scale(0.015625)"/>
      <path id="DejaVuSans-75" d="M 544 1381 
L 544 3500 
L 1119 3500 
L 1119 1403 
Q 1119 906 1312 657 
Q 1506 409 1894 409 
Q 2359 409 2629 706 
Q 2900 1003 2900 1516 
L 2900 3500 
L 3475 3500 
L 3475 0 
L 2900 0 
L 2900 538 
Q 2691 219 2414 64 
Q 2138 -91 1772 -91 
Q 1169 -91 856 284 
Q 544 659 544 1381 
z
M 1991 3584 
L 1991 3584 
z
" transform="scale(0.015625)"/>
      <path id="DejaVuSans-63" d="M 3122 3366 
L 3122 2828 
Q 2878 2963 2633 3030 
Q 2388 3097 2138 3097 
Q 1578 3097 1268 2742 
Q 959 2388 959 1747 
Q 959 1106 1268 751 
Q 1578 397 2138 397 
Q 2388 397 2633 464 
Q 2878 531 3122 666 
L 3122 134 
Q 2881 22 2623 -34 
Q 2366 -91 2075 -91 
Q 1284 -91 818 406 
Q 353 903 353 1747 
Q 353 2603 823 3093 
Q 1294 3584 2113 3584 
Q 2378 3584 2631 3529 
Q 2884 3475 3122 3366 
z
" transform="scale(0.015625)"/>
      <path id="DejaVuSans-76" d="M 191 3500 
L 800 3500 
L 1894 563 
L 2988 3500 
L 3597 3500 
L 2284 0 
L 1503 0 
L 191 3500 
z
" transform="scale(0.015625)"/>
      <path id="DejaVuSans-65" d="M 3597 1894 
L 3597 1613 
L 953 1613 
Q 991 1019 1311 708 
Q 1631 397 2203 397 
Q 2534 397 2845 478 
Q 3156 559 3463 722 
L 3463 178 
Q 3153 47 2828 -22 
Q 2503 -91 2169 -91 
Q 1331 -91 842 396 
Q 353 884 353 1716 
Q 353 2575 817 3079 
Q 1281 3584 2069 3584 
Q 2775 3584 3186 3129 
Q 3597 2675 3597 1894 
z
M 3022 2063 
Q 3016 2534 2758 2815 
Q 2500 3097 2075 3097 
Q 1594 3097 1305 2825 
Q 1016 2553 972 2059 
L 3022 2063 
z
" transform="scale(0.015625)"/>
      <path id="DejaVuSans-79" d="M 2059 -325 
Q 1816 -950 1584 -1140 
Q 1353 -1331 966 -1331 
L 506 -1331 
L 506 -850 
L 844 -850 
Q 1081 -850 1212 -737 
Q 1344 -625 1503 -206 
L 1606 56 
L 191 3500 
L 800 3500 
L 1894 763 
L 2988 3500 
L 3597 3500 
L 2059 -325 
z
" transform="scale(0.015625)"/>
     </defs>
     <use xlink:href="#DejaVuSans-2022"/>
     <use xlink:href="#DejaVuSans-20" transform="translate(58.984375 0)"/>
     <use xlink:href="#DejaVuSans-44" transform="translate(90.771484 0)"/>
     <use xlink:href="#DejaVuSans-72" transform="translate(167.773438 0)"/>
     <use xlink:href="#DejaVuSans-75" transform="translate(208.886719 0)"/>
     <use xlink:href="#DejaVuSans-67" transform="translate(272.265625 0)"/>
     <use xlink:href="#DejaVuSans-20" transform="translate(335.742188 0)"/>
     <use xlink:href="#DejaVuSans-44" transform="translate(367.529297 0)"/>
     <use xlink:href="#DejaVuSans-69" transform="translate(444.53125 0)"/>
     <use xlink:href="#DejaVuSans-73" transform="translate(472.314453 0)"/>
     <use xlink:href="#DejaVuSans-63" transform="translate(524.414062 0)"/>
     <use xlink:href="#DejaVuSans-6f" transform="translate(579.394531 0)"/>
     <use xlink:href="#DejaVuSans-76" transform="translate(640.576172 0)"/>
     <use xlink:href="#DejaVuSans-65" transform="translate(699.755859 0)"/>
     <use xlink:href="#DejaVuSans-72" transform="translate(761.279297 0)"/>
     <use xlink:href="#DejaVuSans-79" transform="translate(802.392578 0)"/>
    </g>
   </g>
   <g id="text_5">
    <!-- • Personalized Medicine -->
    <g style="fill: #696969" transform="translate(152.632868 63.08921) scale(0.07 -0.07)">
     <defs>
      <path id="DejaVuSans-50" d="M 1259 4147 
L 1259 2394 
L 2053 2394 
Q 2494 2394 2734 2622 
Q 2975 2850 2975 3272 
Q 2975 3691 2734 3919 
Q 2494 4147 2053 4147 
L 1259 4147 
z
M 628 4666 
L 2053 4666 
Q 2838 4666 3239 4311 
Q 3641 3956 3641 3272 
Q 3641 2581 3239 2228 
Q 2838 1875 2053 1875 
L 1259 1875 
L 1259 0 
L 628 0 
L 628 4666 
z
" transform="scale(0.015625)"/>
      <path id="DejaVuSans-6c" d="M 603 4863 
L 1178 4863 
L 1178 0 
L 603 0 
L 603 4863 
z
" transform="scale(0.015625)"/>
      <path id="DejaVuSans-7a" d="M 353 3500 
L 3084 3500 
L 3084 2975 
L 922 459 
L 3084 459 
L 3084 0 
L 275 0 
L 275 525 
L 2438 3041 
L 353 3041 
L 353 3500 
z
" transform="scale(0.015625)"/>
      <path id="DejaVuSans-64" d="M 2906 2969 
L 2906 4863 
L 3481 4863 
L 3481 0 
L 2906 0 
L 2906 525 
Q 2725 213 2448 61 
Q 2172 -91 1784 -91 
Q 1150 -91 751 415 
Q 353 922 353 1747 
Q 353 2572 751 3078 
Q 1150 3584 1784 3584 
Q 2172 3584 2448 3432 
Q 2725 3281 2906 2969 
z
M 947 1747 
Q 947 1113 1208 752 
Q 1469 391 1925 391 
Q 2381 391 2643 752 
Q 2906 1113 2906 1747 
Q 2906 2381 2643 2742 
Q 2381 3103 1925 3103 
Q 1469 3103 1208 2742 
Q 947 2381 947 1747 
z
" transform="scale(0.015625)"/>
      <path id="DejaVuSans-4d" d="M 628 4666 
L 1569 4666 
L 2759 1491 
L 3956 4666 
L 4897 4666 
L 4897 0 
L 4281 0 
L 4281 4097 
L 3078 897 
L 2444 897 
L 1241 4097 
L 1241 0 
L 628 0 
L 628 4666 
z
" transform="scale(0.015625)"/>
     </defs>
     <use xlink:href="#DejaVuSans-2022"/>
     <use xlink:href="#DejaVuSans-20" transform="translate(58.984375 0)"/>
     <use xlink:href="#DejaVuSans-50" transform="translate(90.771484 0)"/>
     <use xlink:href="#DejaVuSans-65" transform="translate(147.449219 0)"/>
     <use xlink:href="#DejaVuSans-72" transform="translate(208.972656 0)"/>
     <use xlink:href="#DejaVuSans-73" transform="translate(250.085938 0)"/>
     <use xlink:href="#DejaVuSans-6f" transform="translate(302.185547 0)"/>
     <use xlink:href="#DejaVuSans-6e" transform="translate(363.367188 0)"/>
     <use xlink:href="#DejaVuSans-61" transform="translate(426.746094 0)"/>
     <use xlink:href="#DejaVuSans-6c" transform="translate(488.025391 0)"/>
     <use xlink:href="#DejaVuSans-69" transform="translate(515.808594 0)"/>
     <use xlink:href="#DejaVuSans-7a" transform="translate(543.591797 0)"/>
     <use xlink:href="#DejaVuSans-65" transform="translate(596.082031 0)"/>
     <use xlink:href="#DejaVuSans-64" transform="translate(657.605469 0)"/>
     <use xlink:href="#DejaVuSans-20" transform="translate(721.082031 0)"/>
     <use xlink:href="#DejaVuSans-4d" transform="translate(752.869141 0)"/>
     <use xlink:href="#DejaVuSans-65" transform="translate(839.148438 0)"/>
     <use xlink:href="#DejaVuSans-64" transform="translate(900.671875 0)"/>
     <use xlink:href="#DejaVuSans-69" transform="translate(964.148438 0)"/>
     <use xlink:href="#DejaVuSans-63" transform="translate(991.931641 0)"/>
     <use xlink:href="#DejaVuSans-69" transform="translate(1046.912109 0)"/>
     <use xlink:href="#DejaVuSans-6e" transform="translate(1074.695312 0)"/>
     <use xlink:href="#DejaVuSans-65" transform="translate(1138.074219 0)"/>
    </g>
   </g>
   <g id="text_6">
    <g id="patch_4">
     <path d="M 484.251461 32.679062 
L 528.207711 32.679062 
Q 531.207711 32.679062 531.207711 29.679062 
L 531.207711 20.000937 
Q 531.207711 17.000937 528.207711 17.000937 
L 484.251461 17.000937 
Q 481.251461 17.000937 481.251461 20.000937 
L 481.251461 29.679062 
Q 481.251461 32.679062 484.251461 32.679062 
z
" style="fill: #43a047; opacity: 0.85; stroke: #ffffff; stroke-linejoin: miter"/>
    </g>
    <!-- Finance -->
    <g style="fill: #ffffff" transform="translate(484.251461 27.599375) scale(0.1 -0.1)">
     <defs>
      <path id="DejaVuSans-Bold-46" d="M 588 4666 
L 3834 4666 
L 3834 3756 
L 1791 3756 
L 1791 2888 
L 3713 2888 
L 3713 1978 
L 1791 1978 
L 1791 0 
L 588 0 
L 588 4666 
z
" transform="scale(0.015625)"/>
     </defs>
     <use xlink:href="#DejaVuSans-Bold-46"/>
     <use xlink:href="#DejaVuSans-Bold-69" transform="translate(68.310547 0)"/>
     <use xlink:href="#DejaVuSans-Bold-6e" transform="translate(102.587891 0)"/>
     <use xlink:href="#DejaVuSans-Bold-61" transform="translate(173.779297 0)"/>
     <use xlink:href="#DejaVuSans-Bold-6e" transform="translate(241.259766 0)"/>
     <use xlink:href="#DejaVuSans-Bold-63" transform="translate(312.451172 0)"/>
     <use xlink:href="#DejaVuSans-Bold-65" transform="translate(371.728516 0)"/>
    </g>
   </g>
   <g id="text_7">
    <!-- • Fraud Detection -->
    <g style="fill: #696969" transform="translate(399.063599 99.406857) scale(0.07 -0.07)">
     <defs>
      <path id="DejaVuSans-46" d="M 628 4666 
L 3309 4666 
L 3309 4134 
L 1259 4134 
L 1259 2759 
L 3109 2759 
L 3109 2228 
L 1259 2228 
L 1259 0 
L 628 0 
L 628 4666 
z
" transform="scale(0.015625)"/>
      <path id="DejaVuSans-74" d="M 1172 4494 
L 1172 3500 
L 2356 3500 
L 2356 3053 
L 1172 3053 
L 1172 1153 
Q 1172 725 1289 603 
Q 1406 481 1766 481 
L 2356 481 
L 2356 0 
L 1766 0 
Q 1100 0 847 248 
Q 594 497 594 1153 
L 594 3053 
L 172 3053 
L 172 3500 
L 594 3500 
L 594 4494 
L 1172 4494 
z
" transform="scale(0.015625)"/>
     </defs>
     <use xlink:href="#DejaVuSans-2022"/>
     <use xlink:href="#DejaVuSans-20" transform="translate(58.984375 0)"/>
     <use xlink:href="#DejaVuSans-46" transform="translate(90.771484 0)"/>
     <use xlink:href="#DejaVuSans-72" transform="translate(141.041016 0)"/>
     <use xlink:href="#DejaVuSans-61" transform="translate(182.154297 0)"/>
     <use xlink:href="#DejaVuSans-75" transform="translate(243.433594 0)"/>
     <use xlink:href="#DejaVuSans-64" transform="translate(306.8125 0)"/>
     <use xlink:href="#DejaVuSans-20" transform="translate(370.289062 0)"/>
     <use xlink:href="#DejaVuSans-44" transform="translate(402.076172 0)"/>
     <use xlink:href="#DejaVuSans-65" transform="translate(479.078125 0)"/>
     <use xlink:href="#DejaVuSans-74" transform="translate(540.601562 0)"/>
     <use xlink:href="#DejaVuSans-65" transform="translate(579.810547 0)"/>
     <use xlink:href="#DejaVuSans-63" transform="translate(641.333984 0)"/>
     <use xlink:href="#DejaVuSans-74" transform="translate(696.314453 0)"/>
     <use xlink:href="#DejaVuSans-69" transform="translate(735.523438 0)"/>
     <use xlink:href="#DejaVuSans-6f" transform="translate(763.306641 0)"/>
     <use xlink:href="#DejaVuSans-6e" transform="translate(824.488281 0)"/>
    </g>
   </g>
   <g id="text_8">
    <!-- • Algorithmic Trading -->
    <g style="fill: #696969" transform="translate(392.972505 81.248033) scale(0.07 -0.07)">
     <defs>
      <path id="DejaVuSans-41" d="M 2188 4044 
L 1331 1722 
L 3047 1722 
L 2188 4044 
z
M 1831 4666 
L 2547 4666 
L 4325 0 
L 3669 0 
L 3244 1197 
L 1141 1197 
L 716 0 
L 50 0 
L 1831 4666 
z
" transform="scale(0.015625)"/>
      <path id="DejaVuSans-68" d="M 3513 2113 
L 3513 0 
L 2938 0 
L 2938 2094 
Q 2938 2591 2744 2837 
Q 2550 3084 2163 3084 
Q 1697 3084 1428 2787 
Q 1159 2491 1159 1978 
L 1159 0 
L 581 0 
L 581 4863 
L 1159 4863 
L 1159 2956 
Q 1366 3272 1645 3428 
Q 1925 3584 2291 3584 
Q 2894 3584 3203 3211 
Q 3513 2838 3513 2113 
z
" transform="scale(0.015625)"/>
      <path id="DejaVuSans-6d" d="M 3328 2828 
Q 3544 3216 3844 3400 
Q 4144 3584 4550 3584 
Q 5097 3584 5394 3201 
Q 5691 2819 5691 2113 
L 5691 0 
L 5113 0 
L 5113 2094 
Q 5113 2597 4934 2840 
Q 4756 3084 4391 3084 
Q 3944 3084 3684 2787 
Q 3425 2491 3425 1978 
L 3425 0 
L 2847 0 
L 2847 2094 
Q 2847 2600 2669 2842 
Q 2491 3084 2119 3084 
Q 1678 3084 1418 2786 
Q 1159 2488 1159 1978 
L 1159 0 
L 581 0 
L 581 3500 
L 1159 3500 
L 1159 2956 
Q 1356 3278 1631 3431 
Q 1906 3584 2284 3584 
Q 2666 3584 2933 3390 
Q 3200 3197 3328 2828 
z
" transform="scale(0.015625)"/>
      <path id="DejaVuSans-54" d="M -19 4666 
L 3928 4666 
L 3928 4134 
L 2272 4134 
L 2272 0 
L 1638 0 
L 1638 4134 
L -19 4134 
L -19 4666 
z
" transform="scale(0.015625)"/>
     </defs>
     <use xlink:href="#DejaVuSans-2022"/>
     <use xlink:href="#DejaVuSans-20" transform="translate(58.984375 0)"/>
     <use xlink:href="#DejaVuSans-41" transform="translate(90.771484 0)"/>
     <use xlink:href="#DejaVuSans-6c" transform="translate(159.179688 0)"/>
     <use xlink:href="#DejaVuSans-67" transform="translate(186.962891 0)"/>
     <use xlink:href="#DejaVuSans-6f" transform="translate(250.439453 0)"/>
     <use xlink:href="#DejaVuSans-72" transform="translate(311.621094 0)"/>
     <use xlink:href="#DejaVuSans-69" transform="translate(352.734375 0)"/>
     <use xlink:href="#DejaVuSans-74" transform="translate(380.517578 0)"/>
     <use xlink:href="#DejaVuSans-68" transform="translate(419.726562 0)"/>
     <use xlink:href="#DejaVuSans-6d" transform="translate(483.105469 0)"/>
     <use xlink:href="#DejaVuSans-69" transform="translate(580.517578 0)"/>
     <use xlink:href="#DejaVuSans-63" transform="translate(608.300781 0)"/>
     <use xlink:href="#DejaVuSans-20" transform="translate(663.28125 0)"/>
     <use xlink:href="#DejaVuSans-54" transform="translate(695.068359 0)"/>
     <use xlink:href="#DejaVuSans-72" transform="translate(741.402344 0)"/>
     <use xlink:href="#DejaVuSans-61" transform="translate(782.515625 0)"/>
     <use xlink:href="#DejaVuSans-64" transform="translate(843.794922 0)"/>
     <use xlink:href="#DejaVuSans-69" transform="translate(907.271484 0)"/>
     <use xlink:href="#DejaVuSans-6e" transform="translate(935.054688 0)"/>
     <use xlink:href="#DejaVuSans-67" transform="translate(998.433594 0)"/>
    </g>
   </g>
   <g id="text_9">
    <!-- • Risk Assessment -->
    <g style="fill: #696969" transform="translate(397.601255 63.08921) scale(0.07 -0.07)">
     <defs>
      <path id="DejaVuSans-52" d="M 2841 2188 
Q 3044 2119 3236 1894 
Q 3428 1669 3622 1275 
L 4263 0 
L 3584 0 
L 2988 1197 
Q 2756 1666 2539 1819 
Q 2322 1972 1947 1972 
L 1259 1972 
L 1259 0 
L 628 0 
L 628 4666 
L 2053 4666 
Q 2853 4666 3247 4331 
Q 3641 3997 3641 3322 
Q 3641 2881 3436 2590 
Q 3231 2300 2841 2188 
z
M 1259 4147 
L 1259 2491 
L 2053 2491 
Q 2509 2491 2742 2702 
Q 2975 2913 2975 3322 
Q 2975 3731 2742 3939 
Q 2509 4147 2053 4147 
L 1259 4147 
z
" transform="scale(0.015625)"/>
      <path id="DejaVuSans-6b" d="M 581 4863 
L 1159 4863 
L 1159 1991 
L 2875 3500 
L 3609 3500 
L 1753 1863 
L 3688 0 
L 2938 0 
L 1159 1709 
L 1159 0 
L 581 0 
L 581 4863 
z
" transform="scale(0.015625)"/>
     </defs>
     <use xlink:href="#DejaVuSans-2022"/>
     <use xlink:href="#DejaVuSans-20" transform="translate(58.984375 0)"/>
     <use xlink:href="#DejaVuSans-52" transform="translate(90.771484 0)"/>
     <use xlink:href="#DejaVuSans-69" transform="translate(160.253906 0)"/>
     <use xlink:href="#DejaVuSans-73" transform="translate(188.037109 0)"/>
     <use xlink:href="#DejaVuSans-6b" transform="translate(240.136719 0)"/>
     <use xlink:href="#DejaVuSans-20" transform="translate(298.046875 0)"/>
     <use xlink:href="#DejaVuSans-41" transform="translate(329.833984 0)"/>
     <use xlink:href="#DejaVuSans-73" transform="translate(398.242188 0)"/>
     <use xlink:href="#DejaVuSans-73" transform="translate(450.341797 0)"/>
     <use xlink:href="#DejaVuSans-65" transform="translate(502.441406 0)"/>
     <use xlink:href="#DejaVuSans-73" transform="translate(563.964844 0)"/>
     <use xlink:href="#DejaVuSans-73" transform="translate(616.064453 0)"/>
     <use xlink:href="#DejaVuSans-6d" transform="translate(668.164062 0)"/>
     <use xlink:href="#DejaVuSans-65" transform="translate(765.576172 0)"/>
     <use xlink:href="#DejaVuSans-6e" transform="translate(827.099609 0)"/>
     <use xlink:href="#DejaVuSans-74" transform="translate(890.478516 0)"/>
    </g>
   </g>
   <g id="text_10">
    <g id="patch_5">
     <path d="M 500.885227 292.090827 
L 584.041477 292.090827 
Q 587.041477 292.090827 587.041477 289.090827 
L 587.041477 279.412702 
Q 587.041477 276.412702 584.041477 276.412702 
L 500.885227 276.412702 
Q 497.885227 276.412702 497.885227 279.412702 
L 497.885227 289.090827 
Q 497.885227 292.090827 500.885227 292.090827 
z
" style="fill: #fb8c00; opacity: 0.85; stroke: #ffffff; stroke-linejoin: miter"/>
    </g>
    <!-- Transportation -->
    <g style="fill: #ffffff" transform="translate(500.885227 287.01114) scale(0.1 -0.1)">
     <defs>
      <path id="DejaVuSans-Bold-54" d="M 31 4666 
L 4331 4666 
L 4331 3756 
L 2784 3756 
L 2784 0 
L 1581 0 
L 1581 3756 
L 31 3756 
L 31 4666 
z
" transform="scale(0.015625)"/>
     </defs>
     <use xlink:href="#DejaVuSans-Bold-54"/>
     <use xlink:href="#DejaVuSans-Bold-72" transform="translate(57.212891 0)"/>
     <use xlink:href="#DejaVuSans-Bold-61" transform="translate(106.529297 0)"/>
     <use xlink:href="#DejaVuSans-Bold-6e" transform="translate(174.009766 0)"/>
     <use xlink:href="#DejaVuSans-Bold-73" transform="translate(245.201172 0)"/>
     <use xlink:href="#DejaVuSans-Bold-70" transform="translate(304.722656 0)"/>
     <use xlink:href="#DejaVuSans-Bold-6f" transform="translate(376.304688 0)"/>
     <use xlink:href="#DejaVuSans-Bold-72" transform="translate(445.005859 0)"/>
     <use xlink:href="#DejaVuSans-Bold-74" transform="translate(494.322266 0)"/>
     <use xlink:href="#DejaVuSans-Bold-61" transform="translate(542.125 0)"/>
     <use xlink:href="#DejaVuSans-Bold-74" transform="translate(609.605469 0)"/>
     <use xlink:href="#DejaVuSans-Bold-69" transform="translate(657.408203 0)"/>
     <use xlink:href="#DejaVuSans-Bold-6f" transform="translate(691.685547 0)"/>
     <use xlink:href="#DejaVuSans-Bold-6e" transform="translate(760.386719 0)"/>
    </g>
   </g>
   <g id="text_11">
    <!-- • Self-driving Cars -->
    <g style="fill: #696969" transform="translate(421.783203 268.024504) scale(0.07 -0.07)">
     <defs>
      <path id="DejaVuSans-53" d="M 3425 4513 
L 3425 3897 
Q 3066 4069 2747 4153 
Q 2428 4238 2131 4238 
Q 1616 4238 1336 4038 
Q 1056 3838 1056 3469 
Q 1056 3159 1242 3001 
Q 1428 2844 1947 2747 
L 2328 2669 
Q 3034 2534 3370 2195 
Q 3706 1856 3706 1288 
Q 3706 609 3251 259 
Q 2797 -91 1919 -91 
Q 1588 -91 1214 -16 
Q 841 59 441 206 
L 441 856 
Q 825 641 1194 531 
Q 1563 422 1919 422 
Q 2459 422 2753 634 
Q 3047 847 3047 1241 
Q 3047 1584 2836 1778 
Q 2625 1972 2144 2069 
L 1759 2144 
Q 1053 2284 737 2584 
Q 422 2884 422 3419 
Q 422 4038 858 4394 
Q 1294 4750 2059 4750 
Q 2388 4750 2728 4690 
Q 3069 4631 3425 4513 
z
" transform="scale(0.015625)"/>
      <path id="DejaVuSans-66" d="M 2375 4863 
L 2375 4384 
L 1825 4384 
Q 1516 4384 1395 4259 
Q 1275 4134 1275 3809 
L 1275 3500 
L 2222 3500 
L 2222 3053 
L 1275 3053 
L 1275 0 
L 697 0 
L 697 3053 
L 147 3053 
L 147 3500 
L 697 3500 
L 697 3744 
Q 697 4328 969 4595 
Q 1241 4863 1831 4863 
L 2375 4863 
z
" transform="scale(0.015625)"/>
      <path id="DejaVuSans-2d" d="M 313 2009 
L 1997 2009 
L 1997 1497 
L 313 1497 
L 313 2009 
z
" transform="scale(0.015625)"/>
      <path id="DejaVuSans-43" d="M 4122 4306 
L 4122 3641 
Q 3803 3938 3442 4084 
Q 3081 4231 2675 4231 
Q 1875 4231 1450 3742 
Q 1025 3253 1025 2328 
Q 1025 1406 1450 917 
Q 1875 428 2675 428 
Q 3081 428 3442 575 
Q 3803 722 4122 1019 
L 4122 359 
Q 3791 134 3420 21 
Q 3050 -91 2638 -91 
Q 1578 -91 968 557 
Q 359 1206 359 2328 
Q 359 3453 968 4101 
Q 1578 4750 2638 4750 
Q 3056 4750 3426 4639 
Q 3797 4528 4122 4306 
z
" transform="scale(0.015625)"/>
     </defs>
     <use xlink:href="#DejaVuSans-2022"/>
     <use xlink:href="#DejaVuSans-20" transform="translate(58.984375 0)"/>
     <use xlink:href="#DejaVuSans-53" transform="translate(90.771484 0)"/>
     <use xlink:href="#DejaVuSans-65" transform="translate(154.248047 0)"/>
     <use xlink:href="#DejaVuSans-6c" transform="translate(215.771484 0)"/>
     <use xlink:href="#DejaVuSans-66" transform="translate(243.554688 0)"/>
     <use xlink:href="#DejaVuSans-2d" transform="translate(273.259766 0)"/>
     <use xlink:href="#DejaVuSans-64" transform="translate(309.34375 0)"/>
     <use xlink:href="#DejaVuSans-72" transform="translate(372.820312 0)"/>
     <use xlink:href="#DejaVuSans-69" transform="translate(413.933594 0)"/>
     <use xlink:href="#DejaVuSans-76" transform="translate(441.716797 0)"/>
     <use xlink:href="#DejaVuSans-69" transform="translate(500.896484 0)"/>
     <use xlink:href="#DejaVuSans-6e" transform="translate(528.679688 0)"/>
     <use xlink:href="#DejaVuSans-67" transform="translate(592.058594 0)"/>
     <use xlink:href="#DejaVuSans-20" transform="translate(655.535156 0)"/>
     <use xlink:href="#DejaVuSans-43" transform="translate(687.322266 0)"/>
     <use xlink:href="#DejaVuSans-61" transform="translate(757.146484 0)"/>
     <use xlink:href="#DejaVuSans-72" transform="translate(818.425781 0)"/>
     <use xlink:href="#DejaVuSans-73" transform="translate(859.539062 0)"/>
    </g>
   </g>
   <g id="text_12">
    <!-- • Route Optimization -->
    <g style="fill: #696969" transform="translate(416.852578 249.86568) scale(0.07 -0.07)">
     <defs>
      <path id="DejaVuSans-4f" d="M 2522 4238 
Q 1834 4238 1429 3725 
Q 1025 3213 1025 2328 
Q 1025 1447 1429 934 
Q 1834 422 2522 422 
Q 3209 422 3611 934 
Q 4013 1447 4013 2328 
Q 4013 3213 3611 3725 
Q 3209 4238 2522 4238 
z
M 2522 4750 
Q 3503 4750 4090 4092 
Q 4678 3434 4678 2328 
Q 4678 1225 4090 567 
Q 3503 -91 2522 -91 
Q 1538 -91 948 565 
Q 359 1222 359 2328 
Q 359 3434 948 4092 
Q 1538 4750 2522 4750 
z
" transform="scale(0.015625)"/>
      <path id="DejaVuSans-70" d="M 1159 525 
L 1159 -1331 
L 581 -1331 
L 581 3500 
L 1159 3500 
L 1159 2969 
Q 1341 3281 1617 3432 
Q 1894 3584 2278 3584 
Q 2916 3584 3314 3078 
Q 3713 2572 3713 1747 
Q 3713 922 3314 415 
Q 2916 -91 2278 -91 
Q 1894 -91 1617 61 
Q 1341 213 1159 525 
z
M 3116 1747 
Q 3116 2381 2855 2742 
Q 2594 3103 2138 3103 
Q 1681 3103 1420 2742 
Q 1159 2381 1159 1747 
Q 1159 1113 1420 752 
Q 1681 391 2138 391 
Q 2594 391 2855 752 
Q 3116 1113 3116 1747 
z
" transform="scale(0.015625)"/>
     </defs>
     <use xlink:href="#DejaVuSans-2022"/>
     <use xlink:href="#DejaVuSans-20" transform="translate(58.984375 0)"/>
     <use xlink:href="#DejaVuSans-52" transform="translate(90.771484 0)"/>
     <use xlink:href="#DejaVuSans-6f" transform="translate(155.753906 0)"/>
     <use xlink:href="#DejaVuSans-75" transform="translate(216.935547 0)"/>
     <use xlink:href="#DejaVuSans-74" transform="translate(280.314453 0)"/>
     <use xlink:href="#DejaVuSans-65" transform="translate(319.523438 0)"/>
     <use xlink:href="#DejaVuSans-20" transform="translate(381.046875 0)"/>
     <use xlink:href="#DejaVuSans-4f" transform="translate(412.833984 0)"/>
     <use xlink:href="#DejaVuSans-70" transform="translate(491.544922 0)"/>
     <use xlink:href="#DejaVuSans-74" transform="translate(555.021484 0)"/>
     <use xlink:href="#DejaVuSans-69" transform="translate(594.230469 0)"/>
     <use xlink:href="#DejaVuSans-6d" transform="translate(622.013672 0)"/>
     <use xlink:href="#DejaVuSans-69" transform="translate(719.425781 0)"/>
     <use xlink:href="#DejaVuSans-7a" transform="translate(747.208984 0)"/>
     <use xlink:href="#DejaVuSans-61" transform="translate(799.699219 0)"/>
     <use xlink:href="#DejaVuSans-74" transform="translate(860.978516 0)"/>
     <use xlink:href="#DejaVuSans-69" transform="translate(900.1875 0)"/>
     <use xlink:href="#DejaVuSans-6f" transform="translate(927.970703 0)"/>
     <use xlink:href="#DejaVuSans-6e" transform="translate(989.152344 0)"/>
    </g>
   </g>
   <g id="text_13">
    <!-- • Traffic Prediction -->
    <g style="fill: #696969" transform="translate(421.449609 231.706857) scale(0.07 -0.07)">
     <use xlink:href="#DejaVuSans-2022"/>
     <use xlink:href="#DejaVuSans-20" transform="translate(58.984375 0)"/>
     <use xlink:href="#DejaVuSans-54" transform="translate(90.771484 0)"/>
     <use xlink:href="#DejaVuSans-72" transform="translate(137.105469 0)"/>
     <use xlink:href="#DejaVuSans-61" transform="translate(178.21875 0)"/>
     <use xlink:href="#DejaVuSans-66" transform="translate(239.498047 0)"/>
     <use xlink:href="#DejaVuSans-66" transform="translate(274.703125 0)"/>
     <use xlink:href="#DejaVuSans-69" transform="translate(309.908203 0)"/>
     <use xlink:href="#DejaVuSans-63" transform="translate(337.691406 0)"/>
     <use xlink:href="#DejaVuSans-20" transform="translate(392.671875 0)"/>
     <use xlink:href="#DejaVuSans-50" transform="translate(424.458984 0)"/>
     <use xlink:href="#DejaVuSans-72" transform="translate(483.011719 0)"/>
     <use xlink:href="#DejaVuSans-65" transform="translate(521.875 0)"/>
     <use xlink:href="#DejaVuSans-64" transform="translate(583.398438 0)"/>
     <use xlink:href="#DejaVuSans-69" transform="translate(646.875 0)"/>
     <use xlink:href="#DejaVuSans-63" transform="translate(674.658203 0)"/>
     <use xlink:href="#DejaVuSans-74" transform="translate(729.638672 0)"/>
     <use xlink:href="#DejaVuSans-69" transform="translate(768.847656 0)"/>
     <use xlink:href="#DejaVuSans-6f" transform="translate(796.630859 0)"/>
     <use xlink:href="#DejaVuSans-6e" transform="translate(857.8125 0)"/>
    </g>
   </g>
   <g id="text_14">
    <g id="patch_6">
     <path d="M 31.177516 292.12989 
L 111.671266 292.12989 
Q 114.671266 292.12989 114.671266 289.12989 
L 114.671266 279.37364 
Q 114.671266 276.37364 111.671266 276.37364 
L 31.177516 276.37364 
Q 28.177516 276.37364 28.177516 279.37364 
L 28.177516 289.12989 
Q 28.177516 292.12989 31.177516 292.12989 
z
" style="fill: #8e24aa; opacity: 0.85; stroke: #ffffff; stroke-linejoin: miter"/>
    </g>
    <!-- Biotechnology -->
    <g style="fill: #ffffff" transform="translate(31.177516 286.972077) scale(0.1 -0.1)">
     <defs>
      <path id="DejaVuSans-Bold-42" d="M 2456 2859 
Q 2741 2859 2887 2984 
Q 3034 3109 3034 3353 
Q 3034 3594 2887 3720 
Q 2741 3847 2456 3847 
L 1791 3847 
L 1791 2859 
L 2456 2859 
z
M 2497 819 
Q 2859 819 3042 972 
Q 3225 1125 3225 1434 
Q 3225 1738 3044 1889 
Q 2863 2041 2497 2041 
L 1791 2041 
L 1791 819 
L 2497 819 
z
M 3616 2497 
Q 4003 2384 4215 2081 
Q 4428 1778 4428 1338 
Q 4428 663 3972 331 
Q 3516 0 2584 0 
L 588 0 
L 588 4666 
L 2394 4666 
Q 3366 4666 3802 4372 
Q 4238 4078 4238 3431 
Q 4238 3091 4078 2852 
Q 3919 2613 3616 2497 
z
" transform="scale(0.015625)"/>
      <path id="DejaVuSans-Bold-67" d="M 2919 594 
Q 2688 288 2409 144 
Q 2131 0 1766 0 
Q 1125 0 706 504 
Q 288 1009 288 1791 
Q 288 2575 706 3076 
Q 1125 3578 1766 3578 
Q 2131 3578 2409 3434 
Q 2688 3291 2919 2981 
L 2919 3500 
L 4044 3500 
L 4044 353 
Q 4044 -491 3511 -936 
Q 2978 -1381 1966 -1381 
Q 1638 -1381 1331 -1331 
Q 1025 -1281 716 -1178 
L 716 -306 
Q 1009 -475 1290 -558 
Q 1572 -641 1856 -641 
Q 2406 -641 2662 -400 
Q 2919 -159 2919 353 
L 2919 594 
z
M 2181 2772 
Q 1834 2772 1640 2515 
Q 1447 2259 1447 1791 
Q 1447 1309 1634 1061 
Q 1822 813 2181 813 
Q 2531 813 2725 1069 
Q 2919 1325 2919 1791 
Q 2919 2259 2725 2515 
Q 2531 2772 2181 2772 
z
" transform="scale(0.015625)"/>
      <path id="DejaVuSans-Bold-79" d="M 78 3500 
L 1197 3500 
L 2138 1125 
L 2938 3500 
L 4056 3500 
L 2584 -331 
Q 2363 -916 2067 -1148 
Q 1772 -1381 1288 -1381 
L 641 -1381 
L 641 -647 
L 991 -647 
Q 1275 -647 1404 -556 
Q 1534 -466 1606 -231 
L 1638 -134 
L 78 3500 
z
" transform="scale(0.015625)"/>
     </defs>
     <use xlink:href="#DejaVuSans-Bold-42"/>
     <use xlink:href="#DejaVuSans-Bold-69" transform="translate(76.220703 0)"/>
     <use xlink:href="#DejaVuSans-Bold-6f" transform="translate(110.498047 0)"/>
     <use xlink:href="#DejaVuSans-Bold-74" transform="translate(179.199219 0)"/>
     <use xlink:href="#DejaVuSans-Bold-65" transform="translate(227.001953 0)"/>
     <use xlink:href="#DejaVuSans-Bold-63" transform="translate(294.824219 0)"/>
     <use xlink:href="#DejaVuSans-Bold-68" transform="translate(354.101562 0)"/>
     <use xlink:href="#DejaVuSans-Bold-6e" transform="translate(425.292969 0)"/>
     <use xlink:href="#DejaVuSans-Bold-6f" transform="translate(496.484375 0)"/>
     <use xlink:href="#DejaVuSans-Bold-6c" transform="translate(565.185547 0)"/>
     <use xlink:href="#DejaVuSans-Bold-6f" transform="translate(599.462891 0)"/>
     <use xlink:href="#DejaVuSans-Bold-67" transform="translate(668.164062 0)"/>
     <use xlink:href="#DejaVuSans-Bold-79" transform="translate(739.746094 0)"/>
    </g>
   </g>
   <g id="text_15">
    <!-- • Genomics -->
    <g style="fill: #696969" transform="translate(126.983972 268.024504) scale(0.07 -0.07)">
     <defs>
      <path id="DejaVuSans-47" d="M 3809 666 
L 3809 1919 
L 2778 1919 
L 2778 2438 
L 4434 2438 
L 4434 434 
Q 4069 175 3628 42 
Q 3188 -91 2688 -91 
Q 1594 -91 976 548 
Q 359 1188 359 2328 
Q 359 3472 976 4111 
Q 1594 4750 2688 4750 
Q 3144 4750 3555 4637 
Q 3966 4525 4313 4306 
L 4313 3634 
Q 3963 3931 3569 4081 
Q 3175 4231 2741 4231 
Q 1884 4231 1454 3753 
Q 1025 3275 1025 2328 
Q 1025 1384 1454 906 
Q 1884 428 2741 428 
Q 3075 428 3337 486 
Q 3600 544 3809 666 
z
" transform="scale(0.015625)"/>
     </defs>
     <use xlink:href="#DejaVuSans-2022"/>
     <use xlink:href="#DejaVuSans-20" transform="translate(58.984375 0)"/>
     <use xlink:href="#DejaVuSans-47" transform="translate(90.771484 0)"/>
     <use xlink:href="#DejaVuSans-65" transform="translate(168.261719 0)"/>
     <use xlink:href="#DejaVuSans-6e" transform="translate(229.785156 0)"/>
     <use xlink:href="#DejaVuSans-6f" transform="translate(293.164062 0)"/>
     <use xlink:href="#DejaVuSans-6d" transform="translate(354.345703 0)"/>
     <use xlink:href="#DejaVuSans-69" transform="translate(451.757812 0)"/>
     <use xlink:href="#DejaVuSans-63" transform="translate(479.541016 0)"/>
     <use xlink:href="#DejaVuSans-73" transform="translate(534.521484 0)"/>
    </g>
   </g>
   <g id="text_16">
    <!-- • Protein Folding -->
    <g style="fill: #696969" transform="translate(118.324753 249.86568) scale(0.07 -0.07)">
     <use xlink:href="#DejaVuSans-2022"/>
     <use xlink:href="#DejaVuSans-20" transform="translate(58.984375 0)"/>
     <use xlink:href="#DejaVuSans-50" transform="translate(90.771484 0)"/>
     <use xlink:href="#DejaVuSans-72" transform="translate(149.324219 0)"/>
     <use xlink:href="#DejaVuSans-6f" transform="translate(188.1875 0)"/>
     <use xlink:href="#DejaVuSans-74" transform="translate(249.369141 0)"/>
     <use xlink:href="#DejaVuSans-65" transform="translate(288.578125 0)"/>
     <use xlink:href="#DejaVuSans-69" transform="translate(350.101562 0)"/>
     <use xlink:href="#DejaVuSans-6e" transform="translate(377.884766 0)"/>
     <use xlink:href="#DejaVuSans-20" transform="translate(441.263672 0)"/>
     <use xlink:href="#DejaVuSans-46" transform="translate(473.050781 0)"/>
     <use xlink:href="#DejaVuSans-6f" transform="translate(526.945312 0)"/>
     <use xlink:href="#DejaVuSans-6c" transform="translate(588.126953 0)"/>
     <use xlink:href="#DejaVuSans-64" transform="translate(615.910156 0)"/>
     <use xlink:href="#DejaVuSans-69" transform="translate(679.386719 0)"/>
     <use xlink:href="#DejaVuSans-6e" transform="translate(707.169922 0)"/>
     <use xlink:href="#DejaVuSans-67" transform="translate(770.548828 0)"/>
    </g>
   </g>
   <g id="text_17">
    <!-- • Clinical Trials -->
    <g style="fill: #696969" transform="translate(121.632253 231.706857) scale(0.07 -0.07)">
     <use xlink:href="#DejaVuSans-2022"/>
     <use xlink:href="#DejaVuSans-20" transform="translate(58.984375 0)"/>
     <use xlink:href="#DejaVuSans-43" transform="translate(90.771484 0)"/>
     <use xlink:href="#DejaVuSans-6c" transform="translate(160.595703 0)"/>
     <use xlink:href="#DejaVuSans-69" transform="translate(188.378906 0)"/>
     <use xlink:href="#DejaVuSans-6e" transform="translate(216.162109 0)"/>
     <use xlink:href="#DejaVuSans-69" transform="translate(279.541016 0)"/>
     <use xlink:href="#DejaVuSans-63" transform="translate(307.324219 0)"/>
     <use xlink:href="#DejaVuSans-61" transform="translate(362.304688 0)"/>
     <use xlink:href="#DejaVuSans-6c" transform="translate(423.583984 0)"/>
     <use xlink:href="#DejaVuSans-20" transform="translate(451.367188 0)"/>
     <use xlink:href="#DejaVuSans-54" transform="translate(483.154297 0)"/>
     <use xlink:href="#DejaVuSans-72" transform="translate(529.488281 0)"/>
     <use xlink:href="#DejaVuSans-69" transform="translate(570.601562 0)"/>
     <use xlink:href="#DejaVuSans-61" transform="translate(598.384766 0)"/>
     <use xlink:href="#DejaVuSans-6c" transform="translate(659.664062 0)"/>
     <use xlink:href="#DejaVuSans-73" transform="translate(687.447266 0)"/>
    </g>
   </g>
   <g id="text_18">
    <g id="patch_7">
     <path d="M 274.876989 385.479062 
L 302.776989 385.479062 
Q 305.776989 385.479062 305.776989 382.479062 
L 305.776989 372.800937 
Q 305.776989 369.800937 302.776989 369.800937 
L 274.876989 369.800937 
Q 271.876989 369.800937 271.876989 372.800937 
L 271.876989 382.479062 
Q 271.876989 385.479062 274.876989 385.479062 
z
" style="fill: #00acc1; opacity: 0.85; stroke: #ffffff; stroke-linejoin: miter"/>
    </g>
    <!-- SaaS -->
    <g style="fill: #ffffff" transform="translate(274.876989 380.399375) scale(0.1 -0.1)">
     <defs>
      <path id="DejaVuSans-Bold-53" d="M 3834 4519 
L 3834 3531 
Q 3450 3703 3084 3790 
Q 2719 3878 2394 3878 
Q 1963 3878 1756 3759 
Q 1550 3641 1550 3391 
Q 1550 3203 1689 3098 
Q 1828 2994 2194 2919 
L 2706 2816 
Q 3484 2659 3812 2340 
Q 4141 2022 4141 1434 
Q 4141 663 3683 286 
Q 3225 -91 2284 -91 
Q 1841 -91 1394 -6 
Q 947 78 500 244 
L 500 1259 
Q 947 1022 1364 901 
Q 1781 781 2169 781 
Q 2563 781 2772 912 
Q 2981 1044 2981 1288 
Q 2981 1506 2839 1625 
Q 2697 1744 2272 1838 
L 1806 1941 
Q 1106 2091 782 2419 
Q 459 2747 459 3303 
Q 459 4000 909 4375 
Q 1359 4750 2203 4750 
Q 2588 4750 2994 4692 
Q 3400 4634 3834 4519 
z
" transform="scale(0.015625)"/>
     </defs>
     <use xlink:href="#DejaVuSans-Bold-53"/>
     <use xlink:href="#DejaVuSans-Bold-61" transform="translate(72.021484 0)"/>
     <use xlink:href="#DejaVuSans-Bold-61" transform="translate(139.501953 0)"/>
     <use xlink:href="#DejaVuSans-Bold-53" transform="translate(206.982422 0)"/>
    </g>
   </g>
   <g id="text_19">
    <!-- • Churn Prediction -->
    <g style="fill: #696969" transform="translate(256.676207 328.726857) scale(0.07 -0.07)">
     <use xlink:href="#DejaVuSans-2022"/>
     <use xlink:href="#DejaVuSans-20" transform="translate(58.984375 0)"/>
     <use xlink:href="#DejaVuSans-43" transform="translate(90.771484 0)"/>
     <use xlink:href="#DejaVuSans-68" transform="translate(160.595703 0)"/>
     <use xlink:href="#DejaVuSans-75" transform="translate(223.974609 0)"/>
     <use xlink:href="#DejaVuSans-72" transform="translate(287.353516 0)"/>
     <use xlink:href="#DejaVuSans-6e" transform="translate(326.716797 0)"/>
     <use xlink:href="#DejaVuSans-20" transform="translate(390.095703 0)"/>
     <use xlink:href="#DejaVuSans-50" transform="translate(421.882812 0)"/>
     <use xlink:href="#DejaVuSans-72" transform="translate(480.435547 0)"/>
     <use xlink:href="#DejaVuSans-65" transform="translate(519.298828 0)"/>
     <use xlink:href="#DejaVuSans-64" transform="translate(580.822266 0)"/>
     <use xlink:href="#DejaVuSans-69" transform="translate(644.298828 0)"/>
     <use xlink:href="#DejaVuSans-63" transform="translate(672.082031 0)"/>
     <use xlink:href="#DejaVuSans-74" transform="translate(727.0625 0)"/>
     <use xlink:href="#DejaVuSans-69" transform="translate(766.271484 0)"/>
     <use xlink:href="#DejaVuSans-6f" transform="translate(794.054688 0)"/>
     <use xlink:href="#DejaVuSans-6e" transform="translate(855.236328 0)"/>
    </g>
   </g>
   <g id="text_20">
    <!-- • Recommendation -->
    <g style="fill: #696969" transform="translate(254.895036 310.568033) scale(0.07 -0.07)">
     <use xlink:href="#DejaVuSans-2022"/>
     <use xlink:href="#DejaVuSans-20" transform="translate(58.984375 0)"/>
     <use xlink:href="#DejaVuSans-52" transform="translate(90.771484 0)"/>
     <use xlink:href="#DejaVuSans-65" transform="translate(155.753906 0)"/>
     <use xlink:href="#DejaVuSans-63" transform="translate(217.277344 0)"/>
     <use xlink:href="#DejaVuSans-6f" transform="translate(272.257812 0)"/>
     <use xlink:href="#DejaVuSans-6d" transform="translate(333.439453 0)"/>
     <use xlink:href="#DejaVuSans-6d" transform="translate(430.851562 0)"/>
     <use xlink:href="#DejaVuSans-65" transform="translate(528.263672 0)"/>
     <use xlink:href="#DejaVuSans-6e" transform="translate(589.787109 0)"/>
     <use xlink:href="#DejaVuSans-64" transform="translate(653.166016 0)"/>
     <use xlink:href="#DejaVuSans-61" transform="translate(716.642578 0)"/>
     <use xlink:href="#DejaVuSans-74" transform="translate(777.921875 0)"/>
     <use xlink:href="#DejaVuSans-69" transform="translate(817.130859 0)"/>
     <use xlink:href="#DejaVuSans-6f" transform="translate(844.914062 0)"/>
     <use xlink:href="#DejaVuSans-6e" transform="translate(906.095703 0)"/>
    </g>
   </g>
   <g id="text_21">
    <!-- • Customer Segmentation -->
    <g style="fill: #696969" transform="translate(242.937614 292.40921) scale(0.07 -0.07)">
     <use xlink:href="#DejaVuSans-2022"/>
     <use xlink:href="#DejaVuSans-20" transform="translate(58.984375 0)"/>
     <use xlink:href="#DejaVuSans-43" transform="translate(90.771484 0)"/>
     <use xlink:href="#DejaVuSans-75" transform="translate(160.595703 0)"/>
     <use xlink:href="#DejaVuSans-73" transform="translate(223.974609 0)"/>
     <use xlink:href="#DejaVuSans-74" transform="translate(276.074219 0)"/>
     <use xlink:href="#DejaVuSans-6f" transform="translate(315.283203 0)"/>
     <use xlink:href="#DejaVuSans-6d" transform="translate(376.464844 0)"/>
     <use xlink:href="#DejaVuSans-65" transform="translate(473.876953 0)"/>
     <use xlink:href="#DejaVuSans-72" transform="translate(535.400391 0)"/>
     <use xlink:href="#DejaVuSans-20" transform="translate(576.513672 0)"/>
     <use xlink:href="#DejaVuSans-53" transform="translate(608.300781 0)"/>
     <use xlink:href="#DejaVuSans-65" transform="translate(671.777344 0)"/>
     <use xlink:href="#DejaVuSans-67" transform="translate(733.300781 0)"/>
     <use xlink:href="#DejaVuSans-6d" transform="translate(796.777344 0)"/>
     <use xlink:href="#DejaVuSans-65" transform="translate(894.189453 0)"/>
     <use xlink:href="#DejaVuSans-6e" transform="translate(955.712891 0)"/>
     <use xlink:href="#DejaVuSans-74" transform="translate(1019.091797 0)"/>
     <use xlink:href="#DejaVuSans-61" transform="translate(1058.300781 0)"/>
     <use xlink:href="#DejaVuSans-74" transform="translate(1119.580078 0)"/>
     <use xlink:href="#DejaVuSans-69" transform="translate(1158.789062 0)"/>
     <use xlink:href="#DejaVuSans-6f" transform="translate(1186.572266 0)"/>
     <use xlink:href="#DejaVuSans-6e" transform="translate(1247.753906 0)"/>
    </g>
   </g>
   <g id="text_22">
    <g id="patch_8">
     <path d="M 7.2 136.443768 
L 63.18125 136.443768 
Q 66.18125 136.443768 66.18125 133.443768 
L 66.18125 123.765643 
Q 66.18125 120.765643 63.18125 120.765643 
L 7.2 120.765643 
Q 4.2 120.765643 4.2 123.765643 
L 4.2 133.443768 
Q 4.2 136.443768 7.2 136.443768 
z
" style="fill: #5c6bc0; opacity: 0.85; stroke: #ffffff; stroke-linejoin: miter"/>
    </g>
    <!-- Education -->
    <g style="fill: #ffffff" transform="translate(7.2 131.364081) scale(0.1 -0.1)">
     <defs>
      <path id="DejaVuSans-Bold-45" d="M 588 4666 
L 3834 4666 
L 3834 3756 
L 1791 3756 
L 1791 2888 
L 3713 2888 
L 3713 1978 
L 1791 1978 
L 1791 909 
L 3903 909 
L 3903 0 
L 588 0 
L 588 4666 
z
" transform="scale(0.015625)"/>
      <path id="DejaVuSans-Bold-64" d="M 2919 2988 
L 2919 4863 
L 4044 4863 
L 4044 0 
L 2919 0 
L 2919 506 
Q 2688 197 2409 53 
Q 2131 -91 1766 -91 
Q 1119 -91 703 423 
Q 288 938 288 1747 
Q 288 2556 703 3070 
Q 1119 3584 1766 3584 
Q 2128 3584 2408 3439 
Q 2688 3294 2919 2988 
z
M 2181 722 
Q 2541 722 2730 984 
Q 2919 1247 2919 1747 
Q 2919 2247 2730 2509 
Q 2541 2772 2181 2772 
Q 1825 2772 1636 2509 
Q 1447 2247 1447 1747 
Q 1447 1247 1636 984 
Q 1825 722 2181 722 
z
" transform="scale(0.015625)"/>
      <path id="DejaVuSans-Bold-75" d="M 500 1363 
L 500 3500 
L 1625 3500 
L 1625 3150 
Q 1625 2866 1622 2436 
Q 1619 2006 1619 1863 
Q 1619 1441 1641 1255 
Q 1663 1069 1716 984 
Q 1784 875 1895 815 
Q 2006 756 2150 756 
Q 2500 756 2700 1025 
Q 2900 1294 2900 1772 
L 2900 3500 
L 4019 3500 
L 4019 0 
L 2900 0 
L 2900 506 
Q 2647 200 2364 54 
Q 2081 -91 1741 -91 
Q 1134 -91 817 281 
Q 500 653 500 1363 
z
" transform="scale(0.015625)"/>
     </defs>
     <use xlink:href="#DejaVuSans-Bold-45"/>
     <use xlink:href="#DejaVuSans-Bold-64" transform="translate(68.310547 0)"/>
     <use xlink:href="#DejaVuSans-Bold-75" transform="translate(139.892578 0)"/>
     <use xlink:href="#DejaVuSans-Bold-63" transform="translate(211.083984 0)"/>
     <use xlink:href="#DejaVuSans-Bold-61" transform="translate(270.361328 0)"/>
     <use xlink:href="#DejaVuSans-Bold-74" transform="translate(337.841797 0)"/>
     <use xlink:href="#DejaVuSans-Bold-69" transform="translate(385.644531 0)"/>
     <use xlink:href="#DejaVuSans-Bold-6f" transform="translate(419.921875 0)"/>
     <use xlink:href="#DejaVuSans-Bold-6e" transform="translate(488.623047 0)"/>
    </g>
   </g>
   <g id="text_23">
    <!-- • Adaptive Learning -->
    <g style="fill: #696969" transform="translate(88.987415 166.853915) scale(0.07 -0.07)">
     <defs>
      <path id="DejaVuSans-4c" d="M 628 4666 
L 1259 4666 
L 1259 531 
L 3531 531 
L 3531 0 
L 628 0 
L 628 4666 
z
" transform="scale(0.015625)"/>
     </defs>
     <use xlink:href="#DejaVuSans-2022"/>
     <use xlink:href="#DejaVuSans-20" transform="translate(58.984375 0)"/>
     <use xlink:href="#DejaVuSans-41" transform="translate(90.771484 0)"/>
     <use xlink:href="#DejaVuSans-64" transform="translate(157.429688 0)"/>
     <use xlink:href="#DejaVuSans-61" transform="translate(220.90625 0)"/>
     <use xlink:href="#DejaVuSans-70" transform="translate(282.185547 0)"/>
     <use xlink:href="#DejaVuSans-74" transform="translate(345.662109 0)"/>
     <use xlink:href="#DejaVuSans-69" transform="translate(384.871094 0)"/>
     <use xlink:href="#DejaVuSans-76" transform="translate(412.654297 0)"/>
     <use xlink:href="#DejaVuSans-65" transform="translate(471.833984 0)"/>
     <use xlink:href="#DejaVuSans-20" transform="translate(533.357422 0)"/>
     <use xlink:href="#DejaVuSans-4c" transform="translate(565.144531 0)"/>
     <use xlink:href="#DejaVuSans-65" transform="translate(619.107422 0)"/>
     <use xlink:href="#DejaVuSans-61" transform="translate(680.630859 0)"/>
     <use xlink:href="#DejaVuSans-72" transform="translate(741.910156 0)"/>
     <use xlink:href="#DejaVuSans-6e" transform="translate(781.273438 0)"/>
     <use xlink:href="#DejaVuSans-69" transform="translate(844.652344 0)"/>
     <use xlink:href="#DejaVuSans-6e" transform="translate(872.435547 0)"/>
     <use xlink:href="#DejaVuSans-67" transform="translate(935.814453 0)"/>
    </g>
   </g>
   <g id="text_24">
    <!-- • Grading -->
    <g style="fill: #696969" transform="translate(106.856555 148.695092) scale(0.07 -0.07)">
     <use xlink:href="#DejaVuSans-2022"/>
     <use xlink:href="#DejaVuSans-20" transform="translate(58.984375 0)"/>
     <use xlink:href="#DejaVuSans-47" transform="translate(90.771484 0)"/>
     <use xlink:href="#DejaVuSans-72" transform="translate(168.261719 0)"/>
     <use xlink:href="#DejaVuSans-61" transform="translate(209.375 0)"/>
     <use xlink:href="#DejaVuSans-64" transform="translate(270.654297 0)"/>
     <use xlink:href="#DejaVuSans-69" transform="translate(334.130859 0)"/>
     <use xlink:href="#DejaVuSans-6e" transform="translate(361.914062 0)"/>
     <use xlink:href="#DejaVuSans-67" transform="translate(425.292969 0)"/>
    </g>
   </g>
   <g id="text_25">
    <!-- • Tutoring Systems -->
    <g style="fill: #696969" transform="translate(90.607805 130.536268) scale(0.07 -0.07)">
     <use xlink:href="#DejaVuSans-2022"/>
     <use xlink:href="#DejaVuSans-20" transform="translate(58.984375 0)"/>
     <use xlink:href="#DejaVuSans-54" transform="translate(90.771484 0)"/>
     <use xlink:href="#DejaVuSans-75" transform="translate(136.730469 0)"/>
     <use xlink:href="#DejaVuSans-74" transform="translate(200.109375 0)"/>
     <use xlink:href="#DejaVuSans-6f" transform="translate(239.318359 0)"/>
     <use xlink:href="#DejaVuSans-72" transform="translate(300.5 0)"/>
     <use xlink:href="#DejaVuSans-69" transform="translate(341.613281 0)"/>
     <use xlink:href="#DejaVuSans-6e" transform="translate(369.396484 0)"/>
     <use xlink:href="#DejaVuSans-67" transform="translate(432.775391 0)"/>
     <use xlink:href="#DejaVuSans-20" transform="translate(496.251953 0)"/>
     <use xlink:href="#DejaVuSans-53" transform="translate(528.039062 0)"/>
     <use xlink:href="#DejaVuSans-79" transform="translate(591.515625 0)"/>
     <use xlink:href="#DejaVuSans-73" transform="translate(650.695312 0)"/>
     <use xlink:href="#DejaVuSans-74" transform="translate(702.794922 0)"/>
     <use xlink:href="#DejaVuSans-65" transform="translate(742.003906 0)"/>
     <use xlink:href="#DejaVuSans-6d" transform="translate(803.527344 0)"/>
     <use xlink:href="#DejaVuSans-73" transform="translate(900.939453 0)"/>
    </g>
   </g>
  </g>
 </g>
 <defs>
  <clipPath id="p564ba1fc8f">
   <rect x="9.826989" y="7.2" width="558" height="388.08"/>
  </clipPath>
 </defs>
</svg>
